<mxfile host="app.diagrams.net" modified="2021-09-24T09:42:38.107Z" agent="5.0 (Windows NT 10.0; Win64; x64) AppleWebKit/537.36 (KHTML, like Gecko) Chrome/94.0.4606.54 Safari/537.36" etag="USsX8zxX06M8UhrykaGR" version="15.2.9" type="github">
  <diagram id="R2lEEEUBdFMjLlhIrx00" name="Page-1">
    <mxGraphModel dx="1218" dy="693" grid="1" gridSize="10" guides="1" tooltips="1" connect="1" arrows="1" fold="1" page="1" pageScale="1" pageWidth="850" pageHeight="1100" math="0" shadow="0" extFonts="Permanent Marker^https://fonts.googleapis.com/css?family=Permanent+Marker">
      <root>
        <mxCell id="0" />
        <mxCell id="1" parent="0" />
        <mxCell id="sZWga9BNV3LrwHPmDbqd-3" value="" style="shape=image;verticalLabelPosition=bottom;labelBackgroundColor=#ffffff;verticalAlign=top;aspect=fixed;imageAspect=0;image=data:image/png,iVBORw0KGgoAAAANSUhEUgAABLYAAAMxCAYAAAD2dDp7AAAgAElEQVR4Aey934tk13nvXff5C+r6QK5EciF8kRvRF6Yx6CLnRhcWaA4edGHw1RjUaBAGETGW4w5DQK9ljkjzyoOP4pC0kR3mjTzvdOy88iDm0G88jhDjloUjrGEyljDKpDUWI7tYh291P9W7du2fVfvH+vHZUFTVrr3XXuvzPHuvtb7rWasmjg0CEIAABCAAAQhAAAIQgAAEIAABCEAAAgESmASYZ7IMAQhAAAIQgAAEIAABCEAAAhCAAAQgAAGHsIUTQAACEIAABCAAAQhAAAIQgAAEIAABCARJAGErSLORaQhAAAIQgAAEIAABCEAAAhCAAAQgAAGELXwAAhCAAAQgAAEIQAACEIAABCAAAQhAIEgCCFtBmo1MQwACEIAABCAAAQhAAAIQgAAEIAABCCBs4QMQgAAEIAABCEAAAhCAAAQgAAEIQAACQRJA2ArSbGQaAhCAAAQgAAEIQAACEIAABCAAAQhAAGELH4AABCAAAQhAAAIQgAAEIAABCEAAAhAIkgDCVpBmI9MQgAAEIAABCEAAAhCAAAQgAAEIQAACCFv4AAQgAAEIQAACEIAABCAAAQhAAAIQgECQBBC2gjQbmYYABCAAAQhAAAIQgAAEIAABCEAAAhBA2MIHIAABCEAAAhCAAAQgAAEIQAACEIAABIIkgLAVpNnINAQgAAEIQAACEIAABCAAAQhAAAIQgADCFj4AAQhAAAIQgAAEIAABCEAAAhCAAAQgECQBhK0gzUamIQABCEAAAhCAAAQgAAEIQAACEIAABBC28AEIQAACEIAABCAAAQhAAAIQgAAEIACBIAkgbAVpNjINAQhAAAIQgAAEIAABCEAAAhCAAAQggLCFD0AAAhCAAAQgAAEIQAACEIAABCAAAQgESQBhK0izkWkIQAACEIAABCAAAQhAAAIQgAAEIAABhC18AAIQgAAEIAABCEAAAhCAAAQgAAEIQCBIAghbQZqNTEMAAhCAAAQgAAEIQAACEIAABCAAAQggbOEDEIAABCAAAQhAAAIQgAAEIAABCEAAAkESQNgK0mxkGgIQgAAEIAABCEAAAhCAAAQgAAEIQABhCx+AAAQgAAEIQAACEIAABCAAAQhAAAIQCJIAwlaQZiPTEIAABCAAAQhAAAIQgAAEIAABCEAAAghb+AAEIAABCEAAAhCAAAQgAAEIQAACEIBAkAQQtoI0G5mGAAQgAAEIQAACEIAABCAAAQhAAAIQQNjCByAAAQhAAAIQgAAEIAABCEAAAhCAAASCJICwFaTZyDQEIAABCEAAAhCAAAQgAAEIQAACEIAAwhY+kAiB37lbV150jz31bPHrhRvuXiIkKCYEIAABCEAAAhCAAAQgAAEIQCAWAkEIW79/5/vuC2WCROf7X3Qvv/O7WOxLORYEELYWKEb+MPvwF+7vXvpmRmD8mrtw/cORc8XlIQABCEAAAhCAAAQgAAEIQCBEAghbK8IYwlaIjlyfZ4StekZ9H/HAvXf9u+5J7rm+QZM+BCAAAQhAAAIQgAAEIACBZAgEIWw5N3OfvH/LvbYU5VEypWyl09z2OIStOL0fYWs8u+r+PXQvv/B8Jkore19yz41nG64MAQhAAAIQgAAEIAABCEAgbAKBCFunkGf33NWvl3WOraNc30meffiuu3rlW+7zhSJY/flhmzzV3CNsjWL5Bx+4n5Tea83v2VHyzkUhAAEIQAACEIAABCAAAQhAwHsCYQlb7g/u3vVXSqI+2naSH7hfvv7tAnELYct7r10rgwhba2Fb+6QH7r23fuAufMnuy6p37rm1MXMiBCAAAQhAAAIQgAAEIACBxAkEJmw5V7+QfItO8uzX7rVnnssJZS3OT9x5wio+wtZQ9lpdHL5K1NJv3HND2YbrQAACEIAABCAAAQhAAAIQiI1A2sKWm7n/uvndXNQWnezYnJzyDERg9lt364dXChaHR9gayAJcBgIQgAAEIAABCEAAAhCAQHIEEhe2nHPHt9ylpelSCFvJ3QUUeEMCn7l77/yzu3QhH/1YJ2jZ79xzGxqA0yEAAQhAAAIQgAAEIAABCCRLAGHL/ad786W/yExHpJOd7N1AwdsTqFgc/vMvfN/94+tNIri459qD5wwIQAACEIAABCAAAQhAAAIQEAGELfwAAhBYk8DMffLOD3JTD59zT770z+7Wh5+dplk03dcitewdYWtNA3AaBCAAAQhAAAIQgAAEIACB5AkgbNW5wB/edS8/bR3wpu/5jnqTf3M8Tfvp77tbf6jLlH5/4N67+Za7ev2Nkilgz7sLV37irl7/uXvvwaxJgs61KeuXvuvePF5Od/bhu+6frv/EvfzC85kIuNNyfenb7rVfPWiWDzdzn7z/c3f1+g33j1e+lVsD7cwG84ig6zfc1etvuTffL0i7TXmeesVd/bAR+OUyaF2pHysPZXaw/ErweWNeJpXr6o/fdfeW8S2nW/qtB7uXXqvJD5mIxwtX3N+981u3UqwPb7gLTxmHovf8/dLkuhwDAQhAAAIQgAAEIAABCEAAAhAgYqveB1qJI9Zpz3fUOxS2Hnzg3mw0vcvyoneJXDcyUTQlxW5T1owA1+xf8L7mLlz/sOTCtluizbUSoS5bnrLPOe5tytNS2JKId7VCdHusUshR/pvwMC7SMXu0e+Yy63yc/eYt942Xb5QLqAhb62DlHAhAAAIQgAAEIAABCEAAAhBoQICIrQaQ3INfu6svfXM1CqlIvLjwXXe1KHpoHoV0o0K0qROfPnP3/u2qu7C00H2ZwFOy/0vfcv/z3woiarIMFIF0/fv113nhhrvnPnP3bn4vNxWt5NqVQo4itKrYlKWZ358TtlSupuVpLGw9cO9d/27DMufzl/3eVNgayO5ZH+j6M8JW10RJDwIQgAAEIAABCEAAAhCAAAROCSQnbM3ev+b+hwlSmaijWo+Y3XNXv14wxc7SOn3/wpV33e9LEytbb+ib7hs3P1qdwrVIp0pAygtiD9x7b/2gQpj6K/fyO8eLlIs/FK2dlBVlnnWPvfCG+8nr3y6dJrgasVQm5FSV7Vn32NL0trp/3ysQtuYFbFCeRsLWA/fLijLPp0be/MB9soB6MqWyeDplGY/Fyc5VCod92D177Q4/I2x1CJOkIAABCEAAAhCAAAQgAAEIQCBLIDFh66F77/W/Pou8aiNsidqDX7iXLzx3dn5O1JqLOc9cc++tLDJkyIumJG4iaj3nnrzyi4yQYtepEXIu/MDdqlt3q/E0vm+6S6/fOp2GVhVdVCTk1OXze+7NxSLkTcpWJmy5BuuH1a2xVZfXKqZFglgRDyuj3qsEvx7tns1CV58RtroiSToQgAAEIAABCEAAAhCAAAQgkCOQlrCVF6baClua2fabG+6ZyumAz7tnrt8rjr7KX/+pimNPDVV5vUqBKrOo94oAVyaMZLxj9mv32jM1It5TRaLcZ+4/rv9NQSRXgZCzwiMbFfYX7tLN/8xkKPOxNHquQtiqLU+dsFXF81lXHaknx8lH/BXwyBaxys/6tHsmD519RNjqDCUJQQACEIAABCAAAQhAAAIQgMAygWSErcIFztcQthRJUyzcZESZL/2Nu/qbz5ZJu2N368pfZaK9GohLK+dkrvHUc+5/vP7rYgFtfuWyaY+naRT8q+Fyhj90V1/4Wia/2WuffP78S7fcfy2fdPKtUETKCzl5Hrn0K8WbXOTdQrirELZcXXlqhK3jW+5ShaBZK2xpjbV3fpBZmyvPIwuyik3fds/mo6PPCFsdgSQZCEAAAhCAAAQgAAEIQAACEMgTiFDYygkkC9GjYP9awlZR9M1q2p//+g33H4spiati2PLvebOcfF9aD2ylHH/tXnv/YfGJp3urz6+IiJqfXycEVZ1fJDwtCzmVkWhPPetKRbPTsv3+ne+7L6ww6VHYqhNnKqegVppp5cdqu/Vt95XsbL6jjt1TVXbb/PKkAAEIQAACEIAABCAAAQhAAALxEkDY+sN6xq0TZh5bTDPMR+o86z7/wnX3y7o1rlyROJQR0JqIcjVRRtXiUZ2wVRPhVIm1pmxPVYlmlQlX/LhheWrFmefdhdf/vWC9s4osFf5Uw6Z3uxdmarOdtewQtjYDzNkQgAAEIAABCEAAAhCAAATSJYCwtaawVb24twlQf+Veuv4T943sgvMXihZEL3DAwul8lq7+lfCGu1dw2tKuugXgK6OMNhSCljKS+1JXtqfqo5JyKTb4umF5avMs2zznnnzpn92tlQXvG2TPDqm7Tu92t4x0+I6w1SFMkoIABCAAAQhAAAIQgAAEIACBLIEIha3i6I/u1tjK4qtaCykjQtmUucK1t7LpZT5vFG11mk6dSFK5ztaGQlCmKCsfa8r22FObRIOtXO10x6blqYmkMhvP3yVwveH+6Z3fVqyBVpLPGjbVUXanaW5k95J8bbIbYWsTepwLAQhAAAIQgAAEIAABCEAAAhUEkhG25gzy/8LXZFpXBbzCNJcEjoy49aVvu9d+9aAutcXv1essZdItu16j/VUC0qZC0KIoKx+K18fKlKlScFtJruGODsqT958mjC9cca/9+F13b7HeWnV2x7d7df7W+hVhay1snAQBCEAAAhCAAAQgAAEIQAAC9QTSErby61Z1IWyt/NtdRqBZCB91/2S3aqha8WeRdtH1mu4rjm47yU0HQtBqsbTyvvuvm991n6/Kfyd2yV+8i/LM3Ce/uu4uVPw74mNl5frSt9zLb31QuwbX+HbPc+vgO8JWBxBJAgIQgAAEIAABCEAAAhCAAASKCCQmbDm3FBHTmYDSYErihR+4W7ULxpuJGog/ZQJKq/1jCFt/cPeuv+JKBSDlvzO7GE+9dyFsKZ2Z++T9G+5Sdt20xsw1RfGGe6/UD3ywe5ZZR58RtjoCSTIQgAAEIAABCEAAAhCAAAQgkCeQnLCVB9DZ99k9d/Xrz1cINs+5J1/+14ZT0urEn6+5C9c/7CzrxQl1JQTlU68rm+/C1ml5HnzgfnLlW9WRZyWCV/m/YtaxGcLueXt18B1hqwOIJAEBCEAAAhCAAAQgAAEIQAACRQQQtoqorLWvQdTWU8+7Z67fa7SgeN2UtC9cedf9fq18Nj0JYasJqdmH77qrawhcn//6DfcfBetujW/3JqVueQzCVktgHA4BCEAAAhCAAAQgAAEIQAACTQkgbDUlVXncZ+4/rv9Ns+idhv+MOL7A0Zew1WS6XdWi9pWGqPixr/KcXvLBB+7N16+4J0uitFanXv61e+39hyv5Hd/uK1nafAfC1uYMSQECEIAABCAAAQhAAAIQgAAECgkgbBViabPzM3fv5vdaCBrPurJonaWr1okBL9xw95ZO6PpLf0JQnXjz2FPFos9mJeyvPEv5aixwlfyhwOh2XypNN1/qyvRU1Vpv3WSBVCAAAQhAAAIQgAAEIAABCEAgTgIIWyv/0tdmHaPVf8nT+km/+NWb7pnKf85rMCXx+Ja7VJXGl77r3jwumMvWmZ/2KATVCh1/4S7d/M/OSnKSUI/lKcjp7MN/dd+oW2C+SJwc3e4Fhdl0V629EbY2Rcz5EIAABCAAAQhAAAIQgAAEUiWAsOX+07350l9kFn1vLmzNfnNjWcC68D335oefOecaRHF96dvutV89qPC7fL6ezeRRn/uIaspmp0chaPZr99ozz+XKs1y+7tcQ67E8WWyZz0v/wFk0RbFI2Frxx2Uu/ds9U4CuPiJsdUWSdCAAAQhAAAIQgAAEIAABCEAgRwBhayVCppmwtRKRsyJUNVhM/sIP3K0HZVFXD917r/91pfjz+Zduuf/KGbTu6+zDW+5//q9bDf6dsU8hqL5sj1WyyZXywb+71176fypY6vhNyvM7d+vKixlbNFwDrE7AKxS26tn0a/cc2y6+Imx1QZE0IAABCEAAAhCAAAQgAAEIQKCAQOLCVtGi7w2mRUlIeeH5jNDxTfeNmx+t/tvhg1+4lyunoz3nnrzyC/dJgWHmu1ZEt3z0zl+5l985Ljs7t3/mPnn/hrs0z0/NdednbiIE5S5d8LU2mqnpP0jOPnJvvvxN99hTz7knX/7XCsFuk/Lkha2S9bFWyll9zdKotFHtvlKIjXfU27rBPbdxLkgAAhCAAAQgAAEIQAACEIAABGIkkLawVSg81XSyZ/fc1a9nRa0qkWjmPnnnBzULy1eJUw2ivlYixYrc9DN379+uugtLa3bVlbNuumDDqKWi7Mz31U21fNY9Vle2FYGxYu2yP7zrXn46Lwxmv1eVJy9sPesaRZRVRmxVrSM2ot1L7bXuD03+BbOpULhuHjgPAhCAAAQgAAEIQAACEIAABGIlEJiw9Qd37/ormUiprDBhn2sEG7PkItLHzrP3ivOLzqldxL2JSPE37upvtDZXwVYovlle7f15d+HKT9w/vfPb5aix2W/drR//xL28FF2mc553F17/9/JIMWWjNmqoglNBMYp2raxRVrQO1VPfdJdev+luzdcuO01F/zz4/34/J9Q967Rw/y/LpnZuVJ4CYeupmuu5GlHzmWvuvbJZqCrmWHYvMtQG+1am7BbaWEKhrU+3wcU4FQIQgAAEIAABCEAAAhCAAASSIxCWsLUSLWXCTva9TnDRlLxb7rWXNH0te559LoncefBrd7XonFphq4kYVy2SNBOALP917yXTJpdcv1mUTeU0yqX0yr7UiD+F9ikq33PuyZduuPfKRK2Vf74sSaN0WmixsDX3nwtX3Gs/fnd5CqSEt9evlEfq1UWineIa3u5ldmq3f/bhu+6frt9wV6sYFNpWIuab7ur1/70sZLa7PEdDAAIQgAAEIAABCEAAAhCAQEIEAhG26sSoIqFi3X15YeuBe+/mtdO1qYrSfN5d+F/vLAsbWQdamS5XlMbpvgtX3N/lo65O02oc+VIoGFj633VX36/6J0Zd7IF7760frERDFYuAEiJuVQhKWRBln2fuk19db3i9InbfdJd++Ity/p2Up0LYquJd9FtDUctoDWd3u+Ia77XTPIvs1mLf0993t/6wRr44BQIQgAAEIAABCEAAAhCAAASiJxCEsPX7d77vvlAkEvSyLytsNYu2OhF9sued+k3tv8EVde4rIs40tfD66hS8YtEpk/aXvuVevp6LKip07TUFnC6EhwcfuJ9c+Zb7fGObKkrrmnuzUqjrqjz1/1RYawNN/7xyuJ4I2LvdC52h+U6EreasOBICEIAABCAAAQhAAAIQgAAEOiWAsJUXUpamFnombC1M/5m7987/dlevF62fdSJoff6F77t/vH5jdd2tRRpFH7oSgorSbrhP0/hKp7FJzHqjxVS1HsozX7fshruqPFbwnwtdmqao4/JTFRuiWD2sL7uvXqnVHoStVrg4GAIQgAAEIAABCEAAAhCAAAS6IxCEsNVdcUkJAhCAAAQgAAEIQAACEIAABCAAAQhAIBYCCFuxWJJyQAACEIAABCAAAQhAAAIQgAAEIACBxAggbCVmcIoLAQhAAAIQgAAEIAABCEAAAhCAAARiIYCwFYslKQcEIAABCEAAAhCAAAQgAAEIQAACEEiMAMJWYganuBCAAAQgAAEIQAACEIAABCAAAQhAIBYCCFuxWJJyQAACEIAABCAAAQhAAAIQgAAEIACBxAggbCVmcIoLAQhAAAIQgAAEIAABCEAAAhCAAARiIYCwFYslKQcEIAABCEAAAhCAAAQgAAEIQAACEEiMAMJWYganuBCAAAQgAAEIQAACEIAABCAAAQhAIBYCCFuxWJJyQAACEIAABCAAAQhAAAIQgAAEIACBxAggbCVmcIoLAQhAAAIQgAAEIAABCEAAAhCAAARiIYCwFYslKQcEIAABCEAAAhCAAAQgAAEIQAACEEiMAMJWYganuBCAAAQgAAEIQAACEIAABCAAAQhAIBYCCFuxWJJyQAACEIAABCAAAQhAAAIQgAAEIACBxAggbCVmcIoLAQhAAAIQgAAEIAABCEAAAhCAAARiIYCwFYslKQcEIAABCEAAAhCAAAQgAAEIQAACEEiMAMJWYganuBCAAAQgAAEIQAACEIAABCAAAQhAIBYCCFuxWJJyQAACEIAABCAAAQhAAAIQgAAEIACBxAgMJmz932/8/67oleVd9Lvta3LckMcoX9nN8pl/H/KYofOUvV6+3NnvMTNoUrYsJx2fZZP93CStro4hTyfPo654dpUOdmn2XB2a09DXa+JP5Ml/X5GNyl5NbNzVMfiKn77SxL5D227o6/nIgDxxv3R5H3SZVhPfbHLM0HnKXk+fy15N8t7VMdk8KU3ytL5dsjYZ+/NgwtbYBeX6EIAABCAAAQhAAAIQgAAEIAABCEAAAnERQNiKy56UBgIQgAAEIAABCEAAAhCAAAQgAAEIJEMAYSsZU1NQCEAAAhCAAAQgAAEIQAACEIAABCAQFwGErbjsSWkgAAEIQAACEIAABCAAAQhAAAIQgEAyBBC2kjE1BYUABCAAAQhAAAIQgAAEIAABCEAAAnERQNiKy56UBgIQgAAEIAABCEAAAhCAAAQgAAEIJEMAYSsZU1NQCEAAAhCAAAQgAAEIQAACEIAABCAQFwGErbjsSWkgAAEIQAACEIAABCAAAQhAAAIQgEAyBBC2kjE1BYUABCAAAQhAAAIQgAAEIAABCEAAAnERQNiKy56UBgIQgAAEIAABCEAAAhCAAAQgAAEIJEMAYSsZU1NQCEAAAhCAAAQgAAEIQAACEIAABCAQFwGErbjsSWkgAAEIQAACEIAABCAAAQhAAAIQgEAyBBC2kjE1BYUABCAAAQhAAAIQgAAEIAABCEAAAnERQNiKy56UBgIQgAAEIAABCEAAAhCAAAQgAAEIJEMAYSsZU1NQCEAAAhCAAAQgAAEIQAACEIAABCAQFwGErbjsSWkgAAEIQAACEIAABCAAAQhAAAIQgEAyBBC2kjE1BYUABCAAAQhAAAIQgAAEIAABCEAAAnERQNiKy56UBgIQgAAEIAABCEAAAhCAAAQgAAEIJEMAYSsZU1NQCEAAAhCAAAQgAAEIQAACEIAABCAQFwGErbjsSWkgAAEIQAACEIAABCAAAQhAAAIQgEAyBBC2kjE1BYUABCAAAQhAAAIQgAAEIAABCEAAAnERQNiKy56UBgIQgAAEIAABCEAAAhCAAAQgAAEIJEMAYSsZU1NQCEAAAhCAAAQgAAEIQAACEIAABCAQFwGErbjsSWkgAAEIQAACEIAABCAAAQhAAAIQgEAyBBC2kjE1BYUABCAAAQhAAAIQgAAEIAABCEAAAnERQNiKy56UBgIQgAAEIAABCEAAAhCAAAQgAAEIJEMAYSsZU1NQCEAAAhCAAAQgAAEIQAACEIAABCAQFwGErbjsSWkgAAEIQAACEIAABCAAAQhAAAIQgEAyBBC2kjE1BYUABCAAAQhAAAIQgAAEIAABCEAAAnERQNiKy56UBgIQgAAEIAABCEAAAhCAAAQgAAEIJEMAYSsZU1NQCEAAAhCAAAQgAAEIQAACEIAABCAQFwGErbjsSWkgAAEIQAACEIAABCAAAQhAAAIQgEAyBBC2kjE1BYUABCAAAQhAAAIQgAAEIAABCEAAAnERQNiKy56UBgIQgAAEIAABCEAAAhAIlMDR0ZHb399fev3ud79blOZnP/vZ0m869oMPPlj8zgcIQAACKRJA2ErR6pQZAhCAAAQgAAEIQAACEBicgISrH/3oR+473/mOe+aZZ+bvlomf/vSnbjKZrLwkZtn29NNPr/x+6dIl+9npWKXx53/+5/P0JXxlz18cyAcIQAACERFA2IrImBQFAhCAAAQgAAEIQAACEPCTgMSsrHD1uc99bknYUq4VfSXxq2kUlo7NRnTpPAldEs2y1/rtb3+7gCIBTeexQQACEIiFAMJWLJakHBCAAAQgAAEIQAACEIDAqAQkLClKyiKrJGbZJnFJ0Vp5Mcp+7+Nd18yKWvqcFbwkgilPbBCAAARCJoCwFbL1yDsEIAABCEAAAhCAAAQg4AWBl156aSEaKRpL35tGXg1ZAOVJYpZELRO5fMznkEy4FgQgEDYBhK2w7UfuIQABCEAAAhCAAAQgAIERCGhKXzYaSmtZKUIrpGl+msaYFbVUHq3PJVEupHKMYH4uCQEIeEQAYcsjY5AVCEAAAhCAAAQgAAEIQMBfAhKCFO0k8UfRTtmF2/3Ndbuc2TRKlU9rdbH4fDt+HA0BCAxPAGFreOZcEQIQgAAEIAABCEAAAhAIjIAimzTFUIKP3rWWVjZiK7DiVGZXZbWplSorGwQgAAGfCSBs+Wwd8gYBCEAAAhCAAAQgAAEIeEFAkUuKYNIUxOw/EXqRuZ4yIeEuL95lpy72dFmShQAEINCKAMJWK1wcDAEIQAACEIAABCAAAQikQEACjqKyUhGxmtjUorj0DpcmxDgGAhAYggDC1hCUuQYEIAABCEAAAhCAAAQgEAwBCVr8Y+CquST2KWrNpmOy/tYqI/ZAAALDE0DYGp45V4QABCAAAQhAAAIQgAAEPCSgaXcm3GiBeP4ZsNhIWkDf1hvLT1UsPoO9EIAABPojgLDVH1tShgAEIAABCEAAAhCAAAQCImCRWky1qzeaBK2U1hurJ8IREIDAWAQQtsYiz3UhAAEIQAACEIAABCAAAe8IsDj6eiZRdBvRW+ux4ywIQGAzAghbm/HjbAhAAAIQgAAEIAABCEAgYAJaJ0qRR2ybEdDUTU1PRBjcjCNnQwAC7QkgbLVnxhkQgAAEIAABCEAAAhCAQAQEJGhpIfRLly5FUJpxi2AsEbfGtQNXh0CKBBC2UrQ6ZYYABCAAAQhAAAIQgEDiBEyIefrpp93vfve7xGl0U3xNR7R/TGRaYjdMSQUCEKgngLBVz4gjIAABCEAAAhCAAAQgAIGICGQFGKbOdWtYCYb8o2S3TEkNAhCoJoCwVc2HXyEAAQhAAAIQgAAEIACByAiY+IKoFZlhKQ4EIJAkAc6w/DkAACAASURBVIStJM1OoSEAAQhAAAIQgAAEIAABCPRLgCme/fIldQhA4IQAwhaeAAEIQAACEIAABCAAAQhAAAKdE9jf35+vucV6W52jJUEIQCBDAGErA4OPEIAABCAAAQhAAAIQgECcBBQ9pLWfvvOd78RZQA9L9bOf/WwubD3zzDMe5o4sQQACsRBA2IrFkpQDAhCAAAQgAAEIQAACECglYNFDevdv+9Qd7T0xF4GmOwfufm0Gz47XvxCuvqZue++2m9Wm0/8BErWUPy3YzwYBCECgDwIIW31QJU0IQAACEIAABCAAAQhAwCsCn/vc55xeXq77NLvt9ranJwLV9KI7uF8nSX3kDnYeLRC0TOTyR9iyf6C8dOmSV/5AZiAAgXgIIGzFY0tK4gkB/buOKnB7aVSw6PWjH/1ocYyO5V95PDGgZ9lY159Yy8IzQ5IdCEAAAhAYlYD+BVFRQ35Ga83c/YOLbjr57+7F3a+46aSBKLUQwp5we0efjsq2ycU1/fOll15qcijHQAACEGhNAGGrNTJOgICbC1JqIKlxpPBqC7HOh4FrHQf7vehdo4b5c/TdjlX6uo6EL7Z4Cci+EjrNn55++ulCv9jEnzRKav6EiBqvL1EyCEAAAhAoJqB6Vu0uPwd+TqOvFKn162tuZzpxk+09d1QVtHX/oNlxxTjYCwEIQCAqAghbUZmTwvRBQA0giUsaZcoKDiYySCzQyyK01g1v13mWhtLTyJYELl3HxC9dX/uVHz8bZn1YIK40m/hTNppv3dKX+VNWTJV/yZ+0sOu6frtu/jgPAhCAAAQgMCQB1XPe1nWnItXJ2lo2xfBxt3v4cSmi2dGe255MXLP1uEqT4QcIQAACURBA2IrCjBSiawLq6KvDb6KSxACLeJH4NHTDSNfTdSV4KR8mTpjQpd/Y/CUgf5IwmvcnE7CGznnWnyRu5YVTIrqGtgjXgwAEIACBdAk8dHf2Nf3wUbdz8JFzzqYlVolWtnD8o25n//9zB3+/684pykuLyE/Pud39Q3e3KtprJNhqX6h9zQYBCECgawIIW10TJb1gCZj4kBWNJDz42slXviR0WRSZ8i3xBJHLDxfM+5MESZ/9SX6jxqb5k0Q4fffV//2wMrmAAAQgAIEQCGhAR/Wyl5utlZVdMN6mGWb3LWXeorpsofjV9+m5V93tY7/ULbVbJb7RVl0yJl8gAIEOCCBsdQCRJMIloGlhqmQtkkbRK5rmN3RE1qYEVQ6JJllRQuUKrRybchj7fNlBYpCJoxKzYvAn+ZX8C38a28O4PgQgAAEIrEPABJV1zu37nJMphfnF4k24yu8/zY2JYYrQ2nreHdx9eJbN4yN3bffcfAH6rd2b7vjsl9E/SVyUsOWtyDg6ITIAAQisSwBha11ynBc0AUWhKLpJlatELTV4JErEsJlYZ+KKyhlL2Xy1j0YeJWKZP8UkAuleMbHOogLxJ189kXxBAAJNCejZps616n+9NLCllw106Xne5KXnop2r+lZpaUBD9QKDAU2t0f9xspHs6d9mUwrz/2x4Nh2xcBF5i+ia5M87LeHxTbe7NXWT0oivcUjovpAddJ+wQQACEOiSgI9P+C7LR1oQWCKgCtUaN3pX4zPmTeWzKC4Eru4tnfcnfY91UwdN/mSdPvwpVktTLgjER0DPZg046LlldaKJVmoLaGDCBC4TpXSOvWxKtp6Dti/7bucqfaVnz0ldQ5+1T8foHMSucfxLNvBS2DKBqugfEBdRWdWLyBcTtYgvW7er+Kih9+oeQNgamjrXg0AaBBC20rBz8qVUhIkanKpM1bhRxZrSpvJao04caFhvZn35k/FM0Z+yApeiufCnzfyJsyEAgW4JSIiSkGXPaROYVP9p/1ACk66j56Wek9m8SFzTvtTaIt1auV1qxr/dWX0fnYnKqokQbP/PhyZslUxl7LtoJemrvSBbmFhcchi7IQABCLQmgLDVGhknhEZAo6SaKqBR09QbkSZIiIca92ztCKhBps5IqgJpnpb8Sb6klz6zQQACEBiLgDrKej5btJTe9V3TDX0S39UOUbvEIsf0/JTgxppD/XqOfEHM/dpMfGow7bX1lEJL26+ILd2n8nn83S9PJDcQiIEAwlYMVqQMhQRUeaoRowoUEWcZkRrVEmfEh1GzZTZl39QZUUcJEWeZUF7sY/2tZT58gwAE+iOg543qMxOzVKepvg/lOaTnpwYFbI1GE7mol/vxGZ8ETpXwZNH4iZue33d3yv68cDEdMRt5dRbpVR7JZcJWyRpc/SCuTVWCltqfDIbVouIACECgJQGErZbAODwMAibcKNw5lAbu0GTFRXwQ/urJW5SWOh++NYzrcz/MEVkhmZHYYZhzFQikSkADDba8gEVmhV7Xm8glcc4Gnuj8x+zhtmh8XUTVmYi1tIi8rc1VFsllvxet3TUiVmufpz6DYkQTcGkIREsAYSta06ZZMDUMbeSTKK1mPmCNDNbeWuUlf7KoPzoYq3zye8TLREC9s0EAAhDokoA6w7ZWkt5jFdE1UJAV7qh/uvEi+Y/qKS82i8QqE6aymTSRapJdRP5jd7j7uJtMpm5r54o7vPtwccbs7k336s62mywdv/h51A/WRh81E1wcAhCIkgDCVpRmTbNQGq01EYIw/nY+oMaeIrfEz5tGX7sidH60fMiY4E/t8KoTJnbqeOJP7dhxNAQgsEogL2jpewqbnp8afNLzVJFpCFybWV0cJayMv83c8eFltzXJTi+sypVFd03c0tTD47fd3rlH5hF+ivJbfj3izu297Y6rkh3hN7Uz9WKDAAQg0DUBhK2uiZLeKASyIgQd6fVMIIbW4EhdyMGf1vOh7FkwzNLgMwQgsA4B1ecWuSShPBVBK89KHCwaVvV0qhzyXNp+FzuJP+O3E9uvf2XrcU3yEV6zu+7w9VfcztZ0IWxNz+26/cO7rmzZrrbcujxeg9Dj8++yRKQFAQj4QgBhyxdLkI+1CdCBXhvdyolqbKjhp1HNVMUt8yd1ptg2IyCWJpbSkN2MJWdDIDUCWk7AIpUQck6sb2tjSpyR0MVztd1dIZ8SOyLf2nHjaAikQEDPV9U1muKuSFm99JzVoErdS30GO0fPGaWTaj9qTF9B2BqTPtfemIAeQmr4qvNMA29jnPMETNxKkSmiVjc+lE0lZX/KcuAzBCDQjICeGepESIBQR4G6fZWbOl6Ifqtc6vbIl4xb3bH83j0BBOrumZJiewLqO5p4panJ6u+ovrGXpn2bkJUVrEy4KnrPCmBl6ekYieoIXu1t1vQMhK2mpDjOOwJ0mPszSZZtf1fxK2Vr8KpCYuuWgAmGfqxt0m3ZSA0CEOiOgDq+JjzQ+K/mqjrLFuLmz3KqWWV/VadUnVa2YQnYlGL5LRsEhiQgIUuCknxQopUJWHoOSGyyCCsd1+UmX1edpmvbc0f1m66vd11f+6nruqOOsNUdS1IamIAadHowdP0gGrgY3l7OxAhVBClsqmBSjFIbyrbyJ1XmqsTZIAABCOQJqPGvZ4Tqdjq/eTrl3216nepquJVz4pfxCKhzr3sbQXE8G6R2ZbU5JVqZkKX+ouoWPS/HFpIsYkz5s+gu5U/P8Fj/6Xco/0PYGoo01+mUgDWACWvuFOtKYnrAqjES+4NWYosqlbEruxUDRLbDOmBwjsywFAcCGxJQAx/he32IFunG4Mz6DDmzPwLWeafN3h9jUnbzQIesmCW/CyEiyiLKLALXRC7ul/ZejbDVnhlnjExAI5K66fXwYuufgDiLd6wjwapQ1KGS6MLWPwGLjOv/SlwBAhAIgYBGqfUM1oAV2/oENGCguhpxqxlDEwPpPDbjte5RNqBFm31dgpxXR0B1h9qWqkcUoSWfC3U2j/paReWJtQ9WZ9u2vyNstSXG8aMTUCNYDy5u8mFMIc4xC4kILcP4kV1FjQ35E1MSjQjvEEiXAKJWt7ZH3GrO01ipPgq1E9y8tOMdKbaq72mzj2eDGK8sf5IAZFMNVZfEJlLbvaNnlF4qI8+qam9G2Krmw6+eEdAN7e/I7qfuaO+Jef6mOwfufhN2s7vucH/XnZue/RvHZGvH7b1+6O7OmiQwzDGqPMQ9tgeqKkGVy8/KcA1/Oj5yB3+f9adH3Lnd77mDo0beOIwzOTdv5KqSpqE7GHIuBAHvCFi9one27giYYKNpLWzVBMwHiXKr5sSvEPCJgO5bE3skmsbWNylirTJnRTzaz0WUnEPYKubCXk8JWLSWl9mb3XZ729O5UDKZXnQH92uUqeO33d65R06Oz/zNrIQWvabnXnW3j2vSGBCEHqixhZIrWksvL7fW/nTT7W6d+t+KP227iwd3nC/epApZjRKmf3rpeWQKAr0TsEEFIjf7QW3iVmx1dh+0xEhtLnyxO7ryv1QEh+6okVIdAa33q76I2o/yrxTFHRO4jEEds9R+R9hKzeIBl1cPMDU+dFP7t83c/YOLbjr57+7F3a+46WTqtvduVwgJH7vD3cdPBazL7toiouahu3t4xe3MBYq6NIalIBFCD9JYNov+8zNaa11/mrqtnSvu8O7DEzMpIvDVHbcloauJ2DqgcdWZUAOFDQIQSIuACdtEFPVrd7WV1Gbys47rt+xtU1f7Bk5tqRUfb6KqfE+f2SCwKQG1121hdabjndCUsKc+mdrRPLvOPAxh64wFnzwnoEaav8LKR+5g59ET8eDX19yOphZu77mjshCZ+wcnxxSKDTN3fHjZOzHChMVY/iFRDVl/hZUu/ek0rcmjbufgI2/uchMWafh6YxIyAoFBCKiDomdviqPtgwDOXATWGRh87J2AOthqp/s7CN07Ai7QMQHr+yHgrIJVHWqCnwaLqVOZirjqJezxloBuXin1Xm6nQtXJ2lomJDzudg8/LsiuReNMXOlaXCZ8TZ5we0efFqQxzi6vbdASidbU8HaaRit/qiu4rdXlVwSgcm1/xVxXAn6HAATiIKCOrzq9sQyQ+G4VdXQkNHhb13kIUMsTiBmDLu2No3tb7PycWdG+PJwxHgE9u9Tnk0/x/Kq2g+pT3XdqU6f+3CJiq9pX+NUjAv5Wlg/dnX1NP7SImAbCVR1XE7YKI7rqTu7vd7+jnJqXWxWmKks/w3e79icTWs0/m3Pq+0g1Vrxd46zvwpM+BBIk4PO6hrOjPbe90bRte3b7NYhgUxJTWGC5i1vKeKmNoDYPW3MCmh6Vese6OS2OLCMgH5JIo36fn+30spyPt1/Pd2OWsrCMsDWeD3LlFgT0kFMjw8sK0xb5zopQGwpTiwZ21XTGFvy6OtRG20MPd7VydMWl03Q69KfZ3UO3v3vOTfVnBOf33Z2yqbGdFqB5Yhpl0n3NBgEIxE/Anrt+CiwW2ao/b1lvEGB2Z9+dn//DsV/CljxL03i8jXj30PXV1hQz1U+KVGcrJqB7Wi82CHRFQPeeRR+F3tfoikmbdCzKLVVxix5FG2/h2NEIWIN4tAxUXPhEhMo3ZC1KJr+/IqHFT7aw/HqN60UyPX1QQy/0hozPkWdd+NNCGJ3/O+Ij7tzln7q7nolack8TrP3s6PZ0A5EsBBIlIIHAW5FgPhg1ddsvvui+WrdGZpH9Zu+7/fP2L8fr1PtFiXa3T50cdRbpKDZnKlbqJBJVvMrM2Kg9qCgRNgh0QcBELdUTPKvWJ2pRpykOZiBsre83nDkgAX+FCBvlza+FdTYdsXIR+RWGD93dg+fnC8f7GGGj7MYgbClc3s/Gahf+lPG9ubClCAT9W+K+Ozr2T92KwZ9WbmN2QAACSwQkXute93NtLXtmajDpnZM/gmm1vqVNQdSz9uR5W/2vyEtoBvmiTqK/yzkMgqCTixCh5ObrZ8mX5OtqR0mMYIPApgRM1EpRjNmUXdH5qYpbCFtF3sA+7wh4K0TYlMOiKYM2pWxStoh8HvPMHd9+1Z2bTtz03KvutocihHIcQ+M4DX869a/ZHXdwcXveCPVRLEXYyj8H+A6B+AhocEp1h5/baYT1fDmB37v7BxfdVIMBuzfdcW2Gz/7FeHr+irv2yhPzgQTfhC0VQx1GbyPmajn7cYCEHBN0Qo9cX5eoyh9DO3Dd8nNe9wQQtbpnqhRN3NJ7KhvCViqWDrycfgoRNspro7Tl76X/friwy5moNdl63h3cfbj4xbcPWnci9AVV4/ennNcsRNZ8ZGHuuBG+ImyNAJ1LQmBgAhJUfB2Jt7WxFvW0DVhl180s43V80+1uTd1k+hW3f+e+O9rzV9iyTk5ZUdhfT0CRh/Jj1VsmcMU8ZUplU3svu1yA9sVc5nov4IguCciX1K9gSmuXVM/S0v2bUjsbYevM9nzymICECP8eeraOVrmgZY2fSWUD+b472r94Mv3w3P/lbnosaslFYnhA+ilsdeVPRTeype3fum0x+FMRcfZBAAJnBBTh4eeAiE3/zj4bmz4vbT3MR9z5/ffdzFla/q2xJUvYdNBUI43OvHHzTyZwqUMe41Q8lUkCnu5b1dH6B2M2CPRBQFGQuo8QS/uge5Km3ctZgbq/q42bMsLWuPy5ekMCaoipcvVpswW6K6d3LSJlShq6x7fd/o6mifm7BlKeeQxChI9C6fr+dBY5uIg4yBvNNe2orZzY6w7raMXYMegVHIlDIDAC3tYbVkcvLSdw9kwtXyMzOwXR/nHWb2FLLsMUsv5uHJtOpY66ouNC7airfaT7VS8NKKc0jak/7yDlIgIWTUQbsIhOd/ssKk7Pptg3v5SC2GlTvrUJ6KGnStYftdkasNlR3qLiVTSQj992e+f0L0r+/mtdvkQmMPpjh3wOm323cjQ7eoijNvSnxdQZTYcpmMa6+P2iO7jvzwLyWkha9zUbBCAQLwF73vrY0S/+F1rnnD0zSxaRn9295i4upiDaM9ee4yUDWR6YWB0bCRds/RDQlFsThfTue0dSdbD8IfunDrYPsaEfHyHVEwKqDyS08zwaxiOsHo5dqKZHMYw/cZUOCKiRkK18O0hy/SRslLdyiuFp8osGcmYR+cVfgzddoHb9rHZ5pkZXVBGFvqlClT/pQe/Ftqk/OZsSoz8eWJ7OOrt7071qUYGNFkMejogaNP5NMR6u/FwJAikQsAa1f2W1SNaitQfPRKqVReQX9bdNQbSSnZ3j4+LxyiXCltmqv3e1L9R5lMillw0Ear/qPL10T+j7GJuuLT/ICnC+rn83Bh+uOQwB+RxTEIdhbVdJgTnCllmbd+8JqCL2o/K1KQhNR2WtsTtxJ1PF7PwGa3NN6iLChjWbNdSGvWo/V1OF6sdIkfnDuv50ymcRAVjkV1O3dfGau+tPsNY80xK1WLujH/8mVQj4QsBbYWsx6FT0zMzsWxrAeuju7H+l5F8Tra5v+iwf3kIIW8MztytKyLI1q0xU0vdsZJREsE1FL6VnUVdqM8vm2UFh7dN11Z7TYGX2+pZX3iHQJwH5ue4BX6OHbGmQ6vWRs5G9mfridBqv3eP2Xr5USJ+kl9O2Z5Cf610u53Xdbwhb65LjvMEJ+BMtVDXKW4xl+SH5G3ew8+jSaJk9+Fbf/RG27IHoa0VUTL58rwQVP6KFNvWnjFo1u+sOX3/F7WiKzGnlOj236/7+4KjB39aXs+rjF2vYZBvcfVyHNCEAgXEJ+ClsZZYJKOmI2DN0kh1gsuja2nPU0fFP4ELYGvde0NV1P6g9qzaIxKWssKQBtzO/O+ksZwd/dKxsaC+1YfSyqLAf/vCH7tFHl9uXSlPXZIOALwTk0/JLPzcboND9V9MHazo4MrHAhvFL7Df7zfkgbG3OkBQGIkBHeCDQJZeRoKUG11jh8yXZWnu3GogqT7ZRuXZinNiagKLl/G3YtC4OJ0AAAiUETNjyqu4wgWpasi7hvCyZDo4tLm/nIWyVWJvdmxBQO1d1o70kYGUHE/PCln6XOGb3lto0//Iv/zIXsmjbbGIJzu2TgCIGvY0amotVU7f94ovuq9OJK/8DkTpCNhtj4iZbl93hcWYQuu7UHn+PvS+NsNWj85B09wRUgasiZxuegEQIP6aCdld2jXTGVqbu6PSbkvxJjXc2CEAgfgLqcPsUNWJR1LXTQxYj8kXrcOXtZkKYf5FallPZgShZoxHXuwnIFr0VV+koTSwE9PzRc8jEWL/KZZG8itR653R2TZNnf0Epjm+63fnsicz6ygWHjbFL/ehY+z4IW2N4FNdcm4BV3D41kNcuTEAnWkUUW4PJotBiK5fvrmXTiv1s2PhOj/xBIDwCErL9GaE3Aapmmskcs00Vb/JHL5aun8KWjdQTyRPe/dMkx2rPKBKGDQI+E9BUOH8DFE6f9/N1FX/v7h9cLFlPsY6w/aFTk3qjLq3uf7c2ePcpj58iwtb4NiAHLQnogejH2kgtMx7w4TFGa5k55Ev+VrKWy3jeJWap8U20Vjw2pSQQqCOg0WFFXHux2Ui6TS+syZRFd9UuJOz8FrYQPmoMHfjPfgsGgcMl+50RUJvb1/bf7M6+Oz/NrIdlEbtLfyBSj6J5nVGfVh9HaHBDUXMxDuojbPXhMaTZKwEbdfRn9LfX4o6euCogCRExPgAF16IAmZ4xjKup8S1/IlprGN5cBQI+ELDo2PHve5tq0iKqarGuVl2El9/CloRFb8RFH5wysjxogE71KxsEfCbg27T0M1b2/M4+5y1iN7vv7IziT3bOI+78/vvOj5W1VnMa67R0hK1VW7MnAAImthBS36+xTNWPXUREbOnXjyx1m9KKiGhEeIdAGgQkaKkhLYGLbXgC8B+e+dBX1IAR99fQ1LleGwLWp/ByoNwGMJYieW0gpPki8r5Ha5m9JIT7GjlneVznHWFrHWqc4wUBhbPqNf4IsBc4Os+EuGoKYgrT9FRW86fOQZLgnIAaNGp4x7pgJWaGAASqCejeT6E+qaYwzq82GDjO1blq3wRsJgODvX2TJv1NCNgMiU3S6OvcE0GqIJLXpiNOmiwib1FfBen0lfE100XYWhMcp0GgLwISI9RRJrS+e8Im9EjY0ucUNoSX/qxs/oQQ3R9jUoaA7wSsU8OfvwxrKWsrxTg6PyxJf69m0dD+5pCcQeBs6Q//WNj0wSLx6kys2tq96Y6rMt9KBKtKqP/fELb6Z8wVINCaAGJEa2SNTtDIukTD1Eb/rHFIVFEjN2l0kIla8qdURNJGYDgIAgkSUGOaqK1hDW/RWjx/h+U+5NVkYw0csUHAZwI2uOFdHheC1GQ+ZV7T5gtflYvIt5+2OCYHhK0x6XNtCFQQsAclYkQFpBY/pSpqGSJb5Bh/MiLrv2dFrdRE0vWpcSYE4iVgU6ZiX7fRFwuKtwYViNbyxSL95EMzF2iz9MOWVLsjYP217lLsIqWMIFUmaC32Vy0ifxbZtb1329tF440YwpaR4B0CHhLQw9KmJTIquZ6BECHOuCFunbFY9xP+tC45zoNA3AQsgsjLBYQjQ6/OC5E8kRm1oDhaNgLxsgAMu7wioHahIqHUZ/Nms0Xjp19x+3celmTLRKuKReQtnUZrcZVcZsDdembEOMDE4vEDOhGX6peATUtUI44GczvWYiduKU4/LCOlaYnioY4BYmkZpeL93IvFXNgLAQicEFB9g+DSrzdI6FAnkmjZfjn7kLp3YoEPUMiDlwTUrvbp3zvtXwynOwfufhWxxXTFonW4nHP2e+V0xaoLDPeblwJjR8VH2OoIJMn4QUCClgk0EibY6gmYgCNuCDjLvNQh0KiGXnQOltmUfdMIkBrZCIJlhNgPAQiY+M30qX58waKOfepA9lNSUrXpXbTf8IUQCKht6M9z3yKxqqYYGlVbYH7qihaRN4Fssr3njmZ2jp/vtp6wn7nbLFcIW5vx42wPCahy10NTnevvfOc7iDUlNspzKjks+d3ipPUr5E+E+pe7A5zK2fALBCCwSsAa16qn2bojgGjYHcsQUtJgkgbf2CAQAgGv/PX4ptvdmrqmYtRCvFqJyjpbp6s28ssDI6nOjTViGmHLAwcjC/0QsEgkVfhezefup7itUhUbcVFIsD6z1RNQZSxeqgzwp2VexoZ7bZkL3yAAgWoCRBZV82n7K6JWW2LhH6+BXEXBsEEgBAKaWePH1FkTo6au8WLvi3W08hFeFvnVIq0RjaW+jNrtMW4IWzFalTItCGSjSBR1k/raWyq/GkCqVNQYEh+25gTy/FL3Jwl85k+KZsOfmvsSR0IAAicETNzyZ3pKmJaxwTw4hmm/dXOtOpho8nXpcd4YBDRAzHNqDPJuvr6Z+oCx9l8QtsbxK646MAF1wPUgNUEn1hu6DKvKq0pE5VcjiIijMlLN9mcj3lIUdBQVYIKW3lO7n5p5CUdBAAJNCWTFLQTyptTOjsvyO9vLpxQIqF1H5H0Klo6njPa8ou04vE3VZo9ZVETYGt6nuOKIBPQw1XSpVAQuCRAmaKncNH66dT7zJ4X1inPslXQ2QguBtFtfIjUIpE5Azxeb7h37s7QrW0sEtDqeqJ2uqIaTjtp4as/qnQ0CIRFQnyRmgcVHW6iO1fMi5uAGhC0fPY889U5AgoRFcKmDru8xbSqPyqUHWIzl881WJnCJt6a8xiQgquOUv19irhR98y3yA4GUCEjQUt0sgSu2erlrO0rMMFYx1Tldc4o5Pdld7Q42CIRGwHwXUXY4y6UgJvI0HM6fuJKHBNRBt9FOi7oJ9SGrSkJlUTnU0NFnBIhhnU42sH9QVAWifx4J3Z/kS3ZvEEUxrD9xNQikSkDPThso4Lmz6gWKzhIfDVzBZ5VPKnvkB/IBNgiESEC+K3GerX8CqlPVlo+9vkDY6t+XuEIABBSVon+IsCguU7UlVPi63ofylRezvvjFL85HuX3NcwCu0EkWVXHk/UmViuzl6yafUYREVhyVSKd9+JOvViNfEIiXgAZmVBerMc40uxM7Z5nE+q9W8Xp09yWTMKC2BRsEQiSgtrKe7/hwv9ZTvaGBkBTqDIStfn2J1AMkYKKERd7oYSDBy4SJsdRuXVfCHhjI2wAAIABJREFUiPJhApyNaEt8ePvtt+cPrrHyF6CpB8my+ZMaoLKXXvqsjpoqm7FEI+VLfpP1JzUwELMGcQsuAgEINCSgZ6WeTRK59MxKcVNdYXWIntHU8yl6wWqZdV+k0FldLTl7YiGgZ7raxak+2/u2o+oKPSc0aJ3ChrCVgpUp40YE1KC0cG8TJvSQMHFCjQod09WUM6Wj9JSuRAddR9eza9t1dUx+0zE+RwXl85vad4lYJk5aJ0U2U4fN7KrKXbbtquNi/iQfzvtT1o+L/Ck1+1BeCEDATwJ6dqphbs/LVDpBei5bXaF3ntN++ucYudI9ofsBnxiDPtfskoDapvLlrvpRXeYt5LT0jFAghF76nMKGsJWClSljpwT04FWj2sSubPSUHsx6aZ8aodmXGuU6R+/Z/fpclYbO0fWaPPCVlo5nC4eAGqVZf5LIZX5k71/+8pfdk08+ueQ35k8avc/7U1Ea8jEdK/+QuNaVcBYOaXIKAQiETkDPrazApedZjA121Ql6rqsO0DviReie233+5RPyDzYIxEBAz3UNtjbp68RQ3r7LYKKWmMZYR5bx44lYRob9EGhJQA8ONTSyQoUa3U1easTauZs8gCwip2XWOdxDAurAySd+/vOfuz/7sz+bC1tNfEnHZP3Jw6KRJQhAAAIbEVA9qWedifgS7UOPVlaHTnW4RWiro0cnbyM3ifpk8/+oC0nhkiKAuNWNuVU/ajA7RaEQYasbHyIVCHhBQIKGHmRs8RBQhy21EZd4rEdJIACBvglI0NJzUtErelaqc6R9mwwS9Z1nS9/ELBPo1BnRMgQh5N3KwPs4BOTn8ns2CMREQH6tZ7n6M2ztCahOUT2iOiXFgRGErfY+wxkQ8JaAHmKqEFJ8mHlrlA0ypg6O7KnILTYIQAACECgnIDFInSETufTstOn5vjxDVTfruW4DFsqjiVn56eGK3tKLDQJFBOQ3itpig0BsBEzcMv/mWdjMwqrnNLijZ0OqgyMIW818haMgEAwBNZQZ6QjGXKUZVQUlW6oTxAYBCEAAAu0IKGpLHSI18vUsNRFJnSY9V/WM7bPxr/RVF6tzJoFNHQ7lQSPpyoN+y4tZ2RLqd50jEazPfGavyedwCMiX5GNsEIiRgJ5/8nGtL6t3fWcrJ6B6RpxUt6RcXyBslfsIv0AgSAJqQDPKG6TpFplWpWQdmsVOPkAAAhCAwFoE9EyVCKDGv4SirNilzoDqTas7dYxeJn7pvKKXOlp2rN4tDROwlK4+a79+l9BWJWQVFUwRXkoj5RH4Ii6p75M/yr/a+lPq3Ch/WATeeOONuZ//8R//cfBrKPZFXnWE6gfVE4h/ziFs9eVppAuBkQhYA3uky3PZDgioI6RR/ZRHXTrASBIQgAAEKgmoU2CCl+pOjXabQKX3rEglISH7yh4nsUznm4ClNLvaJF5Yx0X5ZYOAOrDyTTYIxErARP3Lly/PB+v17NUzFzH3xOLqH6i+gcvyHYCwtcyDbxAInoBGhfWgYwuTgFVUdGDCtB+5hgAEINA1AXViTGhTHc+WNgFF5csf2CAQIwGJVxJusz6uwQKLtJX/pzzwa8I2UVqr3k/vd5UJeyAQNAFVCBK2EEbCM6OJkoQTh2c7cgwBCECgbwKKKFP9Th3RN2m/01eHnyUn/LYRuVuPgAQrCVh6FYlXevZpRoNEHQ0EFx2z3pX9P8vKrjogtbI3tQ7CVlNSHAeBgAig4gdkrNOs2giVOi5sEIAABCAAgSICFtWLsFFEJ419tPHSsHOKpbTI1CrBSr/pOaj7QC+1m2Odoqiyar1HiXkStGIuaxf+jrDVBcUWaejGUzilveSsujmLXnaM3om+aQGZQ+fhuwgkYTlC1QhVWCUhtxCAAAQg0CcBjdxbJ6eqA9hnHkh7HAJE5Y/Dnav2T0D9FglVbfq82SgmiWL6HsMmBsZDTKQTxCredWkvhK0uaZ6mJWfUlCI5oRYU1Y2mBkj+JUfVb2UvU2fz56kDrHOUvv1rTw/FIMmACcg35CdsYRDQyHvbyjyMkpFLCEAAAhDog4Damqo3yqbs9HFN0hyfgC1ZMH5OyAEEuiOg/qz6u+uuIaggEAlBSkPPRX1eN63uStUuJT3T1R+w/r+e7RLqGLxozhFhqzmrwiPlbLpx5IhZActEK+2XyGDRV5uorZaGRXnpeub8upF1A+hG1k2wyXUKC8rOoAjQ8AnHXLpfdf/GMsoUDnlyCgEIQCBsAuoIqe2ntqA+s8VPgIHL+G2cWgm7bAerX670FFhiIpc+q+/sW9/YNAT13a0/r+e5j3kNxScRttawlBoPVrHoptHLIqgkKIxx40j00o2gm1eimvKkmyRExXoNk3BKjoAelvIB+QWbvwT0LNH9KgGcDQIQgAAEINCWgOp7dYZUlyButaUX3vFq56ttzwaBGAjomaX+Sh8+bSJXVjjSc1L3kAWd6JihNuurKz96ZqvcevkqvA3FpcvrIGw1pKkbLx8eqO++CgfKrwldduPoRgotLLOheTisgICETfkAm58ErDOiyo0NAhCAAAQgsC4B1Sdq46m9R/TvuhTDOE9tO3XK2SAQOgH1VSU06dk1xKbAEz0f88KS8qAAFe3XvaVj1L/Xq02wip2jvrbSkU6Qn12l+9eELF81hCFs0dc1ELYqyJrSa6qq3kMMD7Ry6EZSo0c3sG62NjdrBSZ+8pSA7D1UZeEpAq+zJdvoXuQ+9NpMZA4CEIBAMATUtlM7D+EjGJO1zqjsS4e4NTZO8IxAdnBXn8faJK6ZEKV2eV6I0v3W9mVCmfphehZLO9A9O2Y5x+I79HURtgqIq6OpxoEcUy85uhw/hk03lW4wKca6UXUDU0HGYNnVMuhhKjuz+UdAo0G6/4ig9M825AgCEIBAyASsfmFgK2QrFudd7XW1HeggF/NhbzgEFCyiPorvvqz86b6rezFI7YfvIWxl7CCnVENAlYZuNjUOfL/hMtlv/VE3qYQtBK7W6II4gQaQn2ay0GtG1P20D7mCAAQgEDoB1f8amFXnMeZ2bOh2apt/G5huex7HQ8AnAupr6/kUS9CIT2xTzwvClnPzSl+dzKyglZJj5AUuHjRxWF+NWfm07MvmBwHZRKK5BGU2CEAAAhCAQF8E1JZTfSNxi3ZdX5SHTVeCAO2HYZlztW4J2HRp+ibdciW1EwLJC1uKyrIph/qc8pYVuPTgYZQvfG9Qg5bIIH/sqPn2et5wb/ljE3ICAQhAIFYCqmvUDiA6Ig4LS9SiTReHLVMshU2TTr2/naLthypzssKWph3aNDxEnGV3M7FPI30o6stsQvum0T2JKWzjE9AUAiLoxrcDOYAABCCQEgGJWzaoQocybMurDcHanGHbMNXcqz8p/0WYTdUDhil3ksKWKgWNXmkUC+Gm2NGsIaSHkIQ/tjAJsB6DH3bTNBDdS7IHGwQgAAEIQGBoAraGLPXQ0OS7uZ61I5hW2g1PUhmOgHxW/W49g9gg0CeB5IQtm9urm4vpQPWuZdFbEgHhVc/LtyNshATbjWcZsVeFTuTceDbgyhCAAAQg4OZ/iqRBFjqY4XmDBuVlOzYIhERAbWBb6y+kfJPXMAkk84TUjUUo9npOKqWdNRrWY+fDWWoIEbo+niU05VmVOuLieDbgyhCAAAQgcELAZi2obqJeCscrNIVLNmODQCgE9HxR/5HgiFAsFn4+kxC27MZi8cz1HVYMVaHCcH2GY52pCoU57ePQF3cJi0wdGIc/V4UABCAAgVUCNjWIDucqG1/3qA3O0iC+Wod8FRGwgBLawEV02NcHgeiFLUStbt1G4euIW90y7Ts12YxRvr4pr6Zv00BZrHeVDXsgAAEIQGBcAvoTJQlbtOnGtUPTq8tOrI/WlBbHjU2A/uLYFkjz+lELW4ha/Tg1D6t+uPaVqq2T1lf6pLtKQB0GNUJ1r7BBAAIQgAAEfCSQjcZnyQIfLXSSJ9lJ0d/84ZW/NiJnZwTU75C/MrB7xoRPwxCIWthCgOnPiWxaoipbNr8JKARYFYzEFrZhCGgUnCkew7DmKhCAAAQgsBkBtZfpiG7GsM+zLQK8z2uQNgS6IGB/ckB0YRc0SaMtgWiFLd1QjG60dYfmx1s0nDrvbP4T0L3AaOwwdtIaGEztGIY1V4EABCAAgW4IWLuZSONueHaZitbr1J/QsEHAZwK2dh/PEJ+tFHfeohS2LEIFtbhf57UHGAuT98u5i9RZdLQLivVp2EgV4df1rDgCAhCAAAT8ImBTiNQxJSLfH9vIHlqImw0CvhKwJThY09dXC6WRryiFLUURcWMN48A2wieRi81fAooi4p7o1z4m9DJS1S9nUocABCAAgf4IWF3GdPr+GLdNWbZgELktNY4fikB2Fg+C+FDUuU4RgeiELRNaWE+oyNz97JNggmjSD9uuUrVR2K7SI51lAtlKffkXvkEAAhCAAATCIiBxS2KKpr8xcDm+7VhaZXwbkINyAuoDagkORK1yRvwyDIGohC3dULqxfB3VmB3tue3JxE2mF93B/Vl7Cx/fdLtb/81t7912a5zd/noNz7BFLfm3lobARjhMDVM1jGig9gNfUVp69iCo98OXVCEAAQhAYFgCNmCjuo323bDss1ezNjbtiywVPvtCwNq/9C98sUja+YhK2FJUir+K8afuaO+JubgwmTzqdg4+aud5szvu4OK2m0ym3glbKghRW+3MOcbRujdY+6l78hYNx+L83bMlRQhAAAIQGJeAOq4aGKP9MI4drG8zztW5amgEJEhLDFWbVIEe9rJ+WtW71nGz4/WudKpEbZslRfs3NC+JN79RCVsKmfZ2fZv7B25nOnXbL77ovjqduMn2njtqGnZ1fNvt70jUmngrbDGi5P9DQpWZ1tpi646ARqgkGMK1O6akBAEIQAACfhFQJ1dtUOq64e3CGqnDMw/hiiZg6d5U31dt/JN+ovqKk3nb1ESsvGCVFa/yn+2csvTkjxK0/vZv/3Z+HQTvELwlnTxGI2z5PdVq5u4fXHTTeaTWO+5g51E3mTzh9o4+rfG0mTs+2nc7W9PMw8rPiC0VRMIijZ4ak474syovVVRs3RBQo0I+D9NueJIKBCAAAQj4S8Cik70dQPYX3UY5UxuDtvVGCKM4WW1ORUbp/tP6dyZi6bP2qY2vIIM+pgQqXYsAk0imtq9d3/yzKrIrCgNQiCAIRCNs6YbWjebn9tGJmDVfW+v3pyLX1G3t3nTHpRnOTl18xJ27fM0dvKKpjP4KW6p49YBl85OAKiVVRGzdEFDl7u/U527KSCoQgAAEIAABI6DOq+o9tfXU0WbrnwDLSPTP2NcraF01RUdlhSy1PbVvbCHpl7/85ULsyudPIjjPB1+9Ku58RdPLNcXYR3PN7uy789OJm+4cuPvK4HxaYt0i8ifC1vTcZXftSGeZ0OWvsKWHrIQTHmY+eqGbL2wu+4xdGfpJp12ubF0BWLbjxtEQgAAEIBA2AUWEaCBZndk+okPCptNt7iVsqN0G5265+pya+lBZMUv3mgIHfG9vKt8WUSYxVn4rEY6pij57W3x5i0bY0g3k581jglR2wfjTCK5Wi8hbOv4KW7o9EE78fkioslGFybY+ATUw5eeKEmWDAAQgAAEIpEZAnVgJW2pTILr0Z30i7ftj61vKEq40pVDtS91XErNCvrdM5MqWh3/29M3r4stPFMKWKlhvBZXZbbe3Pc0tFm9rbrVZRD4MYUsNHTr8/j4oNHrC+hjr20fPGo2eiSMbBCAAAQhAIFUCqg+tI+7nwHL4llF7Wu1qtngJ6N6RjdWP1ewjCUIxbXpOaEBdbWeVUc8M36PPYuKfWlmiELZ0g+hm8XGbHe257aJ1sWw6YqNF5FWyMIQtPZQRtnz0xJM80UjazDbyb1XOqqjZIAABCEAAAqkTMHGLaPDuPYHByO6Z+pKiBKys2JNCNJPKrHa0iXghR6T54kfkY5mAn2rQch5rv/krbNmUw6J/QDwTqqoXkbfinx2/vXfbzWy3Z+8IW54ZJJcdf++VXEY9/CpRUJUxFbGHxiFLEIAABCAwGgFFnVg0xmiZiPDCEj4YLI7LsGpDmrgjUTgFQStvQfVFsgwYLM4T4vu6BBC21iXX5LxFVNZkXuGr0i98zf8tsU6qQthqgpxjqgmo8pAPqlJha07ABEFGpJsz40gIQAACEEiHgKIxtDaQOqx0VLuxO+21bjj6kIruCa2bJZvqHmGQ1M2nXUq8Zf1fHzw0jjwgbPVmx8w6WmWC1mJ/dmH5sgwhbJWRYX87AqpEEGiaM1NjRJWuRtbYIAABCEAAAhAoJqDOuupLrRmUYiRKMZX19tqAGiLhevx8Oku2NAGH9eiWLSP/thkREvx4bizz4Vs7AlEIW7oJpIB7pX7bovHTr7j9Ow9LrGJiVZNF5O1Yv/8VkcXjS0zt0W6t2cDi580NIp/Wi8Zlc2YcCQEIQAACaRJQXak6UwKXV+3ywMxhC24Hlm2ymyNgoo3a3bQjc3AyX/WssOdGbAvoZ4rJx54JRCFsiZGELZ9uhJNF4yduunPg7lcZcTFdsWgdruyJYQhbhE1nbebnZ1WyGjliqyegsHEa5/WcOAICEIAABCBgBNSBV/SF6k+f2uaWvxDeFSUuhmxhEtA9IDFL/SJmSTSzoZjZn1Gor8IGgbYEohG29PBXJ9SPzUSoJlMMbYH5qateRN7S9DdiS2q7HuCEkfrhhWW5ILy9jMzyfjXG5c+EjS9z4RsEIAABCECgCQHrpFKPNqG1fIz6NXTul5mE8k0CjUUfEbXY3mr8GUV7ZpxxQiAaYUuilh4iXmzHN93u1tRNtvfcUd2a8M45i+6aVC4i77+wRdi0F97XKBNE1lVjkjirkWbW1armxK8QgAAEIACBKgJqG6rNQX1aRWn1NzEj2m2Vi+97JGSp/ag+qQQutvUIaBBeHCXwwnE9himeFY2w5U+0kC0a3yKyytbjmlRFePkvbOkh7k/UXIq3c/Myy1aMBBbzspE2b4Ty4myyFwIQgAAEIDAYAQktvGAwpA8M5twdXcgGRRG1ugFqIiFTcrvhmUIq0QhbMpbWDaKzPo7bermA/zgogriqRk5ZQL7YVGKjUSKm1BbzYS8EIAABCKRHQILGJps6qUxJbEbQlkJodnScR23qb0NTyQ6KEmHUHX0Tt4j47I5pzCltVkt5RkailjqkYz9QhhzNsGuNbQo9cGJYkNx48s6o5FA+MPa9y/UhAAEIQAACdQRUJ7INQ0D9mdSjVELzN9lL/aCx+6DDeOiwV7G1gQleGZZ7iFeLqpbSw0TC1tiOP1SHOHudMZ3PorViGIkLrSJd1+5WSax7fqzn6fkx5HTaVPwtVn+hXBCAAARSIUB9NZylFVE/ZFtkuJI1v1JI/maBFYouYuuHgK3Vp/4LGwTKCEQlbKmQ9nAZUzHXw3joV5mBh9ivCjiGaC2xCqki3dS2TLVbJTg0k5T8bZU2eyDQPwENuGgkXW2DMdsF/ZeUK0CgXwLUV/3yzaautkjqz6tQ/M0GiiW8sPVLwPqbqd8b/VIOO/XohC05u0QW1g8axjFtHYBYFPRQKtJhrMtV+iaAv/VNmPRTJaA6SQv46h5Te0DRmGobxBBZnKpNKfe4BKivxuWf2tVD8TfVM6lPGx3KN9XHH3pmxVBl4zrdEIhO2BIWU8/5m9xunKQsFXvAxLSgXygVaZlN2B8WAfwtLHuRW/8JKNJBdZLuLXU2LApT9ZWm9tj+WAZj/LcIOYyFAPVVLJYMoxwh+JsGSpRPq2fCIBt2LmEetv36zn2UwpagqQErVZf5zv25UIwLJYZQkfZnUVIemgD+NjRxrhcrAQlXthSBIrPKhCt1QFR36d6TAKbz2EIhMHPHh5fd1uQJt3f0aSiZjiaf1FfRmDKIgoTgb6prVO94uc1uu73tqZtMHnU7Bx81y+Lsrjvc33XnprakztRt7ey5g6P7zc4f6ChxjymoYiBsSVwmWmFL1lN4qF40XLv3ZT1QYhQOQ6hIu7cmKY5FAH8bizzXjYmAorPV0FWd1LSTsc45MTELsSyzu9fcxS111BC2xrAf9dUY1NO9pu/+ZpFDvvYxZ0d7bvt0zefpzoGrlaaO33Z75x6ZD/qI/fLrcbd7+LE3zmjsiZTzxiTeZCRqYUsPGzV2Ebe69Teb5qEHS2yb7xVpbLxTLw/+lroHUP5NCCgie9Poq2yUF8sXbGKNPs+dueOjfbczF7XU4ULY6pN2WdrUV2Vk2N8HAd/9TXWPv1FDH7mDnUfdZPtrbverjzZ4Zp4eP3nEndt9wx0dz05MqgiuV3fcloSurcvu0Pb3YfCWaXodLdeyLBzeHYGohS1hUsNXo7iIW904Tcyilgj5XpF2Y0VS8YUA/uaLJWrycXzT7W79N7e9d9udNvdqTuDnPglo0MrqInUuNl1yIJ8eo8B9Wq9t2vfd0f7Fk47VIooAYastxS6Op77qgiJpNCXgs7+pjlD+vB0MuX/gdqYTN9255n59cNFNJ9PK9ssiumt7zx2tNHJM9GoxpbGpkTc4TksOqW/PBoEsgeiFLRU2K27RYM2av91n60jEGKllJHyuSC2PvMdDAH8LwJazO+7g4rab1DQMAyhJFFnUX6prsEqjtV3XRVqXyyLA1Gj2dYpJFIZsUojFGjETN5mec5ffuuZema8Zg7DVBF/Xx1BfdU2U9KoI+OxvqntUD/m5zdz9uZh1KkSdilzlEVefuqO9J9qtxeVBwdW3l4/Qr/fAGB5lIQlhS7zVQJWyqwfRpqO7HtlvkKyInRr7Ytd1R2KQArS4iM8VaYticGggBPA3zw11fNvt70jU0vSn6hFPz0sSfPYkOmXX0epTdFI9Z9eSkMY2EoG5sPXo2dSYhdCFsDWGRaivxqCe7jV99jcN9F+6dMlP48zed/vnH3GT6UV3cF/hVzURVwE/V+UjsfdL/XQyf3OVjLAlE6ghrAeRbgQaq82cUiKgGvh6pSAI+lyRNrMYR4VEAH/z1Vr5NX0QtsaylEZjLYpK9fdQo7NqL2j9Ld2jGhQr+5fFsbgked2AO2Ax2Iv6KgYrhlMGn/1NdVLTPyoZmrhNKzxbMN4iuDQ1sWAReYvomgthn7q7h/tud7GIvNbc2neHdx8OXYxG1/PZDo0KwEGdE0hK2DJ61ljVDTFUI9muHdJ7llOfo+M+MfG5IvWJE3nphgD+1g3HblOxsHyJWY+4c5evuYNXFKZPxFa3nKtT80VYUhvBBsSGFNaq6ST6K8LWqIanvhoVf3IX99nflDc/19ey9ksuqtXEq6I/3rDftnbcK7vn3HSxlqHaQKev6Xm3d7v2fxUH91GvI+cGp8EFRSBJYUsFt0gkTa8jemv5ZtDItE3bTI2NzxXpspX4FgMB/M1HK540DKfnLrtrR2rIWUMRYWsoa9n6JT5Nf7d6UfesBn1SGewZyuaNroOw1QhTXwdRX/VFlnSLCPjsb8qbl1G89oxcWQTepiOutmMswktlmg/mZf8V0WX+vMOzf0WUz6guVpAKGwSMQLLClgD4MiJsxhj7XSPTtkB8qtFsPlekY/sH1++eAP7WPdPuU0TY6p5pcYpZ8cjXxds12CPBTdPzWduj2I697bVOW1HUQW8XJWEjQH1lJHgfgoDP/qa8+Sds2ZTDVfFK9loIWHmByiK2JlO3tXvTHa8Y92N3uPu4l4vLI2ytGCv5HUkLW2Z9CToScvSg0rt/DyvLaT/vJvBZY93P8Np+yp5P1eeKNJ9XvodPAH8LwYYIW31bKbRBFdWZEt5SbTP07Q+l6SNslaIZ4gfqqyEocw0j4LO/KW/+9RUtKiszhdCmEi69n/5booFeCFu56Yv2uzPBrGSNrsVxw39A2Bqeue9XRNjKWEgPqZQELnUm1Dg3QYvRZzfvqGRcgo8Q6JWAzw23XgseVOIIW32ZKz+o4l9Hobrk2UExRTurPGw9EkDY6hFufdLUV/WMOKI7Aj77m5fC1kKgqhO2cgJV7XMVYas7ryalvgkgbBUQzgpcNt0gpgarIrJsMVwrn0QtfdY0i5jKWmDeyl0+V6SVGefHIAngbyGYDWGrDyupHlKdo4GV0NdyzJZFI8hsPRGo7YD1dF2SnROgvsIRhiTgs79Zf2lIHtXXsnbKI+78/vtuVnLwYjri0nRui/TKRXIt0jBhq3iK4+KwET4oGEUBGmwQMAIIW0ai4N2mR6jhrQesRmRDnaanxfJ18+thrLJI2MqWRWKWRW9ZWUMbPS8wYetdPlekrQvDCd4TwN+8NxGLx3dsItVFFhkdW5STRC2LgM7Wrx0jTDc5hK1RbU99NSr+5C7us795J6jYs3F60R3cL5O15EImYmVFKhOuJm56ft/dWTndzimbqjiea6pPy2DSePx9vDLCVkOrKKLJopzUcNVn7ZP45eumhnVWzNI/HWpkvC7PKpd1PGxUIpUoLp8rUl/9jHytTwB/W5/dcGfaSGi2ITjc1WO5kuqQ7J+TSOCKccuXs66+jZFBb2WyzttStEFvVyPhHAHqqxwQvvZKwGd/k5jyxS9+0ZsZLhaJNd05cPov5/LtTMSaZBeRP77pdremJ/+KePmn7q6JW7O77vDVHbc1KRO9yq/U1y+qYxV4oXf5SIpBGH2xjSFdhK2WVtSNZCKXRXJJMJKANKbQZTe6HrYmSumG1+cmYlYRBjXIU4vi8rkiLbIR+8ImgL+FYD+ErU2tpDootUim7JIGqkdVR7NtSABha0OAm51OfbUZP85uR8BXf1NfT/0+5e8f/uEf2hWql6PtXwsbRlQtnqPLUw9nd6+5i3Nxq2CNrq3n3cHdh73kvm2iqk/FXq8/+qM/mvdztU/tDBO82qbJ8fEQQNja0JYadZaYpAguE7r0bmGq+k03Wlej0xKblJ4erCZi2fRC3eR2XUVrddmQ1vVMMIs5iksM2SAwFAH8bSjSm1wHYWtdeqqrVF+oTlR91WWdtG4Cz3z3AAAgAElEQVSehj5PdacxUMObbQMCiw5Zww7cBpfi1FUC1FerTNjTHwGf/K1ooP9P//RP/Vgf0haN395zRxZpVWkWa9PkFpHXOcdH7mDvJEJL/CeTbbezd+COjhslXHnVrn+8cOGC08v6wiY2nuT7pD+sKHHrhxM93bUF/EyPXnzHdtGNI1FJN5LErvyNphtOjVyJRNmXjtU5Up2z++2z3aj2bmnoeDWc1YEYYit6uA917SHKJ75sEBiKAP42FOlNrmONQKYiNqWoekJ1l/xbDcvUG5QS9FS/i4faBDHVmU19guPCJ0B9Fb4NQyqBD/6m/pz6Z8qL+l0anLABGvW/tI9teAJqU8gmsk9+UyBJth9ubREdr5e+W59bx3UVeJLPB9/HIUAvfkDuaszqZdFWaug2eVl4pc71qYMQYxSXHnpsEBiKAP42FOlNroOw1ZQeAk41KdXf1knSu0/1eXXO+RUCbt4phAMEhiIwVvtI9Zj6XRKtlAc9q4sGI6rElaEY6TrK4xivIcuYv5YGzNqKirKX7Kh+t87PC14adNI+/T5kwEi+bHzfjAC9+M34cbZz88a5Ri5sKqYeGEWVQAiwxqpIQ2BDHrsngL91z7T7FBG2mjBVQ1B1gF76zFZOQPWjRXOrEW0RAOVn8AsExidAfTW+DVLKwdD+puey+i+6rk2frxt8WEdg6dqGyu8Yr67L0TQ9ExS7ameo/pXtJWbarCnrz4qrBDQTvCzQhDq7qbWGPw5ha3jmUV9RDxpTwfUw0EMgpAeAHmJsEBiKAP42FGmu0xcBRJr1yap+VANadWVXjfT1c8OZEKgmQH1VzYdfuyUwhL+pf6Jnrw00qP/S5llsIoue5WzDEFAEXdtorXVzpvaN/EEDUPINXVd+qZfqbu2TGKbfdWydELpuPjivOQF68c1ZcWQLArq5LYpLN79GNUKYxzxERdoCI4dGTgB/i9zAERdPz3gb3VbjjgbdesZWx0p1pZ4F4qjGMRsEfCRAfeWjVeLNU5/+VtRHWbcOk6ihfs6658drwe5LpjWx5Bdj15O6fnYdLxNGlTe9VJerfWSCVwj93+6tNU6KCFvjcE/qqlK7dZPrZtfNr+++RnEpj2wQGIoA/jYUaa7TFQE9u60hr9HLsRuYXZVr7HTUKbJ6Ug1iX+vIsTlx/fEIUF+Nxz7FK/fhb9n+iEXKdvGsVd9Gz2+2/giojpSAqIEgXzcJWGoTqY2ketzqdPmyXvITRZzpdwljtskHdZ6dq9/10vlNXhY1ZukqnS782vIX0ju9+JCsFXhe9VDSja4Hk69RXH1UpIGbjez3SAB/6xEuSXdOQA0xdQb0/GbqRed45wlmGauRygYBXwhQX/liiTTy0ZW/qe+hZ6lNI1M/RB3/LjcJGtav6TJd0johIJFGopBeIQo28kETrf7yL//SPfHEE+5P/uRP3Je//OW54CVf10s+ZEKWCWDy3bqXiWg6V2lYenrXPv2uNFIQvBC2eGoMTkAPJY2a6AGlm07vvkRxKT9sEBiKAP42FGmuswkBNdrVOJK/qoEUYsNyk/KPca4aoWqgqjOWHdkdIy9cEwIiQH2FHwxJYFN/Uyde9ZXS0XNUz9Q+6y71Y3QtvbN1S0B2VH0Y2pQ++Zvqb0VUWZ9XPqLPJlzJT/sol9I0MU388tdXnpS3Pu+Jbr2gWWr04ptx4qieCOjGsweWHlr63McN3jT7m1akTa/DcRAQAfwNP/CZgBo8eibLTyVsjfls9plTX3nL89eoLxsExiJAfTUW+TSvu46/6ZmpaGKLzlK9NeTAAOJW975qfcRQ2h+qp+WDEq7kw9Z+soip7gm1S9HErmz+JHopzzG0MRC22vkDR/dEQJWRKgRTlPWu79o/5LZORTpk/rhWXATwt7jsGVNpiBjyx5pqiFrEnEZZh64X/SFBTsYkQH01Jv30rt3G3/KD5HpOjtVJt8EgIrc291kTtYYUJ9fJtfVhrZ62QA3f862yKo+6X0wMNpEr1HYGwtY6Hsw5vRLIV1B6sA2l1LepSHuFQOJJEMDfkjBzUIWUiKIGjhpmfU/dCAqMB5lVR8lswxpnHhgksSxQXyVm8JGL28Tf9Ew0McEGxEfO9vzyej4r/xIM2NoTkKgiu/o+/VDiqYlvIYlZZRZRX1s+q7LIf1U2tQlD2hC2QrJWYnk1BXzIKK4mFWliZqC4PRLA33qES9KtCKiBZh0ENWbGGu2uzvSn7mjviUV4v+6f4tfUbe284l4/vOtm1Qme/jpzx4eX3dbkCbd39GmjM8Y6SPWiBEeVW3VjaI3Osbhx3c0JUF9tzpAUmhMo8zfVTfnO91CD381z7+azTlQGTfkKNfqlTXm7Ola2VN3ms6iVjaI2QTU2G2dFY7UNQ2lrIGx1dSeSTq8E9KDLq+J9VGRlFWmvhSPxZAngb8ma3puCqzGmToJ80X+hpKmwZYLXI+7c3tvuuIb27O41d3Fr6iYBCFtWFHXubI0MvfspRFpueY+BAPVVDFYMpwx5f9OUKXvmKXJVUVG+iwnqp0igUX776LOEY81mOZWYIl5qi/ho26ygFZLY04x+8VHW/9b9GEKZEbaK7cheTwnoQacHnx561hHT964egPmK1FMMZCsSAvhbJIYMtBjWiFRDUp/9386ErenOgbtfluHjI3dt95ybKqJr+hW3f+dhyZEzd3y073bmopbEMP8jtvIFUUPb6kOmjubp8L1LAtRXXdIkrToC5m8SsCQM6buErVAiR6x86p9YNLSe0WyrBMTIREsfp29mB5JCEHdWCW++RwwUYKL7UAx8HUxD2Nrc1qQwEgFTkdUp06uL6TNWkY5UJC6bGAH8LTGDe1LccMWQhsLWnPNH7mDnUTeZTN323u2CKYn33dH+Rbe1NJ0xPGHLXEqdP9WD6gCGIVJaznkPhQD1VSiWiiOf8je18/VMkyDka0e6Ke3sMzo0ca5pGdc5zncu8j2rW7GbmwvLWaG2q8CSdXyn6ByErSIq7AuKgG4qNeRt1Fo33LoNexpuQZk++Mzib8GbMKgC5Ecdw+sotBG2Ko6d3XZ725p6qIiuc+7yW9fcK/Pv4QpbckTVhTatNNVR5aBuyMAyS30VmMECz26M/patg1OfQu77AJtsZf1KIu1WHyZZQdKnabYIW6u2Yk/ABPJRXGrkt+m8xViRBmzO6LOOv0VvYi8KKMEjjlHHCrFqhXRFxNZc2HrUndt9wx0dz5xbCF1hC1uGQHWejah2Ecls6fKeNgHqq7Pnj1jUvx51OwcfrTjN7O6h27ep0vN02v7ZxUqSUe6I2d+yok5qz2iV3ff6ScERitKSsOWTaOPbjZ5ta0jo8mFD2PLBCuShcwLqyOkms3n5TaO4Yq5IO4dMghsTwN82RkgCNQTUQNNzUI00XxoeNVmu+PmsY1m1xtZSx7Fyja3TS0UmbBlALbZstmfE2ajwvi4B6quz549Y1L/ywtbMHd9+1Z2blp3b7M8u1rVfaOel4G9WP6usIa4f1sanVFaLgPI5otiinn1c66sN7yGPVdtSPiyRVv3vMTeErTHpc+1BCGh0QDebbjp17qqiuFKoSOugz4723HajRttJ46yqg3lyrZk7PrzstgJcmLmO1aa/42+bEuT8MgIaZcyOio7d2CjLZ7v9bTuW2+7iwZ2C9bVyV41U2LJSZqP1JHaxQWAdAtRXZ8+f+nZPAeHjm253/kcVj5xFi+qw2V13+OrO6Xp/cUSNFpS+9a6U/C0bxaTBCAkFMdTZiuhRn0t9L9nT5+g08Za4qLxKhGNrR0A+LHYSL8f0XYStdnbj6IAJ6Eari+JKqSItM2XXwtbs7jV3cd6Yo8GWZy5/4wWDrn3AhHwJW3GF0Z91LKuZbbudvX13cFT6v4nLt2LkwpYKq/ov6xfV/Lgn4VPsA8s3Tmrfzp4/7YWtmbt/cHH+T63F537sDncfn7cHin9PjbWbs0it1HkhSEKLRJYxhYK2NlAZ1Ney6KwQhDrxVX4lzMTVZmprvc2OFztxHFPcQtjazIacHSiBsiguNWZT3xbC1vSiO7g/2wDHzB0f7buduailRjLCVh4m/pYnwvdNCKhxZiOjcUbmlHcsZ3dvuld3tt1kkouGaAI0AWHLMKjuU0dDzx4a8EaF9yYEqK/Knz/1/GzNv/z0RDvzTPiabO+5o02aXpZk4O+p+5vqcA1GWJ2ugSpF3/r43FZeFZmVFbP03ce85m8LRK08kc2+G8+xxC168ZvZj7MDJ6AbMBvFpYo0zg5hc0N1I2zdd0f7F09D623kF2Erb4XUG255HnzfnEB22plEjLi2mo7l7H23f/6Rk6iH8/vuTtPOYSLCljoZ8U1PjcvDfS4N9VXN82cj450JW0RsnYDE384cKi8ciY0JXfpNUVJDbapHFEWWFbKy+QlBzMqysumHoeU7WwbfPo8pbiFs+eYN5Gc0AuoE6uGs0eyUt42FrUUnceIm03Pu8lvX3CvbUyK2CpyKhlsBFHZtTECN3Oy0syEbvRtnvjKB+o7l7M6+Oz9fnHnqtnZvuuPK9E5/XDyz4hTf1chUJ8Q6HzTgmzgFx+QJUF/VP3/yzJp/t7Snbnvvdv26gM0TDvZI/K3YdKrPTeiygQqxsue7hBoNcGnQXv0avdo88+0cvSsdvXQdi8bSdRRFZsKajlMdE+KmepHph/1YTj4ntvLHITeErSFpcy3vCVCROteNsPXo2eKokXcaN3Fq/G0TepxbR0ANTmuMqgEXauPzrJzW+Zu48qiGh+7O/lfma9k0nv4c8TNKnRs1LjVgw4K4Z57Ep/YEqK/Onj9iUftqM6XQFpbfeAmI9nb19Qz8rbllJHaZEKW6Pi9E1fpqiT8rHROwTCgLvx1xwlXioLhQLzb3s7ZHyifFWL4z1IawNRRprhMEASrSDoStvKUj7jTmi9r2+7qNDc5r0Kkoaailwi7ri2q4SdzQK+xG3FnHslzY0r+MtZySGOEzSg1KiVmyuUbcY+mMZP2az8MSoH109vxpVI80FbZmd9zBxZP1Ac/vv0+01qlb42/d3t+qE+pebSK7us3dsKmpPlTdKBGQrV8Can/oXh7KtxC2+rUnqQdGgIo0I2w1EgYaTN2JsNPYlVvjb12RJJ06AmrIWQNDUVxq4Ia3nXUsK4UtN3PHh5dP1/grW6w5U/qInlEauVfov54teo9nGmrGXnwchQD1VdPnTxvz3He39867qf70Yu/tZlOn2yQf8LH4W8DG8zzrWqpBAz8M+AxjKIv8G+JqCFtDUOYawRCgIkXYGtJZ8bchaXMtEQhb+GjTsfzYHe4+Phd4JluX3eFxxUryEQhbcQiX3KM+E6C+avP8aWJJE7WmbuviNXe34hHVJLXYjsHfYrOoH+XRoJ58S1MR2YYhoGgtMR9ixgDC1jA25SqBEKAizQhbXa31EEGnsS/3xd/6Iku6dQTUuAtvqlrLjuX9A7fTZCH5wJ9R8Uw1rfNafh+TAPVVy+dPlbGOb7v9nZPph+cu/xRRq4AV/lYAhV0bExgyeqh1ZhdtkQaR5pb48ZE7+Ptdd27e1tEyHY+4c7vfcwdH9+0IL94tSq7vzCBs9U2Y9IMiQEWKsDWkw+JvQ9LmWkUEWFy8iEoY+yROqpGu50gcfw4QBvdUc0l91YWwNXPHR/tuZ0v/FL3tdvZvM/2w5IbC30rAsHttAopYl1/5uhTD4s+7JlV/kJMpvv3pRNHSMdPzbu+2P+KWse87Ug5hK+MffIQAFSnC1pB3Af42JG2uVUZA09gkjMgfJZQMtchnWX7YX01ADUSNfpq99J0NAn0ToL7aVNiauePbr55EVkzPucs377JQfIXT4m8VcPhpLQJq5yhS3c/tI3ew86ibbH/N7X71UVf/r8623MLUbe3su6PFcgv33dH+xZM1RuuWYRgYhNb91KvPDWGrT7qkHRwBKlKErSGdFn8bkjbXqiMgQcsigCScsLBqHbHhf9cfAOjfnNQ493XUeXgqXHEIAtRXmwlbszv77vx8utDjbvfw4yFMFvQ18Legzedl5lVvKkrdy+106YTpzjX364OLbjqZuu292+Xity21ULhszKlINmkxpXEAKFo2Qfd1n21LhK0BDMklwiFARYqwNaS34m9D0uZaTQkoVDy7/lbT8ziuPwLYpD+2pNyMAPXVmbAlFo1e23vuaL4ovEVXNDivsKPazEYxHYW/xWTN8ctiC5j7GeE8c/fnYtapEGWiVVXElR1T+LwwYatGHBvYLBK0dF/3OR0RYWtgo3I5vwlQkSJsDemh+NuQtLlWWwJEB7Ul1v3xRNF1z5QU1yNAfbWBsGWd0CaCWGFHdT2bhXwW/hay9fzLuyK1vJ2GOHvf7Z9/xE0W974JUxURV7bQ/OKcLPMG52cPH/CzZgVoSmhfG8JWX2RJN0gCVKQZYatJA2x+zBNu7+jTcnvbw3dSc1x5CtH+gr9Fa9poCsZ6TuOYknXPxuHOVcsJUF+Vs+GX7gngb90zTTlFLa8gUcXHzRaNn+4cuJPl3i2Cq2oR+Yfuzv5X5lMWl9fYeujuHjw/X2Nren7f3ZlHjPpTaolafdoBYcsfW5MTDwhQkSJsDemG+NuQtLnWJgT4B75N6LU7l3+qbMeLo4chQH01DGeuckIAf8MTuiQgMUVR6P5tFgmaG/xfRHnm9i8V4L47unb55A8ploIR8gvKL5006pe+I+cQtkY1Lxf3jQAVqW8WiTs/+Fvc9o2xdFr8U4uX66XPbN0RkHiYXduszwVWu8s1KaVCgPoqFUv7UU78zQ87xJILb4Utm9WyWI/PiNt0wvJ1smZ3b7pXd7aL1/vbuuj2j07ivyxFH97Vzunz3kbY8sHK5MEbAn3ebN4Ukox4QwB/88YUZKQFAQkuGvmU/z799NP8O18LdkWHarqn/gJbPPXu5+K2RTlnX0oEqK9Ssvb4ZcXfxrdBTDnwU9iyKYfF4pVNUZwULSJ/fNPtbk3dZLLtdl696e4uphw+dHcPr7gd/Tb9itu/89ArMyJseWUOMhM7ASrS2C3sV/nwN7/sQW7aEUCQaccrfzQCYZ4I330mQH3ls3Xiyxv+Fp9NxyyRn8KWRWXV/VtqfhF5E8TK1uCq+308SyBsjceeKydIgIo0QaOPWGT8bUT4XLozAkyha4+SKZ3tmXHGuASor8bln9rV8bfULN5veb0UthbraNUJW3kBywSxvOCVYWhpF/5rYua4gT/+7Gc/YyriwMy5XMIEqEgTNv4IRcffRoDOJXsjwKLn9WglAqqBrXtf/w7EOlr1zDjCDwLUV37YIZVc4G+pWHqYcmqav/4Z0Z/NFo1/xJ3ff98tZhLmMriYjrj0z/LhCltaxkJtoL421tjqiyzpBkmAijRIswWbafwtWNOR8RICEmok2Mi31XiRkMPm5utmqVFtXFhHC68IjQD1VWgWCzu/+FvY9vMt930LKq3La4vG10ZUmYiVXYfLphpm92VzMHPHh5fd1iQf6ZU9ZpzPfQuMCFvj2JWrekqAitRTw0SaLfwtUsNSLPfBBx8sIpMk6KQcmaQGtf5FUv94iNDHzREqAeqrUC0XZr7xtzDt5muu+54C17bcFok13Tlw1f9daCLWxC0tIp9dPH7vwB0dW8zXzB0f7Z8sHj953O0eftw2a70er3aQovv72hC2+iJLukESoCIN0mzBZhp/C9Z0ZLwhATUm1ZCRsCOBJ6Ut5bKnZOdUykp9lYql/Sgn/uaHHWLJhQbX5FOql8ffPnaHu4+7ydL0wopcWXTXJLum1swd337VnZuWrc/1iDu397Y7rkh26J804Ckb6L2vDWGrL7KkGyQBKtIgzRZspvG3YE1HxlsSyEYt+dGwbFmAFocTrdYCFocGQ4D6KhhTRZFR/C0KM3pViL6nwTUurC3svr3njizQqvJkW49rdWrh7O6he31vZz7tUPfMZDJ1WzuvuNcP75au21V5qR5/1DIVGujsc0PY6pMuaQdHgIo0OJMFnWH8LWjzkfmWBLSuVMzrTGlEOFu+PkclW6LncAhsTID6amOEJNCCAP7WAhaHNiKgfyOWX6W8NEIjUD0dJFGr78h9hK2ejEeyYRKgIg3TbqHmGn8L1XLkexMCMf4zIP8IuYlHcG4IBKivQrBSPHnE3+KxpU8lSXFZBB/4m6jY9x/nIGz5YG3y4A0BKlJvTJFERvC3JMxMIUsIqKGjRqZefS4mWnL5TnZLpMuuIcZIcCdYScRDAtRXHhol4izhbxEbd8Si2bII1NXDGkHtJEW0970hbPVNmPSDIkBFGpS5gs8s/ha8CSnAhgTUuFRDU/fC008/Hcy/BmrU8ZlnnpnnW+t29D0KuSFmTofAxgSorzZGSAItCOBvLWBxaGMCanMMJbI0zlTkB5qYOEQ7CWErcmeieO0IUJG248XRmxHA3zbjx9nxEFCDRwKR7gmfhaJQhbh4PIWSjEWA+mos8mleF39L0+5DlFp/YCP/UsQ1W78E7J8Q+15by0qBsGUkeIeAc/MHHSAgMBQBGm5DkeY6oRCwqX26N9QQ8mm6QHbqpD6zQSAlAtRXKVl7/LLib+PbIOYcaABNyyD41MaIjbfYKhJfr6E2hK2hSHOdIAhQkQZhpmgyib9FY0oK0jEBnxZjl9imhpnuV/1dNQ3hjo1NckEQoL4KwkzRZBJ/i8aUXhZE9bimJGpJAbZ+CGhNLYmHQ0xBtBIgbBkJ3iFAxBY+MDABGm4DA+dyQRFQw1NCku4TNT6HnjagxpgaZnb9IRtnQRmKzCZBgPoqCTN7U0j8zRtTRJsRTZOT8DLEoubRQiwpmK2dOnS7DWGrxCDsTpMAFWmadh+r1PjbWOS5bkgE1Pi0hdrVAO07Ykrp22KnGtEdumEWkm3IazoEqK/SsbUPJcXffLBC/Hmw9bYQt7qztZZq0P07xpINCFvd2ZGUIiBARRqBEQMqAv4WkLHI6ugE1ACV0KQR1r4WIh3iGqODJAMQWIMA9dUa0DhlbQL429roOLElARNiELdagis4XMtI6N4dQ9RSdhC2CozCrnQJUJGma/sxSo6/jUGda4ZOIBtNJSGqi23oqLAu8kwaEBiSAPXVkLS5Fv6GDwxJICtu9R0VPmS5hryWhEHdt2OJWiorwtaQFuda3hOgIvXeRFFlEH+LypwUZkACXa1/pQasNcY03VECFxsEILBKgPpqlQl7+iOAv/XHlpSLCdiaW/qzGNbULGZUtFftKLWfFE0/pqilvCFsFVmIfckSoCJN1vSjFBx/GwU7F42IgNa/svW32v5joU//vBiRSShKpASoryI1rKfFwt88NUzk2ZKgJWFLIk1XEeExI1MbTKy0TIQPA4MIWzF7G2VrTYCKtDUyTtiAAP62ATxOhUCGgEYJbf0tCVZVmxpidqymNTLtoIoWv0HghAD1FZ4wJAH8bUjaXCtLQG0C+0fmS5cu0UbIwjn97CsjhK0CY7ErXQJUpOnafoyS429jUOeasRJQQ0tCle4rjbjm/81QI7EW3aXGKlMNYvUEytUHAeqrPqiSZhkB/K2MDPuHIpAdBBt7it1QZW5yneyf7PgW1Yaw1cSCHJMMASrSZEztRUHxNy/MQCYiIyDBSsKV7i+9Kzy+SvCKrPgUBwK9EKC+6gUriZYQwN9KwLB7UALZyCQNjOUHzAbNzMgXU1vKBge1NqnY+LYhbPlmEfIzKgEq0lHxJ3dx/C05k1PgAQmoAarILd1nPixqOmDRuRQEOidAfdU5UhKsIIC/VcDhp8EJZCO+UxO4VPbsn+z4LO4hbA1+a3BBnwlQkfpsnfjyhr/FZ1NK5B8BNcJ8HFn0jxQ5gkA5gf/D3tu7SJKl9/75b6R9LUF7zcoTFAjKGWOtMbRGGU0jZwU/EGyxbQjGaa5R0E6vnBGFZtdZwSph0YVlp6EQFwbEQMEYi2jKGzRNOcMyFAU7NJfi/Phm1ZN5Kire80TEefkEJJkZGXFePs+TcZ7zjXNO0F41s+GX8ATwt/BMSfFwAoonbNSS3nOeolita8yCllkWYctI8A4BPSZ0xV8CR5iPAP42H2tyggAEIACB8QRor8az48zhBPC34cw4Yz4CEnlsFJMeRqPlDnJYt1N10AN4VCf9B7WcQwqCllmeXryR4B0CCFv4wMwECNxmBk52EIAABCAwigDt1ShsnDSSAP42EhynzUpAQpBELROCtPyBhKGURC6VVSPPbG1S1UVPhUypDmZ0hC0jwTsEELbwgZkJELjNDJzsIAABCEBgFAHaq1HYOGkkAfxtJDhOW4yAFleXIOSLXPoe44gnlUmCnL8OqUagxfaUw6HGRNgaSozjsyZAQ5q1eaOrHP4WnUkoEAQgAAEI1BCgvaqBwq7JCOBvk6El4RkI2NOYTTiSP2tNLgldGh2l3+falJcEKwlZtj6YyqOyxSq8jWWDsDWWHOdlSYCGNEuzRlsp/C1a01AwCEAAAhDwCNBeeTD4ODkB/G1yxGQwEwE9vMZGSElY0lOa5d96SVzSPolOeuk4e/Utnh1veSgdTSv0RTXlaflI5Mr1gToIW329huOKIEBDWoSZo6kk/haNKSgIBCAAAQi0EKC9aoHDT8EJ4G/BkZJgRARM7NJ6XDaSqip66T8w9KU09NJILBPKUlwra6ypELbGkuO8LAnQkGZp1mgrhb9FaxoKBgEIQAACHgHaKw8GHycngL9NjpgMIiegKYT+aKy6z3NOaYwc17Z4CFspWIkyzkaAhnQ21GTEwwrwAQhAAAIQSIQA8VEihsqkmPhbJoakGhCYkQDC1oywySp+AjSk8dsopxLibzlZk7pAAAIQyJcA7VW+to2xZvhbjFahTBCImwDCVtz2oXQzE6AhnRl44dnhb4U7ANWHAAQgkAgB2qtEDJVJMfG3TAxJNSAwIwGErRlhk1X8BGhI47dRTiXE33KyJnWBAAQgkC8B2qt8bRtjzfC3GK1CmSAQNwGErbjtQ+lmJkBDOjPwwuO8A7MAACAASURBVLPD3wp3AKoPAQhAIBECtFeJGCqTYuJvmRiSakBgRgIIWzPCJqv4CdCQxm+jnEqIv+VkTeoCAQhAIF8CtFfDbAuvYbyqR8OvSoTvEIBAFwGErS5C/F4UARrSosy9eGXxt8VNQAEgAAEIQKAHAbVXvGAwpw/0cEsOgQAEILAjgLC1Q8EHCLht0AYHCMxFAGFrLtLkAwEIQAACEJiPAO37fKzJCQIQgIAIIGzhBxDwCMx5J4q8uPNJ4Ov9+fgIAQhAAAIQyIQA7XsmhqQaEIBAMgQQtpIxFQWFQHwECNziswklggAEIAABCEBgWQLER8vyJ3cIQKA8Aghb5dmcGkMgGAECt2AoSQgCEIAABCAAgUwIEB9lYkiqAQEIJEMAYSsZU1FQCMRHgMAtPptQIghAAAIQgAAEliVAfLQsf3KHAATKI4CwVZ7NqTEEghEgcAuGkoQgAAEIQAACEMiEAPFRJoakGhCAQDIEELaSMRUFhUB8BAjc4rMJJYIABCAAAQhAYFkCxEfL8id3CECgPAIIW+XZnBpDIBgBArdgKEkIAhCAAAQgAIFMCBAfZWJIqgEBCCRDAGErGVNRUAjER4DALT6bUCIIQAACEIAABJYlQHy0LH9yhwAEyiOAsFWezakxBIIRIHALhpKEIAABCEAAAhDIhADxUSaGpBoQgEAyBBC2kjEVBYVAfAQI3OKzCSWCAAQgAAEIQGBZAsRHy/IndwhAoDwCCFvl2ZwaQyAYAQK3YChJCAIQgAAEIACBTAgQH2ViSKoBAQgkQwBhKxlTUVAIxEeAwC0+m1AiCEAAAhCAAASWJUB8tCx/cocABMojgLBVns2pMQSCESBwC4aShCAAAQhAAAIQyIQA8VEmhqQaEIBAMgQQtpIxFQWFQHwECNziswklggAEIAABCEBgWQLER8vyJ3cIQKA8Aghb5dmcGkMgGAECt2AoSQgCEIAABCAAgUwIEB9lYkiqAQEIJEMAYSsZU1FQCMRHgMAtPptQIghAAAIQgAAEliVAfLQsf3KHAATKI4CwVZ7NqTEEghEgcAuGkoQgAAEIQAACEMiEAPFRJoakGhCAQDIEELaSMRUFhUB8BAjc4rMJJYIABCAAAQhAYFkCxEfL8id3CECgPAIIW+XZnBpDIBgBArdgKEkIAhCAAAQgAIFMCBAfZWJIqgEBCCRDAGErGVNRUAjER4DALT6bUCIIQAACEIAABJYlQHy0LH9yhwAEyiOAsFWezakxBIIRIHALhpKEIAABCEAAAhDIhADxUSaGpBoQgEAyBBC2kjEVBYVAfAQI3OKzCSWCAAQgAAEIQGBZAsRHy/IndwhAoDwCCFvl2ZwaQyAYAQK3YChJCAIQgAAEIACBTAgQH2ViSKoBAQgkQwBhKxlTUVAIxEeAwC0+m1AiCEAAAhCAAASWJUB8tCx/cocABMojgLBVns2pMQSCESBwC4aShCAAAQhAAAIQyIQA8VEmhqQaEIBAMgQQtpIxFQWFQHwECNziswklggAEIAABCEBgWQLER8vyJ3cIQKA8Aghb5dmcGkMgGAECt2AoSQgCEIAABCAAgUwIEB9lYkiqAQEIJEMAYSsZU1FQCMRHgMAtPptQIghAAAIQgAAEfnRX55+61Wrtjs//291cXbjz02OnuEWv9cmZ21xeu7uJQBEfTQSWZCEAAQg0EEDYagDDbghAoJsAgVs3I46AAAQgAAEIQGBuAnth6+jkZ+7oQdAyYev+/Zl7sfl2EnGL+Ghue5MfBCBQOgGErdI9gPpD4AACBG4HwONUCEAAAhCAAAQmImDClkZord3R6W/c5fXH+7xu37uNjd46PndXEwzbIj6ayKwkCwEIQKCBAMJWAxh2QwAC3QQI3LoZcQQEIAABCEAAAnMT8IStozfu8raiXt1cuNO1RK9P3fnVj8ELR3wUHCkJQgACEGglgLDViocfIQCBNgIEbm10+A0CEIAABCAAgWUI7IWt9emFu6kW4u69Oz9eI2xVufAdAhCAQKIEELYSNRzFhkAMBBC2YrACZYAABCAAAQhA4DEBE7a0ePz7p+toIWw9xsU3CEAAAokTQNhK3IAUHwJLEkDYWpI+eUMAAhCAAAQgUE8AYaueC3shAAEI5EkAYStPu1IrCMxCAGFrFsxkAgEIQAACEIDAIAIIW4NwcTAEIACBxAkgbCVuQIoPgSUJIGwtSZ+8IQABCEAAAhCoJ4CwVc+FvRCAAATyJICwladdqRUEZiGAsDULZjKBAAQgAAEIQGAQAYStQbg4GAIQgEDiBBC2EjcgxYfAkgQQtpakT94QgAAEIAABCNQTQNiq58JeCEAAAnkSQNjK067UCgKzEEDYmgUzmUAAAhCAAAQgMIgAwtYgXBwMAQhAIHECCFuJG5DiQ2BJAghbS9InbwhAAAIQgAAE6gkgbNVzYS8EIACBPAkgbOVpV2oFgVkIIGzNgplMIAABCEAAAhBIiADxUULGoqgQgEAWBBC2sjAjlYDAMgQI3JbhTq4QgAAEIAABCMRLgPgoXttQMghAIE8CCFt52pVaQWAWAgRus2AmEwhAAAIQgAAEEiJAfJSQsSgqBCCQBQGErSzMSCUgsAyB6QO3H9zl2SdudXzuru6WqSO5QgACEIAABCAAgSEEpo+PhpSGYyEAAQjkTwBhK38bU0MITEZg2sDto7u++MwdrVYIW5NZkIQhAAEIQAACEAhNYNr4KHRpSQ8CEIBA+gQQttK3ITWAwGIEpgvcbtzV5tW9qIWwtZh9yRgCEIAABCAAgeEEpouPhpeFMyAAAQiUQABhqwQrU0cITERgksDt9r3bnB47pb17MRVxIguSLAQgAAEIQAACoQlMEh+FLiTpQQACEMiIAMJWRsakKhCYm0DowO3u6twdPwha65Nfuf+6+NX9d4StuU1LfhCAAAQgAAEIjCQQOj4aWQxOgwAEIFAMAYStYkxNRSEQnkDowG0rbK1P3Nm7K3frnNsJXQhb4Y1HihCAAAQgAAEITEIgdHw0SSFJFAIQgEBGBBC2MjImVYHA3ASmDtwQtua2KPlBAAIQgAAEIHAoganjo0PLx/kQgAAEciOAsJWbRakPBGYkMHXghrA1ozHJCgIQgAAEIACBIASmjo+CFJJEIAABCGREAGFrQmP+5S9/cVdXV+7LL790m83GvX792v3iF7/YvtTgDXn99Kc/3Z2rtPRS2t99992ENSBpCLQTmDpwQ9hq58+vEIAABCAAAQjER2Dq+Ci+GlMiCEAAAssSQNgKxP/Pf/6z++abb7aCk8Srn/zkJzvhykSpX//619vfJXRJlPJfOt/f/N/02dL2BTJfGHv58qV7+/btVkRD7PJJ8nlKAlMHbghbU1qPtCEAAQhAAAIQmILA1PHRFGUmTQhAAAIpE0DYGmk9jcaS2CSxSsKViUwStSQ+6bc5BCYbFWaCl5VFwppGiElEq4pmI6vMaRB4QmDqwA1h6wlydkAAAhCAAAQgEDmBqeOjyKtP8SAAAQjMTgBhawByiUhfffXVVjDyhSyJR3OIWH2LKiFL5dQILhO69C4RLqZy9q0Px8VLYOrADWErXttTMghAAAIQgAAE6glMHR/V58peCEAAAuUSQNjqYXtNBZRIpEZKI6H0WSOyJHSlsEnM0oguE7k0bVFiXCrlT4FxqWWcOnBD2CrVs6g3BCAAAQhAIF0CU8dH6ZKh5BCAAASmIYCw1cBVoo/EHxODNK1Po6BS3yRyaeSWrQEmkY6piqlbdbnyTx24IWwtZ1tyhgAEIAABCEBgHIGp46NxpeIsCEAAAvkSQNiq2FaClkY3SfjRSyJQrsKPhDqN3lLjq7XBNDKNDQJDCEwduCFsDbEGx0IAAhCAAAQgEAOBqeOjGOpIGSAAAQjERABhy7OGL2jpcylT9SRoSdgygStXIc8zNR8DEZg6cEPYCmQokoEABCAAAQhAYDYCU8dHs1WEjCAAAQgkQgBhy7ntelmacqgRWiUJWlUf9QUujVQrRdircuB7fwJTB24IW/1twZEQgAAEIAABCMRBYOr4KI5aUgoIQAAC8RAoWtiScKO1s9T4aK0phJx7x9QURZuKqUXy2SDQRIDArYkM+yEAAQhAAAIQKJUA8VGplqfeEIDAUgSKFbYk2Ei80Ugt1pZ66n4S+TRqC9HvKRv27AkQuO1Z8AkCEIAABCAAAQiIAPERfgABCEBgXgJFClsm2DDdrtvZJPpJANQi83qiIhsEfAIEbj4NPkMAAhCAAAQgAAGELXwAAhCAwNwEihK2NApJi6RLqNF0O7Z+BMRNwpa4MTWxH7NSjkLYKsXS1BMCEIAABCAAgb4EiI/6kuI4CEAAAmEIFCNsmTijqYeMPBrnPFqHTA01ouA4fjmeReCWo1WpU+4E1AZqNO6XX365fWCKHpqi67tu/HS9NNJZx+ultkDp0Kbm7jHh6id/qfqe1jrt8jv9Xud7PMU5nG1IKSwB4qOwPEkNAhCAQBeBIoQtBd02nU4CF9t4AuoIIW6N55fbmQRuuVmU+uREQG2fxCeJUBIGdGNH/1l7aSSuCQq+aGDCVd27jrNzqunpu37TeRrdi+iQkzcNq4v5nvmLYjDzO737vlfnZ3X7fPG16ntKTwIZvjfMThw9HQH5ORsEIAABCMxHIPurro3UUtCDqBXGsdRRUoPNyK0wPFNOhcAtZetR9twISEzQzQeJSyYk6N3EJhthFbotlIBlo3BMyNC1QS8JEBIcVC6Ertw8bl8f+Z5EJfma2T4G35MYJr/H9/a24tM8BIiP5uFMLhCAAASMQNbCFqKWmTn8u43cYs2t8GxTSpHALSVrUdYcCegarM67CVkSkiQuxdCZt1E7Kp+NsLHy6Te2dAkovqr6nm4gyvdiGK1nIm/dfwPfS9fvUio58VFK1qKsEIBADgSyFrYsoOFO3TSuanwJEqfhm0KqBG4pWIky5kZAo6Ps+qv/oEZExSBkdXE2sUECiMqNyNVFLL7fq2JWSr6nEWVV3yM+jM/HcikR8VEulqQeEIBAKgSyFbZsRJE6AGzTEVCQqBdbmQQI3Mq0O7Wen4BGyKhds5FPmvIlMSv0tMK5aiZBQfUxoUHvqg9bfATkYxKFzPdMzErd96w+9l+KjzwlSpkA8VHK1qPsEIBAigSyFLYUMGtahgIxtmkJwHpavrGnTuAWu4UoX+oEdI3V9C61aXrps/bltGkkl0ag6XoisUFtd6qiSU52kZ+ZXSymys33bPSj+Z7EVnwvJy9eri7ER8uxJ2cIQKBMAlkKW7qbqOCYbR4CNjout4B3Hnpp50Lglrb9KH28BNS5lohlHe6UR2f1paw6S9QyEY+bU33JhT3OF7QUS5Uwkk519n1PcQ0bBA4hQHx0CD3OhQAEIDCcQHbClu6+qTFZcgri3dW5O9YTodav3MXN3XCr3H7tzo7+lzs+f+9az767dpebM3eytse3r93R6bm7uLoZnueBZ2gaie7sspVFgMCtLHtT23kIWAe7FFGhStUXuMRA6zqxTU+gyr0EQatKtcoA36sS4ntfAsRHfUlxHAQgAIEwBLITtrRWgl7LbT+6q/NPt+LaavXcnV58P6wodx/cxatjt1qt24Wt2z+585NnD/mYsGXvn7izyx+G5Xvg0SYoMmrrQJCJnU7glpjBKG7UBHQdlZBj076iLuwMhZPIYFPh1K7TvkwH3fc9Riu5ra/he9P5WwkpEx+VYGXqCAEIxEQgK2FLQa8akiVHa7mbC3e6Xrvj//2/3T9qJNXxubtqHXblucPte7c5laglgapN2PreXZw+d6vVM3dy9kd3dfuQgUZwfXHqjnT+0Rt3afu9LKb8qA4Zo7amJBxf2gRu8dmEEqVHQAKOTTvUVHoEnMc21BpcGhUswQ/R5TGbQ79VfU/f2fYEFE+a75U4gm1Pgk9DCRAfDSXG8RCAAAQOI5CVsKWOgcSV5bY7d3Pxyq23I7X++0F8+tSdX/3YUaQ7d3u1cadHa28EVrOwtZvqWCuameg1YrRYRym7flbQp44HWzkECNzKsTU1nYaAL9ow7amdsaZo6poj8Q8Bpp1Vn1/lezZCEN9rJ+YLz/heOyt+vSdAfIQnQAACEJiXQFbClgI0BR/LbQ+i0nZtrf/3IHKt3dHZ1+62sVD+1MVn7uTNO3fxuaYyNglbdvz8wlVjFR5+ULCnhpwAuYtUPr8TuOVjS2oyPwFdK3UzQCNCGKXVj7/EGDFTe6/PbOMI2I0oTfFEqOnHUKO37P+K7/VjVvJRxEclW5+6QwACSxDIRtiyaYhLBht3HzbuxXrl1qcXbrt8+3ZaYtci8vdC1frkjXu3XfTdhKsGYevuvTs/1siuPiPB5ncpddCWFRfnr3PJORK4lWx96n4IAQkL+v8wfXs4RQkxNj1syTZ/eMnjOMOeZExbPdwe+N5wZqWeQXxUquWpNwQgsBSBbIQt3flethExQcofSTVmWqCl0yBsPRLLfnTXlxt3tltEXmtubdzl9cel/Gn7uOxlF+9frOpFZrzsf65I5FQ6AwI2rYn1og4zpi3uzdpH/TnCrD+rpiMlbomjRm8hrDZRYj/xET4AAQhAYF4C2QhbWntjUUHFRlI9WvfK1twasoh8T2Hr6NR9fnbi1tuF5u1piA/v6xfu/P12zNi83uTcdhoijfns2BfLEFsvhp6MEyVg60QhxoQxoAk1TIHv5mms8L1uVn2OQNzqQ6m8YzRl1a7z5dWeGkMAAhBYjkA2wpYCDC0ou9R2v6B7zSgrG2HVe+pgu7C1Wzh+K2hVnorobtzV5tViT0UUezXoiB1LeeH8+WLr+ZmTY7oEbPohwkJYGyIwdPPE97oZjTkC3xtDLc9ztCSKbrArLtIagHqXwMUadnnam1pBAALxEchG2FJjogZkmc2mHNate7UXqtoXkbeS748/Pn/v7my3ve+EsqZF6X9wl2efuNX2yYzf21mzvWtYvhpzFkKeDfmiGSFsLYqfzBMiYKL/cu1UQrBGFFU3tjQ1jE7kU3i2VANTX5+yCbFH671JyMD3QtBMLw3Z3aaXqy+ia702/d/sQRfczEjPrpQYAhBIjwDCVgib7cSmypTA6jTB7dMSn0hVlRL0FbbqRDQltZ/+uFvEvpLD1F8ldljDPnVepL8sAYStZfmTexoE1PFRB2fJUcVpkBpfSjGWwLDokgTjiz/ZmbrJJN/TyCK2aQjI9yRs4XvT8I05VQlW+n/pVSdeNYleMdeJskEAAhBIlQDC1sGW2wtJ6uS3v/yF5Zsy7hC2bC2vxqmN+/IsIWzZiC015mz5E5C/awQKC+jmb2tqOJ6ABC1GdIzn1/dMa38YFbcnJrFFgh9t8p7JFJ/M9xgVNwXd+NLUzVv9rywG6vp/+dMUJTJ3HR9fjSkRBCAAgfgJZCNsaRjwInfLTGha/9xtPjQ9jdDEqj6LyNuxNet1bf3Jpj02iWQmbDWdP61T2nSbaXMh9aUJKEhTcKagztaS0H+QYG1py5B/bARsGhijWOexjEQtjZ5gOrzbjiDRNZobD/P6Hu3gPLyXyEXXFd2o0P9K70OvM2oPFDPpGoUAv4QFyRMCEMiZQDbClhoI3T2Ze7PF3DtHR+2mKzZNIbSSdwlbJlyt3PrFxn14MrPRhK+ufCy/sO82LDtsqqQWCwEF7NZxVHBmnXXZ3YI17ljHYi3KEQMB/S+YBjavJWDutjcZxEE3HNjmI4Dvzcd6zpyaYp+xZfDjKJ7oOpYi50EAAhB4TCAbYWuZkUImQjWNnvJhm+DUtOi7HWtptoy4uv3anR2t3Wr1zJ28+cpdm7h1d+0uvzjdPhWxXvSyPKZ7X2zk3HRVIuUHAl13Gi3ws1FcJnoBEAKlEpDgq//D0Lv6QXnZqOLRDxR5eCDJ8bm7sramroC3V+7id2fuZG1T8vXU3n9zF1c3dUdPus/igUW5T1rD7sRt4epFRw8d6nvbWOd/udoH6ewQfHTXl//HnZ8eb/9r+r+tT87c7y6u3O3umPk+RPGfn6+6ReQ01Y07/Tdt5LtmnJR8vSrCkagkBCAwOYFshC01EApoZr3zYQJTV8D/YEYb3bVqXUS+h7ClJeKv37lXW3HLOhHe+9Fn7uK6aVrktD6lUXMMr56W8dypaxqLgi79v/qsDaHg7JCh+nPXj/wgMBWBGEZv7NoddfhPL9wwmemju774bHuzZNXWzllbWLfO5PqFO38/LNcQ9lBbVPJIOfne0m3xQb5398FdvJJY1XKTz9249+cv3LrO71Zrd/Tq3f7GXwin6plGDP/7nkXlsBYCfuwz5VILEuItxpoyn5aq8hMEIACBLAhkI2zJGgpk5xt2b1MC24Kuio/0unvZT9japqw75Of3I7QkOqxWx+70/MJd3bbdVq+UKeBXCRoqR3U9D0buBIQ8Y1LVu4lVu3YVRXbXf1I+oQ7WoiMHugrL7xAITED/F/n+snfhH0YKH/+TO/vH527V+NCRusrfuKvNq3tRS+1Lo7D1MKJLQsLpxmt/vPOP3rjLmdslGzlT4nVHN/iS9r3b926zG4HVFGPdudvLN/f+uT5xZ++8EVq70etN59b5e7h9NlouXIqkNCeBQ2OfsWWdamTY2PJwHgQgAIHUCGQlbBFMLOt+Ei90p9LfbEqIgmwTHhV0l9jZ8LnE/tn+S7Kngq1DNkur6XHYh6TNuRCIlYBusuiat+j2sLbj+vSd+5+LV27dOvrFK+kjYeFhNHCTsGXrR9aORLYp+H2m63v5B/ioNkbtzqHXrwBFmT0JjVTTqNlFt1G+d+durzbu9NFo9CZxynzrmXux+dY9vZ338HutX05Lxnxv1hkE01apmNQVxypWUeyzhP3kOyqDxczcGC7G9agoBCAQgEBWwpaNGCoxkA3gCwcnoUBADXJ1U0Otxlm/2XBra7TV+VPwsOyohmqJy/0uO8mO9sQe2S7EpnRka9ldPkCwFoIqacRMQP8jibrLbTaq+EFUMgGqY/TUo+ljJ79y/3XxK3fcNmLL0q0VEEx8aBInpqUjcafE6Yi6fqfnezZaXUKq1g995y4+/7R5KqL5XeMoxIr/T+tqT1JXO1ei7z0BkciOauyzdLEVE7Okw9JWIH8IQCA1AlkJW4KvQEIdCrZ5CUhMlGjRV6CqE7pkN9lPafVNZ95a5pubeJvoqGBqKv5+PrL1VPnkaylqlgIB+bWuh4sKuHffus2LZ26/pqOJTO2jp7bClje1ayd0NY3Ysin2rcJWe55T2VTiTmnxgPne0KnjQW0wyvfuha31yRv3bvvAARO6GkRRE7Zq/U61MWGr4fygFX6amG7kLT5i82mx2FMhEHtMojaEJR0qRuMrBCAAgQYC2QlbFtQxaqvB4hPs1mgcE6XGJq8gXJ0QiSq626xOoaWp/YsG6WMrlcB5sp0CcPFW8DRXR1yj9GRfGxmWACqKCIHeBPQ/0n9qyc0Eqf2C8dbRH7aIvKXTvMbWR/dh8/PtNMfHa2ztF55f6im9Mdhhbh/QtTUP3wslbA3z91D2KtH3QrGbI53URpErDla8pLiJ/s0cHkIeEIBAigSWjbwnIqYpT2oA1HCxTU9Awkho3r7QpYZcgbrykPCF0BXGpgqOxFSvpQIl8x3ZeIn1LMKQJBUIPCaga5R8ernNRIFP3fnVj/ti2CiXxulb+0PtU7ewpSNv3NW7N+5k7T2dd/tAk+qC8pbqPO+KAdR2zCXYz1Or9lx0TdXo2+W2UL5n6TSNuOoYgWijxkY9DfRwenaTlZtyh7MMnUIMsc+YOqUmxo2pI+dAAAIQOIRAlsKWLv7qVEgEYZuWgN2VVEduyk1BooIRm2pqQpcCeAXyJXVcDuUsVja0XSLw0gKw8pddZVPZk47AoRbm/KUJLC4u2PTAJ9MHTQxoEguekusjbN1df+2+2D3FriJuHb1ym+3Usqdpz7EHYWsOyl4ewXyvS9jynop4dOq+uLzeLSBf9cf9qEWvnDN8LM33ZkB6UBZ+7KNr9NKxz9jKVKdPplqPsfXnPAhAAAJNBLIUtlRZE1yWGonSBDyn/WpMlxIQTeiSMGMijQkjCF31XiZmvoCk7zFtErRsna8YBLeY2FCWtAgsK2zZlMN68WonVHUsIm/Ed8c/Eckejrj92p1tn2J37E6/+Npd7x5P99FdX/7m/gl365+7zYePluSs76WJC/n4XpewJTe6ce/PX7j1dnRgVVD9J/e78/9v+xvC1qx/uegyU6yjG926Fug9tthnLDCWdBhLjvMgAIFcCWQrbMlgCvDUkDECZBr3lQghYSuGu0Uqgxr5qtAl0Uv79FsM5ZzGEu2pqt76L2jKoewV++g2idEqp8o79UjAdnL8CoFxBJYVF2xUVqWj/6Tz329B93Zhy0S0pnWMun4fx3fIWQhbQ2gdemxI3+sjbKm8N+7q4vxeQN36+DN3crZxl9c/upuLV9u1347P3+9Gcx1awyHnl+Z7Q9jMcWxqsc9YJn58x5IOYylyHgQgkAOBrIUtGUgjVNRBRtwK666xc1VAIwHHOpgKMPXyha5c7tq1WTbVO3qlBKRttuO3dAnYdWeRGuzW0eoStprEqMelbhe2TMhoEcmsPI1Pr3ucX+hvpYkL+fheX2GryWPs/BbfbDo10P7SfC8QtiDJlHaDTDFTzCPygxiVRCAAAQh0EMhe2NLFXmIG4laHJwz42RrP1MTCOqFLI4NUHwVBOQld/rQ+1U//gxS3XKcQpGgLytyfgARldWrn36wz/8y92HzbOEplJ1b1WER+d2ztVMS4hS1dB2WHnK7tXT613IMLQvuepVc/pbaLg7O1vnr4eGdaIw6w5TBSbXtHVDmKU/zYp8QlDeR3LOkQhStSCAhAYAECS0Tes1cTcSsccokkEglzWLtMAZA6AVpzQXVSB8iELu3X76lt8nUTHnNaiF3Bmq2lphEJdBZS88yyyruYoGKd+c7RUSZIdYsG7cKWTTVsSme/wPcSUWB0YQAAIABJREFU6xwtJzAu5++LCSrBfa9L2DIfbhiRZSMFawXZ6e2jGElxBds8BHKNfcbSK23E2lhOnAcBCORFoAhhSyZTo2cCRg6izNxuKH65j3zzhS4JXBK6FJjKb1IQulRGlVdlz9XHrbOgeuZax7n/2+Q3DQFdP+b2UROhukUkE6RWbtWxiLyluWoSCPzF488v3NWtrR5/526vNg9rH33izi5/mAZ0S6oasSGBv7RNvjf3WjvmJ+F8r0vY8n3YfyqiHlqwcWcnz9xqtYzfyd90g0mxA9v0BHSzy2Kfuf1++tqNz0Fxu9jYTVuJ3mwQgAAEciZQjLBlRrTRLLrYs/UjIMFHYoleKY5i6lfLp0dp+oo6pvIZX+hSR0n+E0uQoHKofArsVC4FMzlvqp86rArWZItY7JAzc+o2nIA6tbp2zLf94C7PPnGrvlOvbITNqmHEy0PBTbBoFLbcnbt9/4U7WTet6fXMnZz/yd3OB2KXk66LJbb1tpbkDsTkH6bwvS5hyzl398FdvDretgVqDx6/lvM74Zbv6WYT23QEqrHPdDmlnTJLOqRtP0oPAQj0J1CcsCU0NupDwV9Ja2/0d4v9keoUmICQu2Cyr3X9JxO6JKrYtDhjs4TQpfJI2FEZ1IkuzZf9+ktAKK3+9V7K3lgIWDszW3kGT70y4aB9EfluYeu+hnfXl+7356fuaCcwrN3R6efu95fXjWt9TcnGpoOWdDPGeNroXfs++fskvmf+2TTN9aFWd9fu8vefe09FXNbvVCoJLmqXaZOm8Tza/nFc5ZcWu5ZwE3QcJc6CAARSJlCksCWDKdjVBV6jXLir9tSFjY+CM/g85aM9Evo07L0qdMmvtE+/TSEGKk0THJVX6SOWuGtb75/sXZaA/qe6fs49HXHZWseTu8RuXR9L3NTxx/eWs7x8r8QpsFMT1zWV0dqHUzbhmyUdDmdJChCAQFwEihW2zAwIBEbi/t0XTRSYlXi3+zGR/t/ETiKLfMpGUqlz4Qtdh97BtVEgBCRP7SLu4qIpIKyz8ZQPe+YnoA6u/JFtXgKIivdrPCGuzOt3yg1RcRrmxD5huSIShuVJahCAQBwEihe2ZAZ/WHOJU7rMFbmLYyTCvdcJXeroqsOrQK2v0KV0JJBJKNMdSwUlbE8JiIvYihPC7FM+7JmXAJ3ceXlbbgiK++lwajvY5iOA74Vl7cc+unlF7BOWr9//ke/2jUnDloLUIAABCIQhgLDlcVQDaiNtdIEvYbSSggQJWhJbNNqFwMFziAk+yqfEWwKqeEuAMaFL+6s+pyBDvmhCDUFHP6OIo/2XEQL7MeOoaQhYR5cO2TR8q6nqv6/rJVNA70dtMWKw6iHTfVcMKd9jxPDhjBXrKE4Sz5JvOB9Osl8K8lm/H9DvLI6CAAQgEBcBhK0aeyggtk6x3nMMUhQ0qMMvcQVBq8YJZtrlC10KKhTEyR6fffaZ++1vf7v9rP3cdR9nEP2XLViTcMgGgbkJSNDSf1rXW7bpCWhkq9pttvvR6Na+w2N6Avje4Yx1vfSXFSD2OZzpkBR89jn2fYaw4FgIQCA9AghbLTZTg2qjZdQ5VsekOqKm5fToflLA4It2qpM6+4wkiMdUEhz/9V//1f31X/+1e/78+TbAi6d0aZaEQDlNu+VUanUQGMkxvUWtU5ZyOx2aktp4+R4CQWiyj9OzG4WMqn7MZcg3bkQNoTXdsYqZrO+jmwRcT6djTcoQgEBYAghbPXgqUFFwKCFIAaItBp7Cxd7ELBvSrbu3arAIcnsYfuZD5E82UlA2QnAMawD9j+1/IM50QMLyJbV2AvpP6/qbQrvRXpM4f1WnWO2z3tkeEzDf45r3mEuob+Z7jHAZR1TxqMU+EgiJfcZxDH0WdglNlPQgAIGpCSBsDSSsTokaXlvI24QiBTYxdFgUECi4aiojAcNAg89wuGyijoc6Zdwdmx64gjX7/7Km3PS8yWFPQH6nF9fhPZMQn9T2WlscIr3c0pC/4XvTWFW+p7ZbMRfbMAJJxD5379358XprY9m5+XXsTs//j7u8/tgI4e760m3OTtx6l87aHZ1+7n5/ee3uGs9a/gf1b1jSYXk7UAIIQKCbAMJWN6PGI3T3Uxd8jQJRUK0GT+8SJ9Rh1m9TjoxS/kpfeUkYsc66ymFlmDL/RjD80JuARgLKZxQ0yF/Y5iMg3mKvF+zn415yTggM4a1vopbaYbZmAvI9XesQVpsZDf3FfE/xF9swAjZtWLFP1CPdegtbD6LX+oU7f39TgXHnbt9/4U7WTcLYM3dy/id3Wzkrpq+6fshm6l/IZvQtYrIOZYEABIwAwpaRCPBuQpfu3ElYUhBpd3f0WftMcFIDoZeEDTUQdS819nac3hW463xfwFL6+q7AytIKUBWSmJiA7G13wGRbBQ1s8xMQd/1f7X9EsDa/DUrLUT6nazYCw+GWN2EBlv1Ywqsfpz5HGUtErT609scorvVjn/0vkX7aCVvP3enF9w2FvHO3V390ZyfPtrHE+sXGffCHYN1+7c6ONOrrmTs5+6O7un348e7aXX5x6o62I7g+dedXPzakH89u9XNsSQe96zsbBCAAgVgIIGxNbAl1YtRZ9kUqE6hM6PIFMBPCrKNtx+hdHXBfDKNBmdh4EyQvm8mWsi9BwQSARybp20UdFf5bI0FyWi8CJm6pg6cOMttwAmpT1Xbq/yqebP0IyN/kdxID8b1+zKpHaYSv2nBErSqZ5u/JtrG9hK2Het9cuNPtqCxfpLpzNxevttMP16cXrjqWy7kf3OXZJ/eCWO3vzUyX/EX9Gl1D9D/g5uySliBvCEDAJ4Cw5dPgMwQmIqCOlxp/EyyjHBm0C+Cahsvb/u61JKoY7z5s3AsFfMfn7sq/k1k9cOHvsot/N5kO88IGyTh7E7ckzkikYetPwK6lCAv9mflH+r4XZVvkFzayzzbCV+9s3QTka8ZMN/WS87ddXNQ2YuuBQ+2x37uL0+dutWo6fy98xR4f1VnbltNQO8aSDnWE2AcBCMxJAGFrTtrkVSSBZNZy2gVlJmB1vNeuJVFj4rtv3ebF/RD9VAI3dZwVqEnkQnSosSm7ghGQOCPBm45yN1J1km3EK52obl5tR4il+Z6ud2ztBGzEER34dk7+r1mIHru4qEmY8mpcO2LL+732417Yqh/RVXtSVDuTFy+joklhIACBQwggbB1Cj3Mh0EJAdyZtqLY6rWr8o956BXAda0k8qeBH92Hz8/1TgCIfseUX3+/4qTPNtB2fDp9DErBpdUwPa6ZqjJi+2cxozC924wXfa6ZnAg2Mmhn5v/ixj0TT6GMfv/DVz73ioo/u+nLTvMZWNc1H3390V+efutVq7Y7P30f9dMRHxa75YuKvTdNlSYcaSOyCAAQmJYCwNSleEi+RgBpzuxMuQSSZxr1XAPdg0Z53JndTEO3x1gkJW+a7ErRslIjsmnSQbpXiPToCfqcgCSF8JoJwmR60zzh5ISIgLp8L/8lusOKV3cLiu7ioYwS7xThHn7mL64/dsOwIW1h+/cpd3ES8ToOVt8e7bkL4Szr0OIVDIAABCAQhgLAVBCOJQMBtBQ9/Clt5a0lUvGAXsP3c/e7dr9yxAr8EhS2rlUY2WLCmO/hsEJiCgI2g0ZSnkv1MArKup1GvSziFAyyYpu97+lzqJt+TkCXfY7Rutxf4/1W1kcnFPm1V7CtsHZ26881/7p942Jam/Xb3wV28Ot4+LfHF5tukR2tZlfx3Px5mSQefDJ8hAIGpCCBsTUWWdIsi4N+hSrYzugvgQqwlYU/6eeYUsP2/q/PkhS05tAXwtv5WVgF8Uf/YuCtb9bOSRAa/7qxnNL+fGn+JOhIpSvW90uo+1tPsKZvZCvGNcZGmH/7GnR6t3Wp94s7eXbnbQRBv3PvzF269euZOzv808NxBGS16sK4n/gyGRQtD5hCAQPYEELayNzEVnJJAVtPUGgM4n2CftSTu3O3lG3e0Wrn1i437cOfcXSbClpHwp1wkNd3UKsB7EgTkZ+oUmJCa8zQx1VWjZFRXvXKuawrOZ75nApdu2KiT2rWpTexzXFc6c/5erWtJYt6hnH1hS//Z7LaOuGi/3ML9Tbx+kwlN1Fq7o1fv3HW/k5JEq/+WTU9VrMQGAQhAYEoCCFtT0iXtbAlU70IpuEt+2wVwB64l4U1B3Hy4X2siN2HLbJ3VIrlWKd6jI6DrjU3rkNAgsSuX0YISEWwNOxslk5owEp3DBCyQOqbmexIc23xPtpR/puCb8rE63wuIrqikzEf0H85q2tkuLmoaye4/IOcTd3b5Q7vdb9+7zen99MOTN19lK2r5bZZ8IoVrQrvh+BUCEEiBAMJWClaijFER0J1rG0GRZwDXIWy1rSXRsGZErsKWOaY6SDbSRJ/ZIDAVgWpnXKOcUhPWdd20kWi5CXVT2X3pdE0Isif9qrPq+5780my5dFnb8sf32ugc9ps/8i2bkcydwpZz7u5bt3nxbOv/zeuI6onSm/upi6tjd7p5n+30Q10LdH1QTJTs0hyH/RU4GwIQWIgAwtZC4Mk2PQIK2qyx1t3J7EYVNAZwfdeS2N+5tCmIZuXchS3V0+5QqnOnzl92/mHG5D0KAroeqdNgQoONplGnQr/FtKk8KpempKic+o/8wz/8w3Yf/5OYLNWvLFXf+5u/+ZutTX/5y19Gd92T6Kv/iU2Hku/ps/wR3+tn76FHaXSOjcKU+Jk058a46DGV9imJd+72/RfuZL3arsf15uvr7BaKFw3918zuunGRtN0fm5dvEIBAIgQQthIxFMVcnoCCeetEliVs3bNvD9yc2/1+9MZd3j5eNKIUYUtBvDpOCu4I6pb/z5ZSAhMafOFIIrw6F+rUzzkNRH6v/HSNrCuPBIX/+I//2Apc/EfS99A//OEP22vez372s+27Cfsx+p5Ga+Fz8/mc/us2kjnZkTs9hS3n7IE5Eq9euYubfQy0i41WPaYqzmeeYDnpP6X/u8U+qY0gDgaChCAAgcUJIGwtbgIKkBoBBWgK1tRxVOCWzdYZwO1HZK2eBGg/uqvzT3cdGwU4ra/jc3e1j/uSR5itTyRvmTIr4I9S0XXK/ov6LNFVAqyEJ3X0JULp1bfDLxHNztH1T+moU6N0bTSW8tNNAO3XMdWOjvLSsTqXLV0Csq1s7beD8g1dDyVqTul7yqOP78lf2ZYjoP+67GTXBPlHUltnXOTVxtYXXa3d0dnXD1MNPcGrKy6qCGJeytF+lG0tHlZ7wgYBCEBgSQIIW0vSJ+9kCShY80fnJBes1ZHvE8A1riVRprAlu2c9iq/OT9iXJAH5qglREh0kRPnCg4lfQ95NKJOApQ6OOjZVEasJlnWI+gpqTemwfxkCJlb4olZdSWTfOt/zRdAhPmfH6rorHx7je3XlZN+0BCQw6roj++k9GcGxT1y0Q3fnbi5eufVWwHoYnXVz4U41BbFL1NLvCQlb+k/r+m83KLiO75yADxCAwIIEELYWhE/W6RNQcKbgWkGLAuykG/eeAdx+WH3/x1vnNhUx2SA9/b8cNZiIgHxanZWuV6hrnNKxTtFEVSLZiQiorVOb1yVq9c1+bt/rWy6OC0/ABBH5j8TRUNeT8CUlxToC1ZhX39kgAAEIxEIAYSsWS1COpAlopIJ/9yrJyvQUttrWkmiqdy7CloJwG6mgEQMK0tkgAIFxBBi1NY7bkmeFFrWWrAt5L0eA6fvLsR+Ts2Ifm6VA7DOGIOdAAAJzEEDYmoMyeRRDwDpqErmSW2+gt7DlnKtdS6LZzDkIWxqdoBEmeikoZ4MABA4jwKitw/jNfTai1tzE887PF0s08p0bRXHa2499Qo3SjLOmlAoCEEidAMJW6hak/NERULBmHQAFa8kM1R4ibLmatSRaLJGysKVg26ab6o6l7MsGAQiEIWA3A/hfheE5VSrWptGxnYpwuelWp7dxLYjDFxT7sIZoHLagFBCAQD8CCFv9OHEUBAYTQBAZjCyqExRsW2cuKYEyKooUBgLtBNSJZa2tdkZL/6rroGzEiJqlLZF3/lks6ZCBiRT72EL/xD4ZGJQqQKAgAghbBRmbqi5DQHe4bf0tprAtY4OhudookiSnlA6tLMdDYGECtt4OIzUWNkRN9iZq9X3aZU0S7ILAIAK0v4NwBTtY11+fPUJ2MLQkBAEIzEQAYWsm0GRTNgELGPQkIBbejNcXuGMcr20oWd4EJCJLRGGLg4DaLI3W0EgtRK04bFJSKeR/jJiez+LcgJ2PNTlBAALTEUDYmo4tKUPgCQF/iLeGeus72/IE1HGzdbQUTCuoZoMABOYjoI6VhH+uifMxb8pJ1z/dgEHUaiLE/rkIsKTDtKSJfablS+oQgMC8BBC25uV9UG5q4DWiREOFtYi1OuJ2R1Udgr4vBat2rjrxSk+dCoYdH2SeQSeLNYtyDkI2ycHqwNkjrPWf4D8wCWYShUAvAoza6oVp0oMQtSbFS+IjCTCiaCS4htP0P/dHxDEqswEUuyEAgaQIIGxFai51sCU4aVSPgn0TrUyU0n79rpfELh3vv/xq+fvts52rhk0dej8Pfbb0dbwaQLZpCPz7v/+7e/78+Za/Aje2+QjYuj7yd9jPx52cINBEQP9DRm010Zl+P6LW9IzJYTwB+adiV10jWNJhPEcxVF9CsY/6D2wQgAAEciGAsBWJJXW3RI2NRCYTsdRwS3hSB3wugUn5qHOhUSw2osiCCO3T72yHE/Dvlv3Lv/wLo4YOR9o7BfmwCbn6zyHc9kbHgRCYnID+m2r32OYlgKg1L29yG0+AJR3GsbPYR6IWsc84hpwFAQjETQBha0H7qJFRAG+dbAlJEo90ByWmzrbKqUbQhC41iio3d3qGO4/sKpZ2t8wfKaRgzYRN8WWtmeF8284gGG6jw28QiIMAo7bmt4OJWmrjY4o95idBjikRUGxqcSlCTbPliC2b2fALBCCQFwGErZntqQZG4pUvZmlEVioihoJedTw0VVEjuUzkYn5+uyP5gpaYyeZNmwRD+YeOU7DGdhgBY28jDxUMs0EAAvESYNTWfLbR9VHiAKLWfMzJKSwBlhWo56n/tvobin1YQ7SeEXshAIG8CCBszWRPdaZNDFLQnpKY1YRIjabqYXfM1HD6I5Cazittv5hIpDKhStz6bP7ILkbH9SH29BiffZuY+PRM9kAAAksR0P9WnbFUbvgsxenQfHVDSvEIotahJDl/aQKIOI8t4Mc++swGAQhAoAQCCFsTW1kNigk/ErZyHS2iAFnT59QZUaBMQ+q2DMRiqKDlu6SCNeMq4ZCRcT6d5s/6n9m0Tt2x7CsmNqfILxCAwJwEdO3UtY9tGgJqS9Q2IWpNw5dUlyFQnXZXWtuv2Mf6HEzPXMYHyRUCEFiOAMLWROz9xqWk9ZIUVJgQU6rAJdur7hL5QtkeoabfH9X3PwlbjPjox42jIBAbAd0cYdTWNFZB1JqGK6nGQ6C0JR0U69isEL0T+8Tji5QEAhCYjwDCVmDWakxspEjJjYs4mMBVykgjX3wKJWhV3VOdPRsFxtS6x3SYuvmYB98gkDoBjTzQtZQtHAFErXAsSSl+ArnHBRqR5tdRcSgbBCAAgVIJIGwFtLw1LgrGaVzuwSqINqEv1ylhfh3nEPEskLFpn6X7Wml3ZgNeskgKAlET0LVN17nSr3GhjISoFYok6aREQDGTf6M1l9FM3OhMyQspKwQgMAcBhK0AlP1RWhK32J4SUANs63kouM5hq45Km7vzpfxLHnruC4oKWktbSyOH/xB1gEAXAd0s0IvtMAImajEC7jCOnJ0uAcVoOdxo9WOfXG8Yp+tllBwCEFiSAMLWgfQ1WiQ3weZAJI2n+wKghK5UN1/QimF0noK1khYLlYDlP8I6F6E01f8D5YbAlAR0fWPU1mGEEbUO48fZeRFIdaRTdeQZsU9efkltIACBwwkgbB3AUGscKeBmtMgwiBrVZtyGnbns0QoqrOwxLowvf5TIqlfKwmGbla2OMfJvKze/QQAC4wkwams8O7UFKba342vMmRDoJuDHczHcoOwqsS11othHN9TZIAABCEDgKQGEradMeu2x+fq5Cgi9IBxwkI1001Q6BRgxbxYASTCKXVBRWf3RTHNPj5zKjqqH2MsGCvBi95mpOJAuBEoksPSoLeWvl4R1XX/0Uttlglvbu2IFO0fxgtKZa6QFolaJ/xbqPIRA7Es66Hrhxz5D6saxEIAABEojgLA1wuIKVHMeFTMCyahTbHqE7pbFKlTYCKHUBBV/2qf8Vd9T3GIPOlNkSpkhkCIBE4+mLLvaJIlBujmg/HTd12gne6mtsnKYWNX1bmnpPJsybumpw6r9SkM3e0JepxG1pvQU0s6NgAQk+3/q/7h0TJpLDJebn1AfCEAgbgIIWwPtY6LWXHdcBxYvucN9cSumwqtT4N8lWzrIGctGnSW/HmPTmfs88VZwqQ6ggk0FnWwQgEC5BHQN0PUg5LVA7Y+uM76IJTHLxCa1AyHzM+vp+qZ060Q05a/RYLqpMjbOQNQy0rxDYBgBu5mpuEn/o7k3XRtyHHU/N0fygwAEyiSAsDXA7tbRXqKxG1DM5A41cUui4dKbbKuARh0oBRepClpVjvJddZhUt9jXZ5ANVFa9+K9VLcl3CJRLQIKTXodsuv7ZDSoTznWtDz1iakwZ1RbqmqfyWTukdytfnzR1vrVffY7nGAhA4DGBpcQlYp/HduAbBCAAgaEEELZ6ElPQq2CRjnZPYAMPs7vxulu2xKb81WGSjdWpCDklZIn61OWpYE11Ux1V17GjAerSDrHPt0FOomIINqQBAQi47SgnXb90rRiy6XhfzNKIKLXlsV/ndY1Wm2hTpCT269rYdO02UYs4ZYh3cCwE6glUpwNOdaNT1yf7j+sm5FT51NeSvRCAAATyIYCw1cOWatwUUCowZpuOgAJ4dVqagvYpcvbFFHV2Yu/ohGDg1zkGAUnMfcGtBBuEsCNpQKBEAn1HbalzqDbFRj7pPAk+h3Yadb6uoX1fh+ZnNtZ10Re51BGuCli6nlf32fm8QwAC4wjoxrauI+oHSHgKtek/rbhTcW8p8WcodqQDAQhAoI4AwlYdlco+BcQKIkMFqJXk+eoREGsFEFNvfkChPNVJKW1TB8iCNXWYltj8KZIl2mAJ5uQJgZQJ6DrRNmpL13YJPOqEWkdU+4Zsurmi66OuT+pwqo1Qnk0vXUet7Wo6RmXRMUpP6Sr9sTdxdJ7dDLA6Ep8MsTDHQmA4AT9ekdg1dtN/1U+L2GcsSc6DAAQg8JgAwtZjHk++2RREGp4naCbZoQ6IBepTZKD0rUNQqqDlc7UAS50xdc7m8vOp7oD6deMzBCCQJwFdw3X99jddyyRo2bVMwlEfsUfH6Hqkc5WmCVMmRGm/OqG6Nuo1VCTT8Xau0rF8lL7lpXy1X+XoU2art461DrK1m0POt3R4hwAE+hHQ/8uPIYdeD2K4odivphwFAQhAID0CCFsdNlNnX43YYtvde3d+vHar1XN3evH9iGL84C7PPnGr43N3dddw+i6PpjvSn7rzqx8bTg6/2wL1kAG6H4zIpgou2PYEFJzNMSReIw2s86j/VUgb72vDJwhAIGcCul5JFLLruLUZfa/tOt+f1qe0dF1SOhKh5rouKR+JWcrXrotWFpWvb6dZ6QxlkLN/UDcITE1A1wn7z0qU7rpm+LFPn+OnLj/pQwACEMiRAMJWi1UVNCvI7BtctiQ1+qe7q3N3/DAFYn164W4GpfTRXV985o50fpuwdXPhTtdNopb2zytsKUCwu8+DqltzMAF/DZSWXQrWpljEVHbw73KOnYLTUnR+ggAECiKg68nf/u3f7qZTS9hp23QN8sUsiWA2SqrtvLl/s9FjKp/iD12PVW6Vv2vTMaqTiWNLxi5dZeV3CORAoGsEFrFPDlamDhCAQCoEELZaLKWActHRWu57d3H63K2O/8md/ePzgQLTjbvavLoXtTqErZ141iZ+tXCa4ie7+zw2bQUTloZEMnUM2PoTEC9x08tGRfQ/+/GRllbf0RSPz+YbBCAAgccEdH3/53/+562A8/d///etN58k1puoruuZhJ9UhHWVU+VVuSVWqR6qT9em8xS/6Dzavi5a/A6BwwhYvGlCtP1HLQZV7CPBmg0CEIAABKYlgLDVwFeBoRqpRQPgh5FU69N37n8uXrn1au2Oz9+7phmFu6rcvneb0+Nt+VWH7atRtLpzN0PS3mUy7QcFCir3mGDAv4OmwEJpsQ0nIG7+3X8L1vqmpOMV0KlzhR36UuM4CECgjYAv2vzyl7/cTgeqO17XH5sqpPdDBfq6PObcp/L79elzPdZ1V+2ozqMdnNNa5FUiAY2QtCUdFPf4sY/+i2wQgAAEIDAtAYStBr5qhNQpX24zwelhbS2bLnj0xl3eNktbu9FXq5Vbn/zK/dfFr+6nMjYKWz+6q/NPD1jDazpCChCGjJgzQUuBPEJKOLsoWLMOlezRNb3FP1427Do+XElJCQIQyJmAbnSos6jRSLquSKypXl98QavvCKeUmPn103W5S+CSEKhYRq9Fb9SlBJmyQuAAAvpPKga1a5O+Ky5lgwAEIACBaQlwpW3gq4BRo1UW2+6+dZsXz9xq/cpd3EjIepiW2LGI/FbYWp+4s3dX7tY5txO6moQtWzh+feo2X1+4352duLWt6XVy5jaX190jxCaCZFPYupJX0KCOjgKHPsJLV3r8Xk9AnUp/BFb1KHUyFczJDrJHV4erej7fIQABCDQR0I0Lu8bXHaPrj67/OqaP4FOXRkr7dH31bzi0jcjSbzpWoiDX5ZSsTFlzIKD/nK5LbBCAAAQgMC0BrrQNfNUIjZkG15Dc4N0mSO0XjLcRXCu339edrKXTuHi8jQSzKYtP3p+5k/M/bUWy7tzCHqG7y7KD3fWqpl4N7JuOq57H98MISLxSB0kil/1H1OnUPr2pI9s5AAAgAElEQVT0mQ0CEIBAKAImajWtF2UjufxrUqi8Y0/Hv+Fg1+OmMpvwxzW6iRD7IRCGgC9kIWyFYUoqEIAABLoIIGzVEOoSVGpOCbzLpgdWnka4E6Eq+1ty7xK2dr+v1u7o1Tt3vZvleOdur/7ozk6eudXqE3d2+UNLLtP9pOCgeodZ9rE71XpnesV0/JtS9kdHSMySnTTCsW3UQFNa7IcABCDQRMBErSYxxsSakq8//vW4a6S58Wri2WQH9kMAAv0J+MLW8n2K/uXmSAhAAAIpE0DYqrHe4ndXbHrgk+mDNh2x5yLynVMR96PA6kd03bnbyzfbJysOGSVWg3T0Lt2B9+/SK2hXwCBBqyp4jc6EE0cTkA1s+uHoRDgRAhCAQA2BNlFLYo49+a9rpFJN0lnuspFr4tJ2k0Hilm5IcFMoSzegUhEQ8IUtFUffiVkjMAxFgAAEsiaAsFVj3mWFLROb6sWr3QirjkXkrVq745+IZHZEx7uNEtut9dVxfOCfJWBJOLFNnwkOjMZy73VB23KlIWcIQCA3AjbKoW4Ekn7TTQ8JOIgzjy0vHuLSxUYP9pC4xRT+x/z4BoEQBOpiJGLXEGRJAwIQgEAzAYStGjbLCls2Kmu1vcOjxrH+9fC0xJry+7uCCVur/tMf/fwP/VwVtg5Nj/PDEKgL2sKkTCoQgEDpBDTaSKKLxJfqJuFGv3WNSqqeV9J3fzRbk/Bnx4gjGwQgEJZAXYyEsBWWMalBAAIQqBJA2KoScW47IqjaKNUcNs0uGyHVKGjtha4+0wODCVuRjNiaBjqpDiVQ/X9Uvw9Nj+MhAAEIGAEJWhqRVZ1Op+82Uqv6m53L+z0BX7hqYmUioT8qGn4QgMDhBKoxkb4jbB3OlRQgAAEItBFA2Kqhs9yILVs0/pl7sfnW7dZxr5RxJ1b1GEW1O7Z2KqKNDmsZ/WVCW+35lYJN8LW6xtYEWZDkCAJ1QduIZDgFAhCAwCMCWieqqRNoU+yahJpHCfFlKwyaENiEQ2tYijdTEpsIsR8CwwnUxUgIW8M5cgYEIACBIQQQtmpoKcBTo9Q0hL/mlDC7bNH4ztFRJkjVr8PlF6Zd2LL1vFaufvSX/d6dj59nyM9NHZyQeZDWcAJ1QdvwVDgDAhCAwGMCEmK0uHl101pbLHhepdL9vc+oLAmGddM+u1PnCAhAoI5AXYyEsFVHin0QgAAEwhFA2GpgqQB67sdhmwhVLzL5BTXBaeVWHYvIW5r1Tz10zt1+7c6O1m61OnanX3ztrnfDxD6668vfuFP91pGHX7KQn23kHHfnQ1INk1Zd0BYmZVKBAARKJWBPQayOHrK2YPI22W4urVpGMbca5wd3efaJq29v7YbUfjkBXUdrX503t1oL8eRHG5XVdLPO+Db9/iRBdkAAAq0E6mIkhK1WZPwIAQhA4GACCFsNCHX3su6uccPhAXY/BMQ9phduM+sZgHcKW+7O3b7/wp2smwLsF+78/U2A+g1PQsG47t6zxUegLmiLr5SUCAIQSIlA02gtjSjSg0Sm3nbt5appFHNbCT6664vP3JHEqtqp+8sJWyq1+LUx1G/zxjxtLPkNAmkTqIuRELbStimlhwAE4ieAsNVgI4kqGrU12zZ4LStbj6s9AN8F6rWB9r52d9eX7vfnp/dB+fYu8jN3crZxl9cf9wfN/EmdGQLtmaH3zK4uaOt5KodBAAIQeEJAo4V0XamO1moaxfUkgYN3PAhPx//kzv7xuVv1vcm0zffGXW1e7dvPjva2tqi70dOfuLPLH2oPOWSn8W3qXBtnRkgfQplzIXBPoC5GavrvwQwCEIAABMIQQNhq4GjrbGkhW7b5CRh/AoH52ffJsS5o63Mex0AAAhCoI6A1tHQzo7rNNpLo4ebS+vSd+5+LV2696rm25O17tzk9fjylcLCwZSO21+7o7Gt3W4UQ6LtGoreN2lpiCYZAVSMZCERFoC5GIp6NykQUBgIQyJAAwlaLURUAtgWBLafy04EE1MlhGuKBECc8vS5omzA7koYABDInoOv9ZrN5VMv5bnDYupUPa2vZCOqO9SV3I6I1dfHkV+6/Ln7ljhunIj6qmvflzt1evrkf7dWRn3fSqI/2xMnqqDhLTMIXi8gbDd4hMJ5AXYyEsDWeJ2dCAAIQ6EMAYauFkhohNU4sqNoCaYKfNBWCO8cTgA2YZF3QFjB5koIABAoioGu+rinVjt9sSwLcfes2L5651W7RdlsPq30R+a2wtT5xZ++utqOsdkLXkBFbPdfLDOUObW3rbLxDVYZ0IBApgboYqXp9i7ToFAsCEIBAsgQQtjpMx6itDkAT/GyjtVjrYwK4gZKsC9oCJU0yEIBAYQTsJlK12nM9xMUEqf0TiW0EV/saltXyWjr1i8dXj9Z3L58XG/dh91TiumPD7Gtjanag7Q3DmlTKJVAXIyFslesP1BwCEJiHAMJWB2cL9FhrqwNUoJ9tgdvJH+seqLylJlMXtJXKgnpDAAKHEWh6Aq7W3KpOTzwsp7qz7UEsn7rzqx/3B9h0xAGLyA8WtmYeraXKiWfbEgu6ttMB37sBnyAwhkBdjMT/agxJzoEABCDQnwDCVg9WGkGk4fvcxewB64BDxHeux7ofUExOdW47bcgHUQ3i/N/4DAEIQKCNQJPYMovIYuLSk+mDNh2x5yLyGn91dT5oja2hx7cx7PubrbPVdPwszJsyZz8EMiFQjYn4X2ViWKoBAQhETQBhq4d5JLhoYdu2u5w9kuGQDgJv377dCohNC9t2nM7PMxKoC9pmzJ6sIACBjAgsJ2zZVMB68WonPPVc1H13/BORrM5Yw4WzulSG7rNR6E3n0QFvIsN+CPQnUBcjMWKrPz+OhAAEIDCGAMJWT2qaIqdRWxJf2MIT0NRDBQJM+QzPdooU64K2KfIhTQhAIH8CywlbJi6ttu2Prmv1r/ZF5M1Cg4StEVMdLZ9D3hG2DqHHuRDoR6AuRkLY6seOoyAAAQiMJYCwNYCciS+s/zQAWo9Djas6N2xpEKgL2tIoOaWEAARiI6Brv6ahV7e2J/hVjx31fScuNQla+/37heWbcxoibA05tjnH4b80rWdmKenaTgfcaPAOgXEE6mIk/lfjWHIWBCAAgb4EELb6kno4zkQYxK2B4BoON56MhGsAFOnuuqAt0qJSLAhAIHICTaOINP1/uhsetmj8M/di861reiDhToDqsYj87tjOqYiWd/0UyCnNpTVDm5ZV0DIAurZrhDobBCAwnkBdjISwNZ4nZ0IAAhDoQwBhqw+lyjEmxujOJ9t4AsYRUWs8w6XOrAvalioL+UIAAmkTsKfhVtdXbBNhDq6xLRq/fuUubppkLeVi0xW7Raj+wpal2W+K48F19RJoe9Jk18LyXjJ8hAAEWgjUxUgIWy3A+AkCEIBAAAIIWyMhIsqMBPdwmu7Cq+FH1DqM41Jn1wVtS5WFfCEAgfQJ1E07NKFliicSmwjVPcXQFphfuVXHIvKW5qprxJaJaj1GgYW0rDjq2t20luWkQmLIipAWBCInUBcjIWxFbjSKBwEIJE8AYesAEyo4VDCuO6DVO80HJJv1qQqsX79+vQ2uJQ6ypUmgLmhLsyaUGgIQiIGA2oW6Gx11gtfh5f3BXZ594lZ9haWdENU+wqq3sGVre3WOFju8pn4KGmUunk2bYhmJW2wQgMBhBOpiJIStw5hyNgQgAIEuAghbXYQ6ftcUCgWDChab7oJ2JFHMz2rUf/rTn25Z0cCnbfa6oC3tGlF6CEBgSQK60aF2tDo6S2KX2o2gmwlLXSOrdpnamlgr1zbCq6+w1fe4XfaBPohjk3Bl00FZXysQbJIpmkBdjETcW7RLUHkIQGAGAghbASArEFewqIZMd52rgXmALJJOAj5Jm6+28HVBW+2B7IQABCDQg4DaibrRWbagOSN8e0BsOUSjtXTdbhpdPomA2FIefoJA3ATu3O3lG3fUd1RnpTJ1MRLCVgUSXyEAAQgEJoCwFRCoPyKJheXvwaozYqO0GNEW0NkWTqouaFu4SGQPAQgkTqBJXNGNo7rRXIlXd7bim2jY9IRJ+x3xcDaTkFHkBO6u37lXR+v+05Ur9amLkRC2KpD4CgEIQCAwAYStwEAVINrC6BJ0Sg0U1YDrkeJq3NVZERe2fAjUBW351I6aQAACSxBoGp2l9kPtqUZEsw0nIG7i19QOIxwOZ8oZuRK4c7dXG3e6FbVWCFu5mpl6QQACWRJA2JrIrArQJehIAChJ4PIFLQlbrNcxkYMtnGwIYevROjM3V+7i/NQdrRRIrtxqfeLONpfu+m7hipI9BCAwK4EmkUVti64NjIYeZg6bgtg0WsTW1ir1JtwwmhydN4Ebd7V5tY9DtvHIp+786sfB1a6LkZr+g4MT5wQIQAACEKglgLBViyXczqrApSCz6a5puFznTUn1sSmHaswlaNGAz2uDuXOrC9qGlmEnbB39zJ3s7o4+CFsPAtf6xcZ9QNwaipbjIZAsAbUnmnYogau6mUiDCFMlU/9dnHStbuOlh9/oxQaBognsnnx6f2PtzX+9c58fMxWxaJ+g8hCAQHIEELZmMpkELk1RVMCuQFOjuVJfc0p3elUP1UkvfVY92fInEFTYkoh1dOq+uLx29xqWf9d03N3S/C1ADSGQLwG1jbrG1LWRNhK6TazJl0z/mpmoJV5Nm8UkjKxuIsT+Yghsha3n7uTsj+7q9s65ndA1Lgapi5G44VuMN1FRCEBgIQIIWwuAV8CpNS/U8JkgVBfAL1C0zizVMOtOuqZXqvy606v65DYKrRNE4QfUBW1DkexGbK0+cWeXP1RO/95dnD53q9XaHZ+/fxC8KofwFQIQyJaATUmsE10Qt9rN3kfUMvFQx7JBAAIVAghbFSB8hQAEIBA/AYStBW1kU/hM5JJYoGl8uosay50ddSo0/UNltNFmErO0j9FZCzrPwlkHFbbWr9zFTXW+4Y/u6vxThK2F7Uz2EFiSgNqapkXPTdxSe8m2JyBBUNfnuqmcdpTadbupZvt4hwAEPAIIWx4MPkIAAhBIgwDCViR2ksilO6gKRhXMKzA1oUv7JCRJ7JpyZJTS191b5WdPNFQZ1LFQJ4KRWZE4SwTFkF/4W/W7/1vT592IreNzd1XVtRzCVhM39kOgFAJq79Qe6lXX9tnIJLVXdb+Xwkn11I0mcZBg1TYKy0Qt3axigwAEGgggbDWAYTcEIACBeAk87p3GW87iSqYgXUKT7kYrALWpfxIQ9FIAq5dEKB2jl4lfOq/upd/tWBOvlIalqXflo306TkIbo7KKc71eFZav+Fv1u/9b02eErSYy7IcABIxAl7gloUbtlgSdVKb0W91CvUvIUv0lAIpH02aiVpNQ2HQe+yFQHAGEreJMToUhAIH0CTzunaZfn+xroMDUBC+JTxpJZSKX3qsCmIlWCnr94ySWmchlIlj28KhgMAJVIav6vU9GCFt9KHEMBCBg4pbasTrhRr/rZo2uQ2rnSrkhIxaqr+qt+otD0ybRT/zU9rcd13Q++yFQFAGEraLMTWUhAIE8CCBs5WFHagGBWQlUhazq9z6FQdjqQ4ljIAABEZAYIxFH4kzTVDtf6NFNn1wFLtXL1hgTkzqxz/ca3cTSNVrnsEEAAj0IIGz1gMQhEIAABOIigLAVlz0oDQSSIFAVsqrf+1QCYasPJY6BAAR8AjYyq22EkoQvG72ck8AlAcsELdWva+qliYG6PmspAjYIQKAnAYStnqA4DAIQgEA8BBC24rEFJYFAMgSqQlb1e5+KIGz1ocQxEIBAlYBNq5O4o6n0TZsELq0npeuTRjY1jfRqOj+G/RKnVG6bcti3Hj6jrhFdMdSTMkAgKgIIW1GZg8JAAAIQ6EMAYasPJY6BAAQeEagKWdXvjw5u+IKw1QCG3RCAQCcBTcczsadt9JYSkvhlI500lVGfu0Y7dRZg4gNUPpVT5dX1VZ/bRDwrzhAudg7vEIBAhQDCVgUIXyEAAQjETwBhK34bUUIIREegKmRVv/cpMMJWH0ocAwEItBGQAKSRWxKAtJZU22ajn7SAuq5ZOkefNU1v6VFNyl/lsLKpfPqs0Voqd9emY2wtLY1S6yOCdaXJ7xAolgDCVrGmp+IQgEC6BBC20rUdJYfAYgSqQlb1+2IFI2MIQKA4AibqSKiSyNVnyqGJXBoJpXNM6NIoMAlEEsymEruUrtJXPsrPRmWpHDaarI+YJUP7dVc6fepenINQYQgMJYCwNZQYx0MAAhBYnADC1uImoAAQSI9AVciqfk+vRpQYAhBInUBV5JFw1Fcg0hQ+iUKa1mhTHHVd00uCk/ZpBJXStJdGRTW97Bi96zydbwKa0pQIpX3KT/kq/yGbjrepikpL+fSt65B8OBYCEBhOoBoT6TujKIdz5AwIQAACQwggbA2hxbEQgMCWQF3QBhoIQAACMRDwBS5dq2wU1NCyKR11RiU8STgy0UuCVFWoUj720lRAO8bEK52vdJTeIQKU0lCayktCmb6zQQACcRHQ/9Pf9B1hyyfCZwhAAALhCTy+8oZPnxQhAIEMCdQFbRlWkypBAAKJE6gKQRKnpppiOBWqsQvJT1Ue0oUABNoJ1MVICFvtzPgVAhCAwKEEELYOJcj5ECiQQF3QViAGqgwBCCRCQFP3tDi7RlPp+qXpexrJJeFr6DTAqavsLySvcqq8QxaSn7p8pA8BCLQTqIuRELbamfErBCAAgUMJIGwdSpDzIVAggbqgrUAMVBkCEEiQgIQsCVoSi0w4soXbJX4dOl1wCBKb7mhrcVXLo3IeMnVxSFk4FgIQCEOgLkZC2ArDllQgAAEINBFA2Goiw34IQKCRQF3Q1ngwP0AAAhCImICNkNIILhvRpWucLRqv6Yv+GlnqoPYd5aW0dbxeEs2UjvLROlkmYikv5RvrCLKITUfRIBAlgboYCWErSlNRKAhAICMCCFsZGZOqQGAuAnVB21x5kw8EIACBqQmoE6rRUjaSSkKU/1RDXQOHvmxReQlYSldrZ6W23tfU3EkfAjkQqIuRELZysCx1gAAEYiaAsBWzdSgbBCIlUBe0RVpUigUBCEAgOAGbQqjOqv/6v//3/7rf/va3u33BMyZBCEAgegJ1MRLCVvRmo4AQgEDiBBC2EjcgxYfAEgTqgrYlykGeEIAABGIhoNFXml6oqYtsEIBAuQTqYiSErXL9gZpDAALzEEDYmoczuUAgKwJ1QVtWFaQyEIAABAYQMFFLUxbZIACBsgnUxUgIW2X7BLWHAASmJ4CwNT1jcoBAdgTqgrbsKkmFIAABCPQgoIXkNVJLa2jxBMMewDgEApkTqIuRELYyNzrVgwAEFieAsLW4CSgABNIjUBe0pVcLSgwBCEDgMAISsiRoIWodxpGzIZATgboYCWErJwtTFwhAIEYCCFsxWoUyQSByAnVBW+RFpngQgAAEghJA1AqKk8QgkA2BuhgJYSsb81IRCEAgUgIIW5EahmJBIGYCdUFbzOWlbBCAAARCEjBRS1MQNRWRDQIQgIARqIuRELaMDu8QgAAEpiGAsDUNV1KFQNYE6oK2rCtM5SAAAQh4BLRIvEQtLRrPBgEIQMAnUBcjIWz5hPgMAQhAIDwBhK3wTEkRAtkTqAvasq80FYQABCDgnHv79i2iFp4AAQg0EqiLkRC2GnHxAwQgAIEgBBC2gmAkEQiURaAuaCuLALWFAARKJICoVaLVqTMEhhGoi5EQtoYx5GgIQAACQwkgbA0lxvEQgICrC9rAAgEIQCBnAhK1dO376quvcq4mdYMABA4kUBcjIWwdCJXTIQABCHQQQNjqAMTPEIDAUwJ1QdvTo9gDAQhAIA8CX375JaJWHqakFhCYnEBdjISwNTl2MoAABAongLBVuANQfQiMIVAXtI1Jh3MgAAEIxE5AI7R0zWOkVuyWonwQiINANUbSgya4fsRhG0oBAQjkSwBhK1/bUjMITEagGrRVv0+WMQlDAAIQmJGAiVoascUGAQhAYAwBPUV1s9mMOZVzIAABCECgJwGErZ6gOAwCENgTqApZ1e/7I/kEAQhAIE0CJmppbS02CJRIQG07LxjM6QMl/s+oMwQgEIYAwlYYjqQCgaIIIGQVZW4qC4HiCHz33XdO04cQtYozPRX2CNDWezD4ODkB/G1yxGQAgawJIGxlbV4qF4LAnHeqyIs7owR2If61pAGB8QQQtcaz48y8CNAe5WXP2GuDv8VuIcoHgbgJIGzFbR9KFwEBGtoIjFBQEfC3goxNVaMjYKKW1sRhg0DpBGiPSveAeeuPv83Lm9wgkBsBhK3cLEp9ghOgoQ2OlARbCOBvLXD4CQITEvjzn/+8nX748uVL95e//GXCnEgaAmkQoD1Kw065lBJ/y8WS1AMCyxBA2FqGO7kmRICGNiFjZVBU/C0DI1KF5AhIyJKghaiVnOko8IQEaI8mhEvSTwjgb0+QsAMCEBhAAGFrACwOLZMADW2Zdl+q1vjbUuTJt1QCiFqlWp56dxGgPeoixO8hCeBvIWmSFgTKI4CwVZ7NqfFAAjS0A4Fx+EEE8LeD8HEyBAYRMFFLT0DUVEQ2CEBgT4D2aM+CT9MTwN+mZ0wOEMiZAMJWztalbkEI0NAGwUgiPQngbz1BcRgEAhDQIvEStbRoPBsEIPCYAO3RYx58m5YA/jYtX1KHQO4EELZytzD1O5gADe3BCElgAAH8bQAsDoXAAQTevn2LqHUAP07NnwDtUf42jqmG+FtM1qAsEEiPAMJWejajxDMToKGdGXjh2eFvhTsA1Q9KQNMLN5uNu7q6epQuotYjHHyBQC0B2qNaLOyciAD+NhFYkoVAIQQQtgoxNNUcT4CGdjw7zhxOAH8bzowzIFAloLWzJGjp/6Sphnp//fr1dh0tiVr6/tVXX1VP4zsEIOARoD3yYPBxcgL42+SIyQACWRNA2MravFQuBAEa2hAUSaMvAfytLymOg0A9AQlWErP0MvFKI7Zevny5FbT0H7u4uKg/mb0QgMCOAO3RDgUfZiCAv80AmSwgkDEBhK2MjUvVwhCgoQ3DkVT6EcDf+nHiKAhUCfji1a9//WunUVv+pu/6f/3VX/2V++lPf7oTvfxj+AwBCOwJ0B7tWfBpegL42/SMyQECORNA2MrZutQtCAEa2iAYSaQnAfytJygOg8ADAa2jZdML9ZRDfW/bJHBJ+NJ/TcdX199qO5ffIFASAdqjkqy9fF3xt+VtQAkgkDIBhK2UrUfZZyFAQzsLZjJ5IIC/4QoQ6EfA1tHSlEONwBoqUEkAk7Cl/5yEseoIr36l4CgI5EuA9ihf28ZYM/wtRqtQJgikQwBhKx1bUdKFCNDQLgS+0Gzxt0INT7UHEfjmm2+2YpZErS+//HLQudWD/bS04DwbBCBwT4D2CE+YkwD+Nidt8oJAfgQQtvKzKTUKTICGNjBQkmslgL+14uHHwgl89913k42ykqhlo78kdrFBoHQCtEele8C89cff5uVNbhDIjQDCVm4WpT7BCdDQBkdKgi0E8LcWOPxULAFNE/TX0ZLANcU2Vz5TlJ00IRCaAO1RaKKk10YAf2ujw28QgEAXAYStLkL8XjwBGtriXWBWAPjbrLjJLAECmmo490gqrddl62/VPWExAWwUEQIHE6A9OhghCQwggL8NgMWhEIDAEwIIW0+QsAMCjwnQ0D7mwbdpCeBv0/Il9XQISFzSovAStTRNcInF3b/66qtdGQ5dyysd8pQUAvcEaI/whDkJ4G9z0iYvCORHAGErP5tSo8AEaGgDAyW5VgL4WysefiyAQPVphfq+5CZBTcKa/ptjnr64ZNnJGwKHEKA9OoQe5w4lgL8NJcbxEICATwBhy6fBZwjUEKChrYHCrskI4G+ToSXhyAn4AtLLly+dRmzFtElge/369Vbg0vvSgltMbChLngRoj/K0a6y1wt9itQzlgkAaBBC20rATpVyQAA3tgvALzBp/K9DoVNlpyp+mHOqlzzFvEtwkvOm/utQUyZj5ULZ8CNAe5WPLFGqCv6VgJcoIgXgJIGzFaxtKFgkBGtpIDFFIMfC3QgxNNbcEUhaJbFH7FMS4ON3tR3d1/qlbrdbu+Py/3c3VhTs/Pd4KhroOrk/O3Oby2t3FWfgiSkV7VISZo6kk/haNKSgIBJIkgLCVpNko9JwEaGjnpE1e+FusPkAnPKRl/Gl9evpgqtP6NH1ST03U/1b1iG36ZEibhU9r/586OvmZO1qtdqKWeN6/nrkXm28Rt8LD75Ui7VEvTBwUiAD+FggkyUCgUAIIW4Uanmr3J0BD258VRx5OAH87nOE0KdAJD8HV1tHSKKecFmKXMCdhS//ft2/fJivUhbBx/zTsPyURa+2OTn/jLq8/3p9++95tbPTW8bm7YthWf6wBj6Q9CgiTpDoJ4G+diDgAAhBoIYCw1QKHnyAgAjS0+MGcBPC3OWkPyYtO+BBadcdq7SyJWRK1NI0vx+2bb77Z1VHrb7G1EfD+U0dv3OVtRb26uXCna4len7rzqx/bEuK3iQjQHk0ElmRrCeBvtVjYCQEI9CSAsNUTFIeVS4CGtlzbL1Fz/G0J6n3ypBPeh1LdMd99992j0UwatZX7JlHLRqVJ7GKrI7D/T61PL9xN9ZC79+78eI2wVeUy43faoxlhkxU3kvEBCEDgIAIIWwfh4+QSCBDYlWDleOqIv8Vji8cloRP+mEf3NwlYmpYnn9Y0PQlcJW2l17/b1vaf0uLx75+uo4Ww1Y1w4iNojyYGTPKPCOBvj3DwBQIQGEgAYWsgMA4vjwANbXk2X7LG+NuS9NvyphPeRqf6GyOW9kS0oLytv6WF5ksYsbavfdsn/lNtdGL4jfYoBiuUUwb8rRxbU1MITEEAYWsKqqSZFQEa2qzMGX1l8LdYTUQnvI9lJOLYOloStxBx9tRKWGNsX9s+n/hP9aG05DG0R0vSLy9v/K08m1NjCIQkgLAVkkTbPXQAACAASURBVCZpZUmAhjZLs0ZbKfwtVtPQCW+zDE8FbKOz/01CnwQ//c9zeirkvoZDPvGfGkJriWNpj5agXm6e+Fu5tqfmEAhBAGErBEXSyJoADW3W5o2ucvhbdCZ5KBCd8DrLSKjR9Dr57cuXL51GbLF1E5AQ+Pr16y03vet7eRv/qdhtTnsUu4XyKh/+lpc9qQ0E5iaAsDU3cfJLjgANbXImS7rA+Fus5qMTXrWMptbpyX966TPbcAISAiUI6n9f3tRN/lPDPWbeM2iP5uVdem74W+keQP0hcBgBhK3D+HF2AQRoaAswckRVxN8iMsajotAJNxxlizFGIez7l19+WaBIyH8qrBeFT432KDxTUmwmgL81s+EXCECgmwDCVjcjjiicAA1t4Q4wc/Xxt5mB986OTrg/fU5P+Stz+lxvhxl8oD+tU3zzn9bJf2qwk8x8Au3RzMALzw5/K9wBqD4EDiSAsHUgQE7PnwANbf42jqmG+FtM1vDLUm4n3BY815RDFjz3fWKazxIMJWzpWvD27VsExGkwk2oPArRHPSBxSDAC+FswlCQEgSIJIGwVaXYqPYQADe0QWhx7KAH87VCCnB+SgNbOkpglUUvT5djmI/DNN9/s2Gv9LTYIzE2A9mhu4mXnh7+VbX9qD4FDCSBsHUqQ87MnQEObvYmjqiD+FpU5ii3Md999txs1pKceatQW2zIEJGrZaDmJXWwQmIsA7ZFI22jd1XYUpZi0v56704vvKya6c7dX/+l+d3bi1nb++sSd/e4/3dXtXeXYcr/ib+XanppDIAQBhK0QFEkjawI0tFmbN7rK4W/RmaSoAknA0vQ3+aGmw0ngYlueAHZZ3gYlloD2SFY/VNi6c7eXb9yRCVrV96PP3MX1xxLd60md8bcnSNgBAQgMIICwNQAWh5ZJgIa2TLsvVWv8bSny5Bv/yKC+Hcy1Ozr93P3+8to1joW4vXIXvztzJ2sbffHMnZz9m7u4uonaERhJF7V5sisc7ZFMur/urE8v3OArxO3X7uxo7VarY3f6xdfu+uGidHf9tfvi9Hh7E2FUutl5m9uyyLBaVAkCEJiJAMLWTKDJJl0CBHbOubv37vxYgZl1Ajve16/cxU1jl/LBGT66D5ufu/Vq7Y7P3zd3QNN1nVElx99GYeOkAwjo6Xu2jlbcazntO5j9rkXP3Mn5n9xtlc2uo1l3HTt2ry4+RH89Yu2zqlH5PgUB2iNR3V93hgtQd+7m4tV2+mHtuTcX7lTieq+YaQoLx5Um/haXPSgNBFIjgLCVmsUo7+wEaGinEbbuPmzci+1oCYQt36nxN58Gn6ckkN7T93p2MG+v3Dtby2b9c7f54E/z+cFdnn3iViuN6vqNu7QpQHfX7vKL0/vpQol0Mnla5ZT/DtIWAdojUeh53RnjMrubhp+686sfx6SQ1Tn4W1bmpDIQmJ0AwtbsyMkwNQI0tL6wVbco6giL3n3rNi+ePYwAQ9jyCeJvPg0+T0FAgogWhJevaR0tjdhKYxvSwfzeXZw+3wpYj0aEto6QsHMCXedmgiqB8vXr11t76l3f2SAQggDtkSgOue4MpN56PRqYVgaH428ZGJEqQGBBAghbC8In6zQI0NCGFrZsCqJNA0LY8v8J+JtPg8+hCWgKm56wp5c+p7UN6WAOOdYo2DlpXpMkUL58+XIrcGlKqQRMNggcQoD2SPTsurBytdMJRwH+6K4vN+7sRDf4nrkXm2+jn/48qpoDT8LfBgLjcAhA4BEBhK1HOPgCgacEaGhDClv7pwOtX/zGvfv806cjKp6aoKg9+FtR5p6tsnmIHkM6mDb6aohIZeekNWKr6kRpi5fV2vB9SQK0R6K/v+6IR+fr+NxdNS4xWklrfeLefN3ykIsljb9A3vjbAtDJEgIZEUDYysiYVGUaAjS0AYUtW7R5u+7Njbs6R9iqei3+ViXC90MI5DVNbd8pbBs5cXd96TaNa2zV0/TPWb/YuA+NHdP682Pbm+5009hIll0e2iPZf3/dEY/OV6uwZeK5n86xO928f/qQiwJdD38r0OhUGQIBCSBsBYRJUnkSoKENJWzZos027N6CxSEjKvL0Mb9W+JtPg89jCdjC4vInPfEwnXW02mps1wy/U9j2ufsJh3dX5+5411l95k7efOWuExe1fILpPSDALz2flyZAeyQL7K87bYL6GFvdXb9zr470xGmLi8akks85+Fs+tqQmEFiCAMLWEtTJMykCNLS+sNXWibTf6oQqfwqijYawYLHu+KRcJGhh8begOItMTFPRJGZpHa0vv/wyIwZ2zbBrTdP7sTs937iLq5uOut+5m4tXbr0TtpSenpa4cVe3Galbzm2FTfMJrb/FBoE+BGiPRGl/3QktbCn1nbjeOtKrj7XSPwZ/S9+G1AACSxJA2FqSPnknQYCG9nBha3dXcjsF8eOD3S1YRNjy/wjyN14wONQH9NTD/BYPt2vG00Wc766/dl+cHm9HPpyc/XGcMHX3wV28Uhorl8N0RP+6Yp8laknwPNS/OL+ca5T5TrnvzdedIEx4MuIOo64rbBCAAATGEuAKMpYc5xVDgIbWF7ZGLKp8963bvKh78o8Fiwhb/p8Jf/Np8HkogV/84hdb0eLt27dFCVtbTrtrzQHC1N17d36sqUGfuvOrH4fij/p4m54qYUujtzRNkQ0CbQRoj0THYpWngnobu/vfbE2tltgJYWuHEX/boeADBCAwggDC1ghonFIWARraQ4Stj+7D5udurek9Z19XFke1YBFhy/9H4W8+DT6PIfDNN9/spiLmNe3MrhnNHcy7Dxv3Yv0wpfDJNacPzR4d0T7JRHZMvj4RGejMikN7JIN2X3eazb6f7lw/CtT7/fTCdU2ebs4nj1/wtzzsSC0gsBQBhK2lyJNvMgRoaA8QtnajH/pM20Dg0p8Cf0vm0hB9QW3amUbnSNhIf+vTwTQxXdec6qirPp3IvISt7777zuU9ii99r465BrRHsk6f606LFe1p0Kvqwyk+uuvL37jT7eLxn7izyx9aEinjJ/ytDDtTSwhMRQBhayqypJsNARpahK05ndn8Te+8YDDWB8xnNd1M0xKVjgSOtKef9exgtk1J3E37+bnbfLD1/oyWc273+yt3cZPuAvKadujbXQIXGwSGEtB1g21/3el9PX60EPydu33/hTvZjiSta9O6n95aig3wt1IsTT0hMA0BWqxpuJJqRgRoaA8Qtlr9wIJFRmr5mPA3nwafQxG4urrajdxJd2F5u2Y0T0W857V/CutqVV3b5gd3efbJVuhbn/zKfX29F7f2C9DXTZ0OZYnp09GTMG0dLT0hkw0CYwnQHonc/rojHr1ej4Ste/p315fu9+en7miXxjN3cvZvPZ7eOtZ66Z2Hv6VnM0oMgZgIIGzFZA3KEiUBGlqErTkdE3+bk3Z5eUnokOihlwSQtLZ9B3PduR7NXsBaHb1xl7fe6KvbP7nzEz3Qoq6TunZHr965a+/wVBhJvNS0U9lW01DzeypmKpbIp5y0R/nYMoWa4G8pWIkyQiBeAghb8dqGkkVCgIbWF7bqOoJ1+/qMwrJOap9jI3GGGYqBv80AufAs7Ol48rWXL186CSJpbHbN6Bqx9VAbm1ZY9/CKu2t3+fvPH9a3ub+GrU/O3O8urioPuYifjKaX+utopT3dNH7eJZWQ9qgkay9fV/xteRtQAgikTABhK2XrUfZZCNDQImzN4mgPmeBvc9IuOy8JIK9fv96OXNI7gkha/pCuQJkW55JLS3tUsvXnrzv+Nj9zcoRATgQQtnKyJnWZhAAN7SRYSbSBAP7WAIbdkxGwKWzyPaawTYY5aML+lFLW0QqKlsQ8ArRHHgw+Tk4Af5scMRlAIGsCCFtZm5fKhSBAQxuCImn0JYC/9SXFcaEJsOh4aKLh05MIqemjuk4gQobnS4qPCdAePebBt2kJ4G/T8iV1COROAGErdwtTv4MJ0NAejJAEBhDA3wbA4tDgBDS9TU9NlB9q3aZ01t8KjiKqBDVN9O3btzu7MG00KvNkWxjao2xNG2XF8LcozUKhIJAMAYStZExFQZciQEO7FPky88XfyrR7bLX+7rvvHi1IzhP2lrGQraOlJx3qiYcIjcvYodRcaY9Ktfwy9cbfluFOrhDIhQDCVi6WpB6TEaChnQwtCdcQwN9qoLBrMQLffPPNVlCRsKKpb2zzEfDZa5ooGwTmJkB7NDfxsvPD38q2P7WHwKEEELYOJcj52ROgoc3exFFVEH+LyhwU5oGARC0bNSTBhW06AoyWm44tKQ8jQHs0jBdHH0YAfzuMH2dDoHQCCFulewD1byWgDhwNbSsifgxMAH8LDJTkghHQtDjWeQqG80lCVb4SuNggsCQB2qMl6ZeXN/5Wns2pMQRCEkDYCkmTtLIhoIV5X79+vRW1aGizMWsSFcHfkjBT0YXUOk9aWF6+qoXmWX/rcHfwn0jJiLjDeZJCGAK0R2E4kko/AvhbP04cBQEI1BNA2Krnwt6CCfhTbtSBo6Et2BkWqDr+tgB0shxF4Kuvvtqtv8UaUKMQbheD16LwtoYZIuE4jpw1DQHao2m4kmo9Afytngt7IQCBfgQQtvpx4qgCCEjEevny5a6DYVWmoTUSvM9BAH+bgzJ5hCIgIUY3A+S3un7y1L5+ZDUq2Ea9aXqnvrNBIDYCtEexWSTv8uBveduX2kFgagIIW1MTJv3oCfjrmmj6YbWDQUMbvQmzKiD+lpU5i6mMP3277jpaDIiOiiIEdgDi56gI0B5FZY7sC4O/ZW9iKgiBSQkgbE2Kl8RjJ6CpNF1P+qKhjd2KeZUPf8vLnqXVxka+yo81koupdXsPsPZGbY4+s0EgdgK0R7FbKK/y4W952ZPaQGBuAghbcxMnvygI+I9T7+p80dBGYbJiCoG/FWPqrCvqL4ZeuoiD2Je1q2ddOdqjrM0bXeXwt+hMQoEgkBQBhK2kzEVhDyWg0QN6ipcaT61v0udx6jS0h1Ln/CEE8LchtDg2ZgLV621p629peqbWz7L2pjrNPWbbUTYIiADtEX4wJwH8bU7a5AWB/AggbOVnU2rUQECPULenTw0ZQUBD2wCU3ZMQwN8mwUqiCxKQoOMvlJ779ETVr/p03QXxkzUERhOgPRqNjhNHEMDfRkDjFAhAYEcAYWuHgg+5Eji0U0VDm6tnxFkv/C1Ou1Cqwwn4Nxck/OS4+XXUdEw2CKRMgPYoZeulV3b8LT2bUWIIxEQAYSsma1CW4ATsrvkhj6GnoQ1uFhJsIYC/tcDhpywI2HVZI2glBOWw+es2avph7qPScrAZdegmQHvUzYgjwhHA38KxJCUIlEgAYatEqxdQZ63lYtMODx0ZQENbgMNEVEX8LSJjUJTJCEj4yWH9qWo9+qzbOBlUEoZAYAK0R4GBklwrAfytFQ8/QgACHQQQtjoA8XNaBPxOxuvXr12IxXppaNPygdRLi7+lbkHKP4SAbkLY+lt6sEdKI538Jz/mMvJsiO04Nn8CtEf52zimGlb9TTcKNOOC62tMVqIsEIiXAMJWvLahZAMJ+J2MkE/fqja0A4vF4RAYRAB/G4SLgzMhoAd62Cjb2Nemqo4ITkmMy8RdqMZMBGiPZgJNNlsCVX/TtdWeZK6b1VxrcRQIQKCNAMJWGx1+S4KAv7aJph2GbviqDW0SUChksgTwt2RNR8EPJKBrt67h+g9I5Ap5g+LAom1Prz6IJMSI4BDlIg0ITEWA9mgqsqRbR6DJ3/ybCUOeal6XB/sgAIF8CSBs5Wvb7Gvm38nRVJapOhlNDW32gKngIgTwt0Wwk2lEBHQt1915/RdCTSk/pHq+4HbIg0gOKQPnQmAJArRHS1AvN882f5sr5i+XPjWHQPoEELbSt2HwGqhTobsjmg6iu+da4FfCkV4K6tXwdL3seL1rGLHS0V0WpavG6dBN8+1/8pOfbF9T371pa2gPrQfnQ6BKAH+rEuF7qQTUXlibM8Vo3D5c1b7M1db0KQ/HQGBOArRHc9Imrz7+Zutu6boc+7R1LAoBCMxLAGFrXt7R5aYGQg2DiVdqVOylDoWEKf2mToUvTqnD0fZSZ8DO0R13paOpJZa2GiQTvXRs39FWOk7nKZ25FhpWXmwQmIsA/jYXafJJhYDaqLnFpRhEtVTsQznzJUB7lK9tY6zZEH9TH0PHq0/Qtw8RY50pEwQgEI4APfZwLJNIyYQsiU3qKKhRkOCk72okFMxP3UCoDBpxpfzUIPnlkIjWJHRZIzb3VJAhDW0STkAhoyaAv0VtHgq3EIHqNBS1VVNsav/UDtFhmoIuaaZGgPYoNYulXd6h/uaP3lIfgQ0CECibAMJWAfbXhV+jm2zElN7bBKQlkNQJbhKwdKdeHQ0T4pYYdjy0oV2CH3nmQwB/y8eW1CQ8AbUHNmpX7VioGzG2jpZutKiNnEo4C0+EFCEwHQHao+nYkvJTAmP9TaKWrt3qN6g/wQYBCJRJAGErU7sr2NeF3sQsE4lSueCrU+GLcX/3d3/n/vCHPwRZn2uoycc2tEPz4XgIiAD+hh9AoJuARv2qfVNn5tA79X5aS9w86a4tR0BgGQK0R8twLzXXQ/zNv+lxaJtQKn/qDYHUCSBspW7BSvklCGl0kxoHBf26uIe6o13JaravEuN0Z14dGL1C3qXvU4lDGto+6XMMBHwC+JtPg88QaCegNk7tgto7CVRDNrUt/uivEA82GZI/x0IgdgK0R7FbKK/yhfA3W5OR0Vt5+Qa1gUAfAghbfSglcIzWpdJFXI2CAvWhAf6YKqpTICGt+ppqVJg6HaqnjUKTwKW8p95CNLRTl5H08yGAv+VjS2oyDwG1DWoPrP3raoOGHj9PLcgFAvERoD2KzyY5lyiUv/mjt+Z60FTOdqFuEEiFAMJWKpZqKKeEHRO0Qo1kUqdAwpjuhKtBkFCml+6Kq9EZ+tJ5lobSU7pKv6vz0VDl7W7VW2mqLKHq3ZRfqIa2KX32Q8AngL/5NPgMgf4E/HahqTNjd/PHjPDqXxKOhEAeBGiP8rBjKrUI7W+6GW4jeue4EZ4KZ8oJgVwJIGwlaln/boSmHo6dbihxSYG+xCETyNSw6CXhyJ6WKDFKjYK9ukQp/W7H6l3n66X0qiKZ8lX+KkdXulVzKW0rd1NHpnrO0O+hG9qh+XN8WQTwt7LsTW3DE7CRverQqF3RprZCYpb2qS1i2mF47qSYHwHao/xsGnONpvA3XettiZap+gkxM6VsECiJAMJWgtZWUK6LvwQdBetDNglgCvR1kVeAr3QU7EtYUrpKb66AX/koPxPWbIqhyqTyaX9fwc7uyqhOoadhTtHQDrEZx5ZFAH8ry97UdhoCal+srbS2burRvdPUhFQhsBwB2qPl2JeY85T+pr6B2gL1NYb2nUq0BXWGQIoEELYSsppGM0nM0oXZ7kL3Kb7EId2lMOHIhCyJQX2Foz75hDhGnRE1PuqA+OVV+btGc+lcHaeGUefre4htyoY2RPlIIy8C+Fte9qQ2yxJQG2c3bZYtCblDID0CtEfp2SzlEk/tb+oX2OgtvYfqJ6TMnLJDICcCCFuJWNNGJEnY6iNG6WKtc2yankSiPuJQbDgkZknEs3roXd/bGiPdibG7Ml1iWJ/6Tt3Q9ikDx5RDAH8rx9bUFAIQgEDMBGiPYrZOfmWby9/UT1C/SH2F0LM88rMKNYJAOgQQthKwlY1C0nvXJtFLo5V0sdZLn0OIO135zvG76iEGft2aRD4JX7aWlwS+Q7a5GtpDysi5+RDA3/KxJTWBAAQgkDIB2qOUrZde2ef0N/UTrH/F6K30fIUSQ6COAMJWHZWI9kmY0oW+S5wxQUvH6i6Ejm8b1RRRFUcVRfWzqYpi1CRw9eXXVog5G9q2cvBbGQTwtzLsTC0hAAEIxE6A9ih2C+VVviX8zR+91dXXyos2tYFAfgQQtiK1qUQpTbvT6KS2EVf+HQcTtCKt0iTF8gUu3XmpE/N0jBrLsQ3WEg3tJLBINAkC+FsSZqKQEIAABLInQHuUvYmjquBS/ub3pTTbo+lmeVSwKAwEIPCEAMLWEyRx7NBIoy5Ry57woePGijZx1PbwUpjA1cTiEHFrqYb2cCqkkCIB/C1Fq1FmCEAAAvkRoD3Kz6Yx12hpf9NAAhtUMOQhXTEzpWwQKIkAwlaE1u4StXRnwZ7q0TRKKcJqTV4k/45L3Xz5seLW0g3t5ODIICoC+FtU5qAwEIAABIolQHtUrOkXqXgs/qYn6aosjN5axA3IFAKjCSBsjUY3zYm6Q6CLadNTOnQ3wZ7koXnhbE8J+PPlq9M4baHI6v6nqez3xNLQ7kvEp5wJ4G85W5e6QQACEEiHgNojXjCY0wdi+Xf4o7ckdLFBAALxE0DYishGuoiq8Wi6gGrEkaba6Q5C3VpSEVVl8aL4o9rEzd/ET+JgX4ayCds4AvLlISLiuFzyOgt/y8ue1AYCEIAABNoJKE5QXKZpYGwQiImA4lj1veSbxLMxWYayQOApAXrsT5kstkcXTYkudZtNo9M0Rbb+BOqeiihBS42URm/12RAa+lCqP0bsqsJi/ZHsNQL4m5HgHQIQgAAEcidg68UqBu57wzF3JtQvLgJaTF79M8VnTYMP4ioxpYFAmQQQtiKxu90RqHsSB6LWYUay6Z2+wKJASg1Un+mcOo4XDOb0gcM8nrMhAAEIQAAC8RMgvu1vI/UPEP/685riSPUnGL01BVnShEAYAghbYTgelIqNIKq7C6Bhr7qIzjJS6+69Oz9eu9XquTu9+H5EnX5wl2efuNXxubu6az797vrSbc5O3HonGK3d0enn7veX167ltOYEe/xiI7f8YcS6+9I0Qq5HkhzSQUCiocQgNghAAAIQgAAEIOATsLiMp8/5VNo/K6ZqWoO3/Ux+DUXAH73FA7xCUSUdCIQhQK8zDMeDUrHRWtUh2PquNQfmEl/urs7d8YPYtD69cDeDavXRXV985o50fqOwdedu33/hTtZNo3+euZPzP7nbQfn2P1hPSpRIaJxNeOkzaqt/LhxpBOTXuruY6yaR1Hwp1zpSLwhAAAIQgEBIAmo3LR7zR9KHzCPXtBRT1d0Ez7W+MddLvqs+hfpp9CNithRlK4kAwlYE1taFsa6h0p0AX4iZtqjfu4vT5251/E/u7B+fu9XqU3d+9WPPLG/c1ebVvajVJmzdfu3OjjQi7Jk7Ofuju7p9GJ91d+0uvzh9OH9Ivj2L93CYCYUKqGyTaOh/t/28H05Ad2NzZivfmWUk5eGmIAUIQOD/b+/8WSRJzn1dX0JGfwatt/oAYw0IyThrrNvGuDIOXGNgjAMCGccYGEuWYLjLdXRhaRAcRwyMJ5AW5lprDOMtYjXOMcQwhlgOTVye7n6rs7MzK/9FZkZWPglFVWVlRkY8b2TEG794M0oCEpDA6gTicTp822oE/eoZ20gGGBcsNdm9ESSrZjNEWiLpjN5a1RReXAI3BBS2Vq4Isb5APfKDzn/RkONPb9Pzi0O6eP4m/f3ti3RxuEhPX7/vfjTw8/t09fzpwzWoGiO2rtOnm3S5RlM02N1jjIe23/MYqh6lFWttwdstLwGcrybBNu9V1ktt0ceE1yumV5aABCQgAQlMJhB9JlFH+lzjcEaU0LizPWsuAvEHCEZvzUXYdCXQj4DCVj9Osx1FREtTVAuRIMvNyoTodLe21p3IdXjyKr2LqKoGAg8eXbz8ffrr29/fPsrYKGzdRYS1rt8VeTj1KGNDJkbsgmuVLTOHhsOPANlxyqLCbEde5vo5hFFm6twkIAEJSEACEnhMIAQZ/N36RO7jo93TRgBxEN/KaLc2Quvtr0ZvWc/Xs4NX3jcBha2V7d8kqiwerXX9Q7p69kU6XLxIbz/xeGCXCHUL7UbYurhML998uFkX6yh0NQpbXaDvha3miK6u8/v/HlFbMWN47o/M9SeT78g9OV8Rdak4mq/+mJIEJCABCZwHgfhnah/dz2PPpnFDnpRNJQcBxhhEbmEnF/rPQdQ0JNCfgMJWf1bZj4zBfwgscYH4O9n4Pvd7CFL3gtI4kSnSaV88/lRJ/pU+vP46Hfo+AnkqqR6/0enEP/EszbtH9jZ/SEQybb4gPQuguNUTlIdJQAISkMBuCCBmEWHkxE8+k/PEgSJhPp5zpET0FpH81H2jt+YgbJoSaCagsNXMZZG9bYN/GsHlOq0QlGqLtsfjiAMWkZ8kbMXC8seosXlNUF2AMyK4DI/Px5y1taqPe+ZLudyUwoGnPrlJQAISkIAE9koAfwofwKiV/DUA/+qc/3E6P7H1UqxGbynurmcHr7wfAgpbK9q6bfBfjSaaPXvX79PrpxfpcZRVPI7YcxH5lNJoYev6x/T2BQvQf5GeXf3QvWB9Bih0MDhcsTGroiARNKa/LyvOTs9vrhQQt6hXrn+Ri6jpSEACEpDAlgjQ/yG82BfOYzUnY+fhOleq1egtxN76UzpzXdd0JbBHAgpbK1q9TdhaTmSJRw6bxaujUNWxiHwgPB4/aI2tT+n962fp4vBFunz9/c1aXZHenO/hGMQ1lmMeVzzvd5xa6vcet5ilVtzao/UtswQkIIH9EqDfQ9DCBzAKfp56AFd91nnYzplqVfCNpVDmvJ5pS2CPBBS2VrT6+sJWRGUdbjpJOsrm192/JXawGi5shah1kZ68eJM+sm79QpvC1ryg9+x04XTi1BN5qWM/bz0zdQlIQAISKINArDVJ5LJ937w22fPk4bxk50+dsR8+stFb87P2CvsjoLC1os1XF7aO62i1CVr3++8Xlm8HNkjY+vw+XT2/ffzw8tVfFhW1KIHCVrsdp/4SbPccbh3ilrPWU2uT50tAAhKQQOkEYrDO+qVu8xNAPGTJB7dtEojoLQQu7h03CUggDwGFrTwcR6XSJmwRxj3/IoOxaPzpda2OYlWPReSPx558FPE6ff5wlZ4/uUiHw9P0/Or9Yo8fVo1U7lEPAgAAIABJREFUX7h/zxFGVS45PsesbY60tpwGwp6PZGzZguZdAhKQgAROEWASJ/44ZX6/9VRO9vWb/+Z9HvZmHBh+ostXnIdNLcW6BBS2VuRfF1ciK4Snzj7rFYvGd/4LYTyu2LwOV+SZ925h6zp9fv9Nurw4pMPFZXr13cdFFoqv5jE++6+IQSL/e5tgm/9K5acY643g+LtJQAISkIAEzoVARCYzMCdS2205AvgWTMjuOTJ+OdrzXgkbMu4zemtezqa+DwIKWyvaua1jYiaG9Xnm3EKE6n7EMBaYP6RDxyLykebjf1i8Lcn1j1fpGaLW4Vfp5bt/zlm8zrR5RCzEQ2YZcczc8hBYRJjNk9VFUlHcWgSzF5GABCQggYUI0K/hp+JL8dlteQIIIUbJLc99ritGFB73lELxXJRN99wJKGytbGEElXrHhHo/76Nx/0zvXv4qHXo8XniDJ6K7DqcXkT8tbMU179ftooyNr84osmlGC0ExnDHXKpjGs342zq7/+PKQCvc4dZ1oNjcJSEACEpDAVgkw6I7Hp1wkfj0rOom4Hvu5rlyN3mLy3ftrLtKme64EFLZWtiyLPzYtAEmHxWuWLRaNP7kWVvXKsR7XIZ2K8DopbMU128Ss6v6ZhS2ELGZEYsNBU4gJGtPf5xVlp+dvrRRC3KoL2Wvlx+tKQAISkIAEhhCIfszH64dQm+dYl32Yh2sJqXKfMTZhotjorRIsYh62QkBha2VLhZNQV+VpyBQI8hsnorVY34wt1jlznYI8rKPe1utzntS3nwoCKve14tb2bWkJJCABCeyJABEkRh6XY/HwX8vJkTnJSQA/msAH7jmjt3KSNa1zJqCwVYB1UeWbHlEiYovIIkWCfEaCZzUSjs9NEXP5rrivlGKNgH2VelhpmenGUYlHYYed7dESkIAEJCCB5QhUB9hOyizHvetK8y9b0pUDf1+CAAJmRG/FpPwS1/UaEtgiAYWtAqyGqNW0WDydFo2ZId95jMSMBzwjOiuiiwzzzcOXVGBcFQ7zpXxeKXFPUxcVt87LrpZGAhKQwDkRQNRiQtD+qkyruqZpmXbJnauquMxkvAEPuQmb3rkQUNgqwJI0UDgNTVFbEWrsLNk0Q8Ujn1WOCDCKMNO41s+GJ+KWWzcBWDlY6ObkERKQgAQksDwBJl7ooxC2YkJw+Vx4xVMEEDl86uAUofP6jYl4xEzuS6O3zsu2liYPAYWtPBwnp4KoRUPV5Dy4Ls80vCFqVQWXEAyN1prGtn42dbgqHtZ/9/s9gZgJ93HjeyZ+koAEJCCB9QngI9GfMwFjdMj69mjLAeODpic+2o53//YJcD8ynmFJC6O3tm9PS5CXgMJWXp6TUqNzaosginV5FA2GIQ5Rq/o4Z0TIVYWuYal6dBMBuNLRKhY20WneBzOELcWtZj7ulYAEJCCBZQnEZGrVb1o2B16tLwH8Lfyupknxvml43DYJVKO3uGfdJCCBlBS2CqoF8Y99bQ2UzsYwY8WMRl3AQjxERERUcMtHIBysfCnuI6Xq4x77KLGllIAEJCCBEgnEJGqbH1pinveeJ4QtH0vbZy1gHMMTP9QBxjYKnPusB5b6noDC1j2LIj6FeNUW9UIEEuHhrnnQbi4adhr4psfiQuxy0e52fmN/oe4aEj+OXohbzpCP4+dZEpCABCQwngAD5PCbFEnGc1zjTOzWtEbvGnnxmusQwIdkXMi4R1F6HRt41TIIKGyVYYcHuWBwS+PUJr7YgD3A9eBLVfir84vHEnl3y0+AeouD5TaOAPWVWTfFrXH8PEsCEpCABIYTYDIwBsV1v2l4ap6xNAEmbPW9lqZe5vWM3irTLuZqOQIKW8uxHnSlmDk75WRUG7C2CK9BF93wwXCCGcIAnXz9McMQtZzJmM/I8HfWcBrfqKdynMbRsyUgAQlIoJsAvlM8BVD3m7rP9ogSCITfUEJezMP6BLinEaoZD+lLrm8Pc7AsAYWtZXn3vhoORp8ZtKqgQ6TH3p6vpryUO54vh0d9i07fSJg6mbzfsQGs3aYRiPoqy2kcPVsCEpCABNoJ0McgavnPau2MtvALfjD+V5P/u4X8m8d5CDCRH6K1dWMexqZaHgGFrfJscswR4hZiDA1T1yCXiK2IWOKcc4/gopEOQYt1ndrWhIg1tbr4HaH7YRQBHatR2FpPYpZNobAVjz9IQAISkMAEAtHH4CO5bZ8A4wSfSNi+HXOXAN88xoZGb+Wma3olElDYKtEqtTyFgNPHAakKXER8IeicS3g55aA8EWJLY90mWHEsv/cRBWu4/TqCAPUOIcYtH4EQtZ1py8fUlCQgAQnsnUD4lG3+0975bLH8RN1hVzcJNBGoRm+de+BDU/ndtx8CjkQ3YmsckAgpRYHv2iKiiXMQHOjwiGraoshFvmOQT3n4fGqwT6PNcURynTqui6G/9yfATBCCo1teAlHvrcd5uZqaBCQggb0RwP+LJS4c3J6X9fXBzsuec5SmGr3VtBbxHNc0TQksTUBha2niE67H4DackiEhx4hizOYgcPHiM+eXOlim8SV/9TxTjlPCHL/Fo4ece+rYCWbw1AYCCDAwd8tPIO75PoJ2/qubogQkIAEJbJ1A+I9O+G3dks35j6h5/d5mPu69J0CwQEz+K3Dfc/HTeRBQ2NqgHWNtBB61G9Io0eFF9BPODSIXjRuCBGmS1tKdItfjulyffJAf8kX+EEu6xKwwX0S0cT5ldFuWAOILNnTLT4B7BL68lr4/85fGFCUgAQlsnwBCUfgu9H34Y7zCt4qJxD7vtO2cG74YE3uknWsyg7TwjexDtl/v2kqAb0Bdw9ZuEugiQH2hvaHOGL3VRcvft0RAYWtL1qrktRpSigA0xgHiHAQhzsfhCQcMBwgni8YOhw2hiM5ybIcZDiDpkB7pkn6IWFyX64eQNaQs5Im0bJwrlWOFj/BXUJwPvOLWfGxNWQISkMApAvgwiE11X4l+D/+DF75N3V9q8ptoy2N/vJN21Teq+mNxDfwm/LUh/hFl4hzSIO9c2+18CVBvqEduEuhLAL+dsRiCvD58X2oeVzIBha2SrdMjbzhGMUOI4zLU6alfAgcuBCjUfBy2SB/nqP4KESycu6pY1XZszEricJH/MRvncU2uwfvUco/Jg+fcEqDOYAdtMG+NgHPcb/NeydQlIAEJ7JcAfVkshxA+DX5Q+C74H0uIRFV/DD+nmpeYCDyVD8Qw+mbFjn3UZeoE9cRNAkMI0IZQd2graONOtSlD0vVYCaxBQGFrDeozXBORKAQoGqaxglFX1kh36KsrzSG/U86YzaQDn6ucQ/K092MRQukQ3eYnEOIWToibBCQgAQnkIYCYhRAU/gX+VIhHJU3a0AeE6Ea/G4NRfKMYkFYHqux32wcBbI346SaBMQQYT9HuUYeM3hpD0HNKIOBotAQrZMwDDROCD84ODRQOUElO2Zii4sjhYNLY8uLz1ss0hkOp5zAb7CzhctbhHuf+VtxajrlXkoAEzo8AAlB1sgyfCXELn2MrGwPQ8I9C5Prqq69ufKUtlWMrvEvOJ/amDmj3kq1Udt5oEyPSc0z0Fv5pPPVDOowNeDF2o24OecW5tG+MM2irST8E/LJJmru1CChsrUV+5uvG7COOGg0Js5BbErnomGkU6/m3QZu54oxIns5PkWUEuAmn0MFzX3NPz71xz+FM9H3pVM9tEdOXgASmEMA/CjEoJsvOod1iQEl/TN/w9OnTm8GgPtOUmrK9c6nP+AduEphCAH+P8Rf1qc3P5BgEJ9qcGKvR9nAOolQIUhxT9x/rwQl8rx/DebxIh/SarhFp285NsfZ5nauwdV72bCxNXSSicUA0wgkqpTGgUaMzDmdzi2JcI/wd7HTB0nWMHOLWVCc2hCucF5yEmCXjHjz1Cqen65iqg4PjUndo1qHnVSUggb0RoP3Bx6DNov2a2naWyo82lracASYvPpfi65XK7FzyRX+Lf+8mgakEaDNoO2gvqVfff//90UcMvw//nzYV/5H2dYmN69B2R0RYNS/sWyofS5TVawwnoLA1nNmmz0DkogGikYrGAAcPxZ0GjAZh7oEneYhQVfKB40VeeCcfNFhz52HTRiws89guOjXqUN8XdYD6xkune5xR6cThP2SAFm1AfZYNB4X7MewXthlzL8a55Iv0YsYt2hze41olCezjrOBZEpBAyQRow0LQot2hfdrDRr9KGxyTELTF9rXnbXlsTF/uJoEcBPDPfve736Wf/exnN77mL3/5y+ICIygnbXrUffxLxpO0+eTfbV8EFLb2Ze9HpaUxQJSgAaAzrA88cQIZPNNg8IoBa9c7jUmcE4PapvRJG8eLwbZbuQRwhqPjCHuGINlUZ6g3XS+c7eq5fK6KK9aLfvUBe2CLtnuIQR0sEbLCZrDnvBAk+10pz1HkJ9oH6kjUAWxPm9FWjjxXNxUJSGAvBOi3aFOib6EP2+tGW0/7z4v+wO08CdC3Ut/dJDCWAD4aY7Pw0fHNaD9iIrX0djQEfXxe7gXaPPxdfcuxNWJb59n6bctei+SWmz9EDJxCGocQKWJgHIPRtncaxDiHBoV0YhBNo+lWNgHqAPZqiuoJe+JA/fGPf0xffvnl5MJEneOa1BXqTrWu8Z1OlWs64/wYNzaBV3Tc3GOwDDE5OnYGNCXyo73BvpFf2g++R3kel9g9EpCABNoJ0KbQjtD20Ra6pZu2Pwan9Kn6YudXK+jf8ctLFx/Oj/z2S0SdoV2g/tB20m5uvY0IkSt8S94V9rdfV0+VQGHrFB1/k8COCCAaIZDQoUXHxnc6tzaBIUSouTDRKZGvuE4IqXS+59Dp5uIGJzrsn//85+m3v/3tcZZqi+JQXZQLB4syuklAAhI4RYB2IsQbJmZsNx7Toj+nv0D0c5D3mM/W99Bn4jO5SaAPAdqA8PtpM89VFKXdY0wT4xvbvj61Y3vHKGxtz2bmWALZCISYhYNLY0+nNkQwikiqbBnqkRB5ZuASHTEO+pA897jEpg5h4Eb5f/3rX9/Y8Be/+EX629/+tqkytGUWkQtbR/3EKdn6DGJbWd0vAQlMI1AVbOgn3E4TQPyg36ddVQA8zWpLv2JPfDk3CZwigICF/xxtwF58K8pJ24dfyThCgetULdnebwpb27OZOZbAJALRqIcwhANEwz7GsSUNRJW1NgYyVZGLsuxlQIO9onOmg+bzP/7xj5uO+hydWuroHp2wte4tryuBLRFgkEY7SBuxlwFaDvtUuY3xAXLkwTTyEsAnwzdzk0ATAdrHeOQQX3Gv7SXtXURwweNcI9Wa6sA571PYOmfrWjYJVAjQeUUjjtODEDK1Q2Omp5TOAEGLTpo8Ub5znoXBcWUQF4JWdUCC2HfOZae+hVNGfZ5ahyu3iB8lIIENEqC9i6iDalu4waKskmXaUARB+hP6D7dtE6CP5H6wb9y2HefIfUyGcr+X4rvPUc4haXKfhE/JRLl9yBB65R2rsFWeTcyRBLISqDbaNN45RY+caeUqNOWNx9fOTeDCEaFMTYJWLn5bSQchs8piK/k2nxKQQD4CVVErX6r7S4nBnOLW+dgdYWsv0evnY7X5SlIdByBuuT0mwP2Cb41fqcD/mM9W9ihsbcVS5lMCAwnQkUWE1h7DbHHUY3aKjmrLTh5lQazDWd1z6HjTLRA2ZlCmM9JEyH0SOE8Cilp57aq4lZfnmqnh8+EzuEkgBBt9pO66QBsY0VtrLrPSnVOPaCOgsNVGxv0S2DCBeFRt64JODhPUBT6+b2lDrInIpC2Lc3MydzZyTrqmLYHyCNAuxuOH5eVuuzkKcYtBMJ/dtkkAUYsBOvcJkd5MAPFiHy98Cu6fIS/qBOcyuUZa+JmkvTWfapsWHZdr7BTtpPdzf4ZVbv3P8sgSCChslWAF8yCBTARwMHA+6MhomN3uCeDgwYZQ463MxJBPbIkjqVNyb8u2T8EL51tebZTcL4FtE6Cfox0nItktPwHaToQP2lG37RDAx6EP5L746quvHohW2JIXfiEvoh0RpaqvakmpA9Xf+EzanBuiWfiaIY6RPr+RtmJXleY6n+OJDezhNpxARLpRr/Unh/Nb6wyFrbXIe10JZCZA54Wzj7OBg+PWTADHDEes9M4qnBKcSbf+BKj73gf9eXmkBLZGgLabfs7BxnyWox11gmw+vjlSRjzCP2Diiz4PeyFI8h2B6euvv15EYKKuIALgW3FvVvOCH4Nv6r2aw+L904A7dlDU6s+s6ciqP2kdbiJU3j6FrfJsYo4kMJhAiCA4Fm7dBOis4vE+Ppe00XmGo+qjh+MsA8OIzivNvuNK5FkSkAAEGMgzgPe+nr8+yHp+xkOvgJiFaBXRUvgxIR6VFCXF/RmiG/crL/waRa6hFh9+fIhatpHD2TWdAceYLFXcaiJU1j6FrbLsYW4kMIhAdQCvCDII3c0MIo4WDlcps1pVe+qUDLNn/WhYxuyxLOt0/C6B7RHgnmaA4QTOcrajDeXlth4B6j0+SlXMQtzaUr+GfxqCS4hc+qz561Q8kSDbvGxD3KIOu5VNQGGrbPuYOwm0ElAEaUUz6Ac6qlLErYjU2pLDOgj2Cgcrbq0A3UtKYAYCtNVEqBS5Xb9Pr59epMPhy/T87X/3yOJP6eO7/0qvnz+96X/ogy4uX6Zv335In3ucvdQh9EXkzYHyUsTvr0MEVohBCLp8PgffgLoUk4rcz4gx+LNu0wjAtRRfdlpJyjybdebg68RKmfaJXClsBQnfJbAhAiFquc5IHqPFIxdrRm6FA3sOjmseq+RJJe4VHGid5zxMTUUCSxNgkF/yoO36w+v09O6Rq4vnb9Onk4A+pfevn6WLxn+lu0hPXrxJH69PJrDoj/RN+BpuyxDAB4A59Z1+61wf3+OeRiRAtItITPvocXUMliF+jkvBs/oQiLECIpdbmQQUtsq0i7mSQCuBGKgrarUiGvUDzuNaA6c1rz0K1sZO4p5hgOAjNRsznNmVwB0BBsDcw2Vu/53ePv8yHZ7+R3r5v75Mh8PX6fWHf7Vk9Tp9fvcqPUHUurhML99UIrSuP6Z33zxPTw4X6enr96kUbSuithzMtZg00+6I0MIPoa/aE298IO5vBa5xlYn64phgHLuhZxFtSF1VhB1KbpnjFbaW4exVJJCNgI+rZUP5KKGYJV0yaipm2lgzw20+AjE4M4x8PsamLIG5CDCQKPbe/fQ2Pb84pIvnb9Lf375IFyeFqTsR7PBFenb1Q4N4dff7xYv09lMp0la6GTTTP7rlJ8AAmbodEVp7ErTqNImIiQguxC63bgLxCOKe6003pXxHhM9ebH+Ur6ibTElha5NmM9N7JRDOz5LCy95Yh3C41GxMzLTtjfMa5Y37B8fETQIS2AaBEKXLvG+v06cbMetuba07kevw5FV697lBmIrfW6O6aukVYqIQHArJztlkAzEiIpVg7JZuImGY6IvItTLv+3IsRf1ZVXQevL5gnd0/07uXv0qHp6/Th4Yms3707fcx5zSnNGYvviQC7FLjhDF53Os5Clt7tbzl3hyBcO51fuY1HR0VjgIC19xbPIKoUDk36fv0Cdf3kcR7Hn6SQOkEGETQJhe5Xf+Qrp59kQ7HCKuIyGpZRD6ErePx9VKFsFXW44iICwgN9lV1e437jp8R4g2+hgPkxxypa/TXCAhGbz3mw57wIdcU/4atL1gvx0/p49vf3j6a3VvYGnNO/brTv9Mn0Te5lUVAYasse5gbCbQScEDeiib7D8yi4sTP/U9Qq8+0pX+lD6+/vilr94LHTZjHzZpd/3iVnl0cBs7QNV1/+L6wrWH7w9l5hgTWIMDAf9WIhBOFjkHdffsZwhSPJjYsIt9b2Go5/0Re5v6J/sqJtemUq4LN3D7G9NyunwLiAf4YbYAC4EN7MC5Yt20csr7gw7yn9Cl9uHpxK2qx5mAvYWvMOfXr5vlOvUR0dSuLgMJWWfYwNxJoJFDCrExjxs54J87CnFECRdj0GELOQsZD13QZOWsWEQ69HZn8lYyILaO28nM1RQnMQaDcmfGYGKgtFh/iVePjhh0RXZX2sVEYmwNwzzRpM10LsieslsOYUGEwjCCxZpRNS/aK3V3lprh1ayYE0tWjKO/aun7rC1aq1+f36er505v8U4abV5ewNeacyiVzf6Qekm+jCXOTnZaewtY0fp4tgUUI4AitG/IaDvzYWeT4J6jaAKBO7/OH9Pbbl+mSaJ6bzu6LdPny/6a3H07/eXo9mRzfcTrnDIFff6YtIgv+Lf3ny990LHhcJzp21uyn9OMV1+rpyNQvm+l7RG05sMgE1GQkMCMB+oIiIyxjYuDRgCzEq6bHCaMvPKTDk+fpm3cfjwvIX3/8Ln1TGeyVJmzhgzghML6ix2SWkUfjGNJf4zfhl/lIbLoZE8w5+dptpfAhe64veJdgRLnSrl9c/j799e3v09OOic4x53Tnf/oRRBMvsWzJ9JzuJwWFrf3Y2pJulADOEB35qrNU4cDT+QyO7Enp+uOb9OLJxem/Qf/8XXp5c0yIWtX3p+nF2x+PA4ClTMns9ByOAw4anfq6ztnd4At7/v3Nzb969QoFnzBrdnwEcWVhi/qDXY0+WOpO8joSGE+gTGErBnVN4lVKx4FY4yLyn9L718/uBf5oD3l/8h/p29f/fvObwtb4OlPamVVRq7S8bSk/+MGKW7cWWz2CMqJLj2OCEPRb1he8q2g3bePFZXr55kP6nCpt5aMJgvuaOeac+7Pn+xTjs/muYMpDCShsDSXm8RJYmMC2I3uu0+cPV+n5UbBqi9i6W6vpcJGePP8/6d3Hn24pX39M7755fvsM/rHzXM4AIUDlXgeDdUrmEMwGkTmGkLMOTDgkv0ov3/2zNZnjYG3ATNsxsRAuL36Tvn3TPUN3PG+mD4ha3FtuEpBA2QTKFLaizaxOwDR9bhvkfUof3r6u9I1EJ1+ldx//dfcvi82C2ZqWMmJrHH1FrXHc2s5S3LolQ7uY2zdtY960P/zBewE+xP5hT3ZEOr0mVu8yMuacpjJM3RePgxr9P5VkvvMVtvKxNCUJZCcQwsomI3vqC0PezEq3CFuxJkmjeBUDiLYBQnbsDxKcY+HiOdJ8kOnOL/FIYDDt55DcOBMDZ9pusxLC5Rfp2dUP6X8+vO4MPe8swsQD4nHEVSMhJ5bB0yWwBwJFClvRZ1WjrVo+3w/8+lgrHvuPtrnPOcsco7A1nHMMfNdd4Ht4vks/I8QtJqf22IdHvVpPUIl2qubTH9vF2v4TFWqMSDXmnBNZmPRTkf3TpBJt+2SFrW3bz9yfOYGtRvakB48uXqZXf32T/vC041HEVltGB7rODPYcocZzrt3VirH6Q9inKiSGQ1LdVz2n4XM/5+J+TZmLZ1fpx+t+oecNl8u+S4ckO1ITlEB2AuXdp9En3Qr11y0lPraPjYvIt530Pr0e3Ve2pJlpN1GurrHVHyaiA329olZ/ZkOORNAi8n2PdTIm5obwynps+JCPHh+Miej+/vqxnXyUVnuOx5zTntq0XxBXEf3dyiCgsFWGHcyFBBoJbDWy51bY+jJdvvxz+vAZJWOKsx4d5Toz2HNEza09ULt1CuqOR3Cu72+smjc7ezkXlUcQr368fcS013ntl832iw5JNpQmJIHZCBR3n0Z/1jkJ0NSmxr6W/iwmGAYM8mYDX0sYAcEBXA3Kia/w2mtE0QksWX+KyKW91ct1ha2I8G/2FY/+XeP6go/Nfzx+QJs35pzHV86zx3YxD8dcqShs5SJpOhKYgQCzUURtrbY1OfDheHc69ZVcRzpDZq5ZVPLju3T18vJ2Id27aJ9Kqot9zBlhFQ7JeuHzEW1QDxUPZ+WQ+q510OlcXP+Y3r7gL50fRjZ0nreQZXVIFgLtZSQwgQATPLxK2aL96n7EsNKmHgd51X3Vf0X8KX18d5VeXn6RDofTax2uxSFnP7hWGZa6Ln4bE1jrLiOxVGnXvc4eWYcfuQ75EOeb1hSs7msR72uZjva0r9/J6WPOqV0221f9yGwosySksJUFo4lIYB4C5xLZMzRi69hp3axZ8kW6fPWX9LHteY950D9INWfHta5DklIKYbJpduwoQPYbWB3t1JRWinW8DikeQQyop8+Lo+Z/z2nX+XPrFSSwTwIMXBFVythivcD6xEBL7o5tamWQdxT8q4PA+PxFunz9/c2/hbWkuMruiIxZb02fVYo96qJMWlFf9xZFNApWppPoy3ntZVvVjwwfsmVNQcYt8eoW/8eJVKX4kNQ3/ciy7jqFrbLsYW4kcCQwxyNwx8R7fcgX2TNM2KrMaB87SP4t8er2scZeec97ENECrC+SY1vVIUlNbO+dkHBGeJ/qkFz/eJWeXfD39a/SOx5HrWylOCU6JBWj+FEChRJYvy+sgIlBXaOYXznu+DH60Vqbyj/+/ukPlX9FpI/7Q/rTu4/pYWt5TGjVD4iLq/+T76oE+l+cNbXWZdVS53oXIdbF7BBvH9XhQ7q4fJm+/dO7xSciQ3hd818Ce+PNcOB6fmTUrYdR+PUiHX28Hk9pHI/t3aaOE8Pqecz1ffUna3IV5EzSUdg6E0NajPMjsF7HdcfylAN/nIXuF9kzTNiq2bIyu12P/KkdOdtXZl5zzQaua9e+IeSHdOjxqGm7QxLOT7NoVhXQbj4PcGhyGllhKydN05LAfARYq8hFuOfj25Uyg7dckztd19ry7yHC8qczq21H/6xfP17P5/XHN+nFk44/+7n+IV0947HZ5j5+DV+N9oF2Yg9b1LPFH3WNutXpH4av2bwOV9VG7X5k9aiHn8ec8zCFfN+4B/Dr3cogoLBVhh3MhQQeEVhXAMkb2TNJ2IJMdKY9Zn8egcywI6ewtZpDUlmX4KTTeWQ9xSFR2MpQ7UxCAhK4IxCPI663NuFtRtoG8nPvX7MihC9C3+V2mgC+wrrRWuG7/Vv6z5e/SReH7n78vkTX6fOHq0oUYVurJpuOAAAU1ElEQVTEVlyDiOzqOnGf0oc3r9Ilkdor+GoRtbUXkWGNNe9CUOqO6K/WkcdR+/d1blz0VeRjyLpc1Wvm+mzbmItkvnQUtvKxNCUJZCWwpgCSUsy2NM/GPXDiO2ducghTkZ/KOiVZaZ9OjMienLPV8Fs+ZD7Epi6GFYekI5JqrHMx9rzTVhr+6zp2GJ5Pz5DA3gmUsm7Rg76vJVpljmPWtD/9X66I5TXLscS1EbXWXVvrzlfCL/v7m/QckamjH7/l8il9uHqRnjyo023CVvhjTRH7sbbmEEEtn2X2FNm5/L+mZ1hfsMHUY/zBMec0XHryLh/RnowwewIKW9mRmqAE8hHAQV5j9ik6jVyRPacjru6FlPZZoHCkukSZfOyrKeV+ZC13etW8tn6OSKw+QmQ8htrx71xRT/o5zvc5G3vefQrTP8Xs7uKh/NOzbgoS2CUBBAOiFNaM2ppDtOqT5loGj4iENfyQtco89rrRp6wa2XbXd9/6UuE3NQlQlVKGb4CodXGZXv31TfrD0xOPIoZ/0OZLxO+9BLVKPjJ8jMjODEkVn8TiZR1s15hMra0vWCM7xh8cc07tslm+7klIzQJsgUQUthaA7CUkMJbAOosSRmfUJSLdC1KdwsbRcWqZAYwO8+I36erHnx7jOv7+Ir39tPzSurlDvon+WnYtiFgMtu8satSB/A4Jxi3BKVncKXxcq90jAQkMIICgRZ/oWlsDoE04VN7D4K3/GGJES4Xvdu+jtU8aRkT9l+ny5Z9v/6Cnw1/r7L/j/DbhaxjWQUev+6TDoKxOPjjKunz0/+Ssn0UC8i/TjApbZdrFXEnghsDyocbh5Fz0Wjw8heDUEdlzOmKLokaIM/+q8/v03cd7cev643fpm+dP0+FwkZ68/G7xv0GPWdickT04IszSLzezGzO3LcJiw/12dF5POKfHYwbOzI49ryGbo3cRNecAeTQ+T5TAKgSi7XQwNz9+JmDWjpCbv5T5rrCKv1bNfpOgFD7aiX68msTN50incZ2sHmLZyfMfXS37jnUmhLMXo1eC1DkfE+6FKvtBtI/UNbeyCChslWUPcyOBBwSWjyqZJ7KnW9hKKX3+Pr2+bPuXnYv05MWbxf9CGmPMZQM6xHXX4nhQ1Xb1xZm2XZnbwp4ZAQRpBJflJgbODGCP4igg9oBUO2RtQeV2wqgelR2TWvX9tcxXv54UpoYIWxE5Vk18/s8IPTnXRJ0/x+Ov4KPC49lNOTPWfGR84FYWAYWtsuxhbiTwgEAMwJdb3yKcoLyRPb2ELUp+/TG9+9MfKv/KQwTXy/Tt2w+LR2qFIeZ6hn7Jxxb6rOFSyjHBfc53Z9rmpGvaEpiXAIMK2mVefHbLS4DoZIRDI1qHcaUPXc5Xq+ctlg+o+273QlTnkhGR5MaFLXyrPUUxUdY9lTeq6ZrvRrOuSf/0tRW2TvPxVwmsTmAuYWX1gm0gA3MKi5H2X/7yl9lJlCJa9cnH3DBipm0J7nOXxfQlsFcCtJ+ILw7o8taAELXwO9yGEVhV2IpHDpuWBTgKVR2LyEdxj8fXRTIOuBfKWtftOp6/TsTW3oStiNry8eyowPO+x/Ik+pDzch6busLWWHKeJ4GFCNB44jDhyLstS4AZ6zmfoccBW2INkz6CUinHzG3huW06d/5NXwISuCUQIoyRRXlqBD6GkXDjWa4nbN2LTV39eKsYVS32UZiaKmw1nV+90Dyf9yZsQdEIonnqUlOqtJFOqDSRKWOfwlYZdjAXEjhJAHFF5/0kouw/LhFRFdFDe1kPIruRBibozOZAYB4ugcIJhLjFQMPHEscbKzgyaJPjOI7rCVuxhMThZhL0pLjVZxH5k8JWj381jvP7XGsc6pNn7VHY4p5lnKDgcrJqTP6RcZjrO07GOGsCCluz4jVxCeQhEFFbOJ9uyxDg32bmjNaKUsQiveutzRE5Oe93Hb/ztq+l2y+BqihjZPPwekDfw2BNUWs4u+oZawlb8S/DF8+u0o/X1RxVPofYdOixiPzx2JaIq3jssU24it+bHousZGmuj0wU7lHgiXbQSfB5alaMw3zkcx6+uVJV2MpF0nQkMDMBOmocT7f5CSwtNjkLNL9NESqXeOxz/pJ4BQlIoE4gHqPjHneSoE6n/TvRLQgyDobbGfX9Bf8MnstusWh813pWlccVuwSnLmErRYRY05pd99fp9djjDLDwlZe3wwwFGZFkiC+8u+UjEFz3Wq/ykZw/JYWt+Rl7BQlkIcBsDA6oDWsWnK2JENnD4GjJxwO5Jk6xM+atZpn0A/fMWrPpkzLuyRKQQG8CtKMINPaT3chghQAAK/+yvptXnyOYPOG16BYiVFv0VDUzEUl1aBKkKgdGmoeWiK3KAvKHi8v06ruP6TZQ7FP68OZVurzgkciOa1Qul/sj/tuehZ0QYfbMIGedCp6K/zmpzpeWwtZ8bE1ZAtkJ4IDiiBoKmx3tMcG1BCYiDnDIFLeOpsjyIZwSnbwsOE1EAsUT4F6PttTorcfmwo+AD4/au7zBYz5j98B1ieUL7vN3nT6/e5We9Hm88OakiO46pJPRVJ3CFn+O+D69fnpx44/ikz58XaQnL96kj22PRd4XIPunmADe+yPJ4fc4ET6tigVHRa1pHJc8W2FrSdpeSwIZCNDA4pTqkGaAWUtibbbYNAZkzKi7TSMQTgnvbhKQwH4IMLCNiCTaddvTdOMzBBMGvDLJez9Q5xB4lvPN4pHAtsiqx+WL9bgOpyK8jqJVR7qfP6S33768i9C6E7eePE+v//RuFVGL0hJpv6y4+JhxKXvC/1GUGWeRiPSX3zh+a52lsLUWea8rgQkEiOpR3JoAsOFUOi+c0rVn+BW3GowzYldENypqjYDnKRI4EwJENzPQpb/cq5iD4BL9G8LWcsLLmVSiAcXAN1tyGYMBWdvFodzr8r83Ne1fTJbuPYrtnsrpTwj+PFLMeED/8TSrEn9V2CrRKuZJAh0EaHgVtzogDfg5nP5SOjEGHjho2NhByABD3h1amj2Hl8AzJCCBXAToLxG1GODtSeCqClr0Jy5hkKtGtacTj3kaDdfOaK5fmJREjFDAeUgYHzLGC7YBD9nUv1GHYiJk7Unuet783o+AwlY/Th4lgeIIKG7lMUmpIkjVvqUIbnmIz5cKDq0O3Hx8TVkCWyZQF7ho+89xEMzgNSIOGKTZfyxXa6ljIZ4ud1WvBAGiEXm5PSZAvSSSDeGPtoHvbvcE5HPPYuufFLa2bkHzv2sCNMalCjOlGwZ2IYKUPDOjM9KvJsVMOTY9x8FqPwoeJQEJ9CGA2ENbwUCPd75vebBHm0dUGkJWDF5L7tf62Girx0R04Jbr09bYI+ZS763zpy0Hn4hIwmdySzdtfzAxom37NUJha/s2tAQSuHFo6dQRuXSmuisEnXusO7CFR/3obOMxGjveh/ZlQBcLIru2xkM2fpOABE4ToP2n36R9DUEIkWsL4jh5R0QJgY7BGd+3kPfTVtn2r/hg2IJ65TY/AXkPYwyvEF+pp3uN6GQcEL6jY6dhdajkoxW2SraOeZPAAAIhftBROWvVDI4OfasRUOSdzpfBF53x3gcvVeeMgZ11vrnOu1cCEuhHgD60KnLRrtBfsJ/2Zu2NNp9BKHmkn6cv4J08bmGCZm1+S16fOoN9eHeblwD1H2G6hHt03pLmTZ32JHzKPQlcVUFLXzpvnSohNYWtEqxgHiSQiQAde6ytQWdvR38Pls6MzhsHaMvOZrVTxinZo8DF4C4i2Aynv6/jfpKABPIQiGiomNEPEYn+lWgH2uE5xSTSp5/iWuQhIsp4Jw+0e3ts+/NYd5lUQiTVTvPxVkCczrYucNHmnNvYgfLgN8aEAG0obazb+RFQ2Do/m1oiCdw4xDHw32uYcVQDOu0YnNCZnUuHXe2k9yBwYTccrhAnz9H5ijrruwQkUBYBBkGISbS10Z8gdoXgxb4QvWibeNFGc17Ti7TiON45n1cIWKTLZ/YxSUVaCiRl1Ymu3NBnEfXH61z8jq4yL/k7wjL3CPek23QCtC+0RdEG0Z5teRIYIrS9ITBHXbEdnV5XSk5BYatk65g3CUwgEEJAON57E7jovOjQKD+DAzq4c9ywK45zlPPc7IzzWnVMcLwcJJxjTbZMEtgWAfoY+hXa3BCpQqCK9xgk0j7HC3E+fue9KogxkCRN27ht1YW23FJHqAPY2C0fgRC18H3c8hOgTaPO0maFIETbtIV2iXwyGRDRWdQRyrOFvOe35P5SVNjan80t8c4IVAUeGvpzb+BDCKFDjvLuweQxMxWOCB07LLa4UWeJaAjBTsdki1Y0zxKQgAQkECKMkUV56gL+AT4BL8WKPEzbUoFvVeTCv0SMR8gvZbKY+wt/ESEuJhKoG+yjrrjti4DC1r7sbWl3TIAGHrGDhp/XloWPuhmj86Uzi46XzniPGyyqohDiHrYuPaQ8nJOw4bnV0T3WRcssAQlIQALpZpKJPg1RQDFmfI0IkVBRazzDKWdGNFT4afjbfEa0xe+cM9qU+4b0uQ4+LfcS1+eFn0sezn3ifort9nKuwtZeLG05JXBHoC4C0SltdWaDTrb6mBqfcXzcbglE5FPVAajOtq3pYIeQhc1wSsI52YIIZ/2SgAQkIAEJDCFQFWWMJBlC7vZYRA3EQUWt4ezmOCOEJqK3iJaqil0heOFv4uPFo9q847djy6ZX9bgQr6r+a/iJ4ceS1pp+7BxcTXMaAYWtafw8WwKbJoCjRecRwgIdE9/pcErccAYjLBoHh06ODtVZmm5r0fk3zbZhexhWHY7u1PofQR2jPpF+OCrYLRwUrr1VYbU/BY+UgAQkIIG9E8CHwc/CfynVzyrRRvgP+AyIJG5lEwifD7+u6vchRsUrfMDqO/dF/M57VRDjXiFdNwl0EVDY6iLk7xLYCYEQuaqzLnQudEx0KmvMipAnRKtqVA8OoWJWnkqJXath3SEWhrNRdTRC/KI+NL1CtArHJNKId9KKNBDYnLHOY0NTkYAEJCCB7RDAl8KnoW+kL3VrJwArfApY4au4SUACEjhFQGHrFB1/k8BOCVSje8KpwLFA+OA7IkYIXlNnHWN2BwGLNBE/quJaRBTh1Dhjs0yFxKa8wiYhZGGbEK7q71En4thIYw1BdBlKXkUCEpCABCQwjgD9Kz4V/s5UP2pcDso+C58PPviA+n5l28rcSaAUAgpbpVjCfEigcAIRPYVwEaJGRONU36tRPnFc/b0eGcT5OC8cF+HHOHqKIoVXCrMnAQlIQAISkMAoAkQu4/fgA+H76PPcLrQfTJgwk8moquVJEtglAYWtXZrdQksgL4GIukKM4jGziNppemcWLqJ5FK/y2sHUJCABCUhAAhLYFgH8Jib3mPTDb9qjmIPIF49oImwZpbWtOmxuJVACAYWtEqxgHiQgAQlIQAISkIAEJCCBXRJAzELUQtzak8BVFbQQ9xD53CQgAQmMIaCwNYaa50hAAhKQgAQkIAEJSEACEshIoC5wEcV0jn+2goDFup2xFAVrjrlJQAISmEJAYWsKPc+VgAQkIAEJSEACEpCABCSQmQBiT/yZDu983/Jjigh0RKURmYWghbDFkhRuEpCABHIQUNjKQdE0JCABCUhAAhKQgAQkIAEJZCbAelNEbsUf7yAIIXJtIZKLvLO2agh0iFqIW1vIe2YzmpwEJDAzAYWtmQGbvAQkIAEJSEACEpCABCQggakEeISvKnIhGPHvgewvIZoLwQrRjTxGZBbv5NEF4ada3/MlIIFTBBS2TtHxNwlIQAISkIAEJCABCUhAAoURQCgi+ol/EeTRvliviogu9vOY35xiEukjqEUeIqKMd/JApJaRWYVVGrMjgTMmoLB1xsa1aBKQgAQkIAEJSEACEpDA+RNAaEJMIlqqKnaF4MW+EL0Qo3gRXcV5TS/SiuNCvCKNELBIl8/sIyJrK49Hnn9NsIQS2CcBha192t1SS0ACEpCABCQgAQlIQAJnTICIKUQrRKcQqRCiqq+qUFWN/KoeUxXEiNIizRIefTxj01k0CUhgIAGFrYHAPFwCEpCABCQgAQlIQAISkIAEJCABCUigDAIKW2XYwVxIQAISkIAEJCABCUhAAhKQgAQkIAEJDCSgsDUQmIdLQAISkIAEJCABCUhAAhKQgAQkIAEJlEFAYasMO5gLCUhAAhKQgAQkIAEJSEACEpCABCQggYEEFLYGAvNwCUhAAhKQgAQkIAEJSEACEpCABCQggTIIKGyVYQdzIQEJSEACEpCABCQgAQlIQAISkIAEJDCQgMLWQGAeLgEJSEACEpCABCQgAQlIQAISkIAEJFAGAYWtMuxgLiQgAQlIQAISkIAEJCABCUhAAhKQgAQGElDYGgjMwyUgAQlIQAISkIAEJCABCUhAAhKQgATKIKCwVYYdzIUEJCABCUhAAhKQgAQkIAEJSEACEpDAQAIKWwOBebgEJCABCUhAAhKQgAQkIAEJSEACEpBAGQQUtsqwg7mQgAQkIAEJSEACEpCABCQgAQlIQAISGEhAYWsgMA+XgAQkIAEJSEACEpCABCQgAQlIQAISKIOAwlYZdjAXEpCABCQgAQlIQAISkIAEJCABCUhAAgMJKGwNBObhEpCABCQgAQlIQAISkIAEJCABCUhAAmUQUNgqww7mQgISkIAEJCABCUhAAhKQgAQkIAEJSGAgAYWtgcA8XAISkIAEJCABCUhAAhKQgAQkIAEJSKAMAosJW//7z/8vNb2qGJp+j319jlvyGPJV3SKf9fclj1k6T9Xr1ctd/X7ODPqUrcqJ46tsqp/7pJXrGPN02x7l4pkrHe3Sr11dmtPS1+tTn8xT+XUFG7W9+tg41zHWlTLrSh/7Lm27pa9XIgPz5P2S8z7ImVafutnnmKXzVL0en9teffKe65hqnkjTPI23S9Uma39eTNhau6BeXwISkIAEJCABCUhAAhKQgAQkIAEJSOC8CChsnZc9LY0EJCABCUhAAhKQgAQkIAEJSEACEtgNAYWt3ZjagkpAAhKQgAQkIAEJSEACEpCABCQggfMioLB1Xva0NBKQgAQkIAEJSEACEpCABCQgAQlIYDcEFLZ2Y2oLKgEJSEACEpCABCQgAQlIQAISkIAEzovA/wdF8Cv7y5vcTQAAAABJRU5ErkJggg==;" vertex="1" parent="1">
          <mxGeometry x="330" y="70" width="446" height="302.14" as="geometry" />
        </mxCell>
        <mxCell id="sZWga9BNV3LrwHPmDbqd-4" value="&lt;u&gt;A1&lt;/u&gt;" style="whiteSpace=wrap;html=1;align=center;" vertex="1" parent="1">
          <mxGeometry x="280" y="410" width="100" height="40" as="geometry" />
        </mxCell>
        <mxCell id="sZWga9BNV3LrwHPmDbqd-5" value="A2" style="whiteSpace=wrap;html=1;align=center;" vertex="1" parent="1">
          <mxGeometry x="380" y="410" width="100" height="40" as="geometry" />
        </mxCell>
        <mxCell id="sZWga9BNV3LrwHPmDbqd-6" value="A3" style="whiteSpace=wrap;html=1;align=center;" vertex="1" parent="1">
          <mxGeometry x="480" y="410" width="100" height="40" as="geometry" />
        </mxCell>
        <mxCell id="sZWga9BNV3LrwHPmDbqd-7" value="A7" style="whiteSpace=wrap;html=1;align=center;" vertex="1" parent="1">
          <mxGeometry x="580" y="410" width="100" height="40" as="geometry" />
        </mxCell>
        <mxCell id="sZWga9BNV3LrwHPmDbqd-61" style="edgeStyle=orthogonalEdgeStyle;rounded=0;orthogonalLoop=1;jettySize=auto;html=1;exitX=0;exitY=1;exitDx=0;exitDy=0;entryX=1;entryY=0;entryDx=0;entryDy=0;" edge="1" parent="1" source="sZWga9BNV3LrwHPmDbqd-8" target="sZWga9BNV3LrwHPmDbqd-13">
          <mxGeometry relative="1" as="geometry" />
        </mxCell>
        <mxCell id="sZWga9BNV3LrwHPmDbqd-8" value="A8" style="whiteSpace=wrap;html=1;align=center;" vertex="1" parent="1">
          <mxGeometry x="680" y="410" width="100" height="40" as="geometry" />
        </mxCell>
        <mxCell id="sZWga9BNV3LrwHPmDbqd-9" value="&lt;b&gt;E1&lt;/b&gt;" style="text;html=1;strokeColor=none;fillColor=none;align=center;verticalAlign=middle;whiteSpace=wrap;rounded=0;" vertex="1" parent="1">
          <mxGeometry x="280" y="390" width="40" height="20" as="geometry" />
        </mxCell>
        <mxCell id="sZWga9BNV3LrwHPmDbqd-11" value="A4" style="whiteSpace=wrap;html=1;align=center;" vertex="1" parent="1">
          <mxGeometry x="280" y="500" width="100" height="40" as="geometry" />
        </mxCell>
        <mxCell id="sZWga9BNV3LrwHPmDbqd-13" value="A7" style="whiteSpace=wrap;html=1;align=center;" vertex="1" parent="1">
          <mxGeometry x="380" y="500" width="100" height="40" as="geometry" />
        </mxCell>
        <mxCell id="sZWga9BNV3LrwHPmDbqd-14" value="A8" style="whiteSpace=wrap;html=1;align=center;" vertex="1" parent="1">
          <mxGeometry x="480" y="500" width="100" height="40" as="geometry" />
        </mxCell>
        <mxCell id="sZWga9BNV3LrwHPmDbqd-15" value="&lt;b&gt;E2&lt;/b&gt;" style="text;html=1;strokeColor=none;fillColor=none;align=center;verticalAlign=middle;whiteSpace=wrap;rounded=0;" vertex="1" parent="1">
          <mxGeometry x="280" y="480" width="40" height="20" as="geometry" />
        </mxCell>
        <mxCell id="sZWga9BNV3LrwHPmDbqd-16" value="" style="endArrow=none;html=1;" edge="1" parent="1">
          <mxGeometry width="50" height="50" relative="1" as="geometry">
            <mxPoint x="400" y="530" as="sourcePoint" />
            <mxPoint x="560" y="530" as="targetPoint" />
          </mxGeometry>
        </mxCell>
        <mxCell id="sZWga9BNV3LrwHPmDbqd-63" style="edgeStyle=orthogonalEdgeStyle;rounded=0;orthogonalLoop=1;jettySize=auto;html=1;entryX=0.5;entryY=0;entryDx=0;entryDy=0;" edge="1" parent="1" source="sZWga9BNV3LrwHPmDbqd-18" target="sZWga9BNV3LrwHPmDbqd-23">
          <mxGeometry relative="1" as="geometry" />
        </mxCell>
        <mxCell id="sZWga9BNV3LrwHPmDbqd-18" value="A9" style="whiteSpace=wrap;html=1;align=center;" vertex="1" parent="1">
          <mxGeometry x="280" y="580" width="100" height="40" as="geometry" />
        </mxCell>
        <mxCell id="sZWga9BNV3LrwHPmDbqd-19" value="A7" style="whiteSpace=wrap;html=1;align=center;" vertex="1" parent="1">
          <mxGeometry x="380" y="580" width="100" height="40" as="geometry" />
        </mxCell>
        <mxCell id="sZWga9BNV3LrwHPmDbqd-62" style="edgeStyle=orthogonalEdgeStyle;rounded=0;orthogonalLoop=1;jettySize=auto;html=1;exitX=0;exitY=0;exitDx=0;exitDy=0;entryX=0;entryY=1;entryDx=0;entryDy=0;" edge="1" parent="1" source="sZWga9BNV3LrwHPmDbqd-20" target="sZWga9BNV3LrwHPmDbqd-14">
          <mxGeometry relative="1" as="geometry" />
        </mxCell>
        <mxCell id="sZWga9BNV3LrwHPmDbqd-20" value="A8" style="whiteSpace=wrap;html=1;align=center;" vertex="1" parent="1">
          <mxGeometry x="480" y="580" width="100" height="40" as="geometry" />
        </mxCell>
        <mxCell id="sZWga9BNV3LrwHPmDbqd-21" value="&lt;b&gt;R2&lt;/b&gt;" style="text;html=1;strokeColor=none;fillColor=none;align=center;verticalAlign=middle;whiteSpace=wrap;rounded=0;" vertex="1" parent="1">
          <mxGeometry x="280" y="560" width="40" height="20" as="geometry" />
        </mxCell>
        <mxCell id="sZWga9BNV3LrwHPmDbqd-22" value="" style="endArrow=none;html=1;" edge="1" parent="1">
          <mxGeometry width="50" height="50" relative="1" as="geometry">
            <mxPoint x="295" y="610" as="sourcePoint" />
            <mxPoint x="555" y="610" as="targetPoint" />
          </mxGeometry>
        </mxCell>
        <mxCell id="sZWga9BNV3LrwHPmDbqd-23" value="&lt;u&gt;A9&lt;/u&gt;" style="whiteSpace=wrap;html=1;align=center;" vertex="1" parent="1">
          <mxGeometry x="280" y="660" width="100" height="40" as="geometry" />
        </mxCell>
        <mxCell id="sZWga9BNV3LrwHPmDbqd-24" value="A10" style="whiteSpace=wrap;html=1;align=center;" vertex="1" parent="1">
          <mxGeometry x="380" y="660" width="100" height="40" as="geometry" />
        </mxCell>
        <mxCell id="sZWga9BNV3LrwHPmDbqd-25" value="A11" style="whiteSpace=wrap;html=1;align=center;" vertex="1" parent="1">
          <mxGeometry x="480" y="660" width="100" height="40" as="geometry" />
        </mxCell>
        <mxCell id="sZWga9BNV3LrwHPmDbqd-28" value="&lt;b&gt;E3&lt;/b&gt;" style="text;html=1;strokeColor=none;fillColor=none;align=center;verticalAlign=middle;whiteSpace=wrap;rounded=0;" vertex="1" parent="1">
          <mxGeometry x="280" y="640" width="40" height="20" as="geometry" />
        </mxCell>
        <mxCell id="sZWga9BNV3LrwHPmDbqd-29" value="&lt;u&gt;A14&lt;/u&gt;" style="whiteSpace=wrap;html=1;align=center;" vertex="1" parent="1">
          <mxGeometry x="280" y="750" width="100" height="40" as="geometry" />
        </mxCell>
        <mxCell id="sZWga9BNV3LrwHPmDbqd-30" value="A13" style="whiteSpace=wrap;html=1;align=center;" vertex="1" parent="1">
          <mxGeometry x="380" y="750" width="100" height="40" as="geometry" />
        </mxCell>
        <mxCell id="sZWga9BNV3LrwHPmDbqd-31" value="A12" style="whiteSpace=wrap;html=1;align=center;" vertex="1" parent="1">
          <mxGeometry x="380" y="830" width="100" height="40" as="geometry" />
        </mxCell>
        <mxCell id="sZWga9BNV3LrwHPmDbqd-34" value="&lt;b&gt;E4&lt;/b&gt;" style="text;html=1;strokeColor=none;fillColor=none;align=center;verticalAlign=middle;whiteSpace=wrap;rounded=0;" vertex="1" parent="1">
          <mxGeometry x="280" y="730" width="40" height="20" as="geometry" />
        </mxCell>
        <mxCell id="sZWga9BNV3LrwHPmDbqd-35" value="&lt;b&gt;A12&lt;/b&gt;" style="text;html=1;strokeColor=none;fillColor=none;align=center;verticalAlign=middle;whiteSpace=wrap;rounded=0;" vertex="1" parent="1">
          <mxGeometry x="280" y="810" width="40" height="20" as="geometry" />
        </mxCell>
        <mxCell id="sZWga9BNV3LrwHPmDbqd-64" style="edgeStyle=orthogonalEdgeStyle;rounded=0;orthogonalLoop=1;jettySize=auto;html=1;entryX=0.5;entryY=1;entryDx=0;entryDy=0;" edge="1" parent="1" source="sZWga9BNV3LrwHPmDbqd-36" target="sZWga9BNV3LrwHPmDbqd-29">
          <mxGeometry relative="1" as="geometry" />
        </mxCell>
        <mxCell id="sZWga9BNV3LrwHPmDbqd-36" value="A14" style="whiteSpace=wrap;html=1;align=center;" vertex="1" parent="1">
          <mxGeometry x="280" y="830" width="100" height="40" as="geometry" />
        </mxCell>
        <mxCell id="sZWga9BNV3LrwHPmDbqd-37" value="" style="endArrow=none;html=1;" edge="1" parent="1">
          <mxGeometry width="50" height="50" relative="1" as="geometry">
            <mxPoint x="300" y="860" as="sourcePoint" />
            <mxPoint x="360" y="860" as="targetPoint" />
          </mxGeometry>
        </mxCell>
        <mxCell id="sZWga9BNV3LrwHPmDbqd-38" value="A15" style="whiteSpace=wrap;html=1;align=center;" vertex="1" parent="1">
          <mxGeometry x="280" y="910" width="100" height="40" as="geometry" />
        </mxCell>
        <mxCell id="sZWga9BNV3LrwHPmDbqd-39" value="A16" style="whiteSpace=wrap;html=1;align=center;" vertex="1" parent="1">
          <mxGeometry x="380" y="910" width="100" height="40" as="geometry" />
        </mxCell>
        <mxCell id="sZWga9BNV3LrwHPmDbqd-66" style="edgeStyle=orthogonalEdgeStyle;rounded=0;orthogonalLoop=1;jettySize=auto;html=1;entryX=0;entryY=0.5;entryDx=0;entryDy=0;" edge="1" parent="1" source="sZWga9BNV3LrwHPmDbqd-40" target="sZWga9BNV3LrwHPmDbqd-4">
          <mxGeometry relative="1" as="geometry">
            <Array as="points">
              <mxPoint x="530" y="980" />
              <mxPoint x="260" y="980" />
              <mxPoint x="260" y="430" />
            </Array>
          </mxGeometry>
        </mxCell>
        <mxCell id="sZWga9BNV3LrwHPmDbqd-40" value="A1" style="whiteSpace=wrap;html=1;align=center;" vertex="1" parent="1">
          <mxGeometry x="480" y="910" width="100" height="40" as="geometry" />
        </mxCell>
        <mxCell id="sZWga9BNV3LrwHPmDbqd-41" value="&lt;b&gt;R4&lt;/b&gt;" style="text;html=1;strokeColor=none;fillColor=none;align=center;verticalAlign=middle;whiteSpace=wrap;rounded=0;" vertex="1" parent="1">
          <mxGeometry x="280" y="890" width="40" height="20" as="geometry" />
        </mxCell>
        <mxCell id="sZWga9BNV3LrwHPmDbqd-65" style="edgeStyle=orthogonalEdgeStyle;rounded=0;orthogonalLoop=1;jettySize=auto;html=1;entryX=0.75;entryY=1;entryDx=0;entryDy=0;exitX=0.25;exitY=0;exitDx=0;exitDy=0;" edge="1" parent="1" source="sZWga9BNV3LrwHPmDbqd-48" target="sZWga9BNV3LrwHPmDbqd-29">
          <mxGeometry relative="1" as="geometry">
            <Array as="points">
              <mxPoint x="605" y="890" />
              <mxPoint x="510" y="890" />
              <mxPoint x="510" y="810" />
              <mxPoint x="355" y="810" />
            </Array>
          </mxGeometry>
        </mxCell>
        <mxCell id="sZWga9BNV3LrwHPmDbqd-48" value="A14" style="whiteSpace=wrap;html=1;align=center;" vertex="1" parent="1">
          <mxGeometry x="580" y="910" width="100" height="40" as="geometry" />
        </mxCell>
        <mxCell id="sZWga9BNV3LrwHPmDbqd-49" value="" style="endArrow=none;html=1;" edge="1" parent="1">
          <mxGeometry width="50" height="50" relative="1" as="geometry">
            <mxPoint x="500" y="940" as="sourcePoint" />
            <mxPoint x="660" y="940" as="targetPoint" />
          </mxGeometry>
        </mxCell>
        <mxCell id="sZWga9BNV3LrwHPmDbqd-50" value="A14" style="whiteSpace=wrap;html=1;align=center;" vertex="1" parent="1">
          <mxGeometry x="550" y="750" width="100" height="40" as="geometry" />
        </mxCell>
        <mxCell id="sZWga9BNV3LrwHPmDbqd-69" style="edgeStyle=orthogonalEdgeStyle;rounded=0;orthogonalLoop=1;jettySize=auto;html=1;entryX=0.5;entryY=1;entryDx=0;entryDy=0;" edge="1" parent="1" source="sZWga9BNV3LrwHPmDbqd-51" target="sZWga9BNV3LrwHPmDbqd-23">
          <mxGeometry relative="1" as="geometry">
            <Array as="points">
              <mxPoint x="700" y="720" />
              <mxPoint x="330" y="720" />
            </Array>
          </mxGeometry>
        </mxCell>
        <mxCell id="sZWga9BNV3LrwHPmDbqd-51" value="A9" style="whiteSpace=wrap;html=1;align=center;" vertex="1" parent="1">
          <mxGeometry x="650" y="750" width="100" height="40" as="geometry" />
        </mxCell>
        <mxCell id="sZWga9BNV3LrwHPmDbqd-53" value="&lt;b&gt;R3&lt;/b&gt;" style="text;html=1;strokeColor=none;fillColor=none;align=center;verticalAlign=middle;whiteSpace=wrap;rounded=0;" vertex="1" parent="1">
          <mxGeometry x="550" y="730" width="40" height="20" as="geometry" />
        </mxCell>
        <mxCell id="sZWga9BNV3LrwHPmDbqd-54" value="" style="endArrow=none;html=1;" edge="1" parent="1">
          <mxGeometry width="50" height="50" relative="1" as="geometry">
            <mxPoint x="565" y="780" as="sourcePoint" />
            <mxPoint x="720" y="780" as="targetPoint" />
          </mxGeometry>
        </mxCell>
        <mxCell id="sZWga9BNV3LrwHPmDbqd-67" style="edgeStyle=orthogonalEdgeStyle;rounded=0;orthogonalLoop=1;jettySize=auto;html=1;entryX=0.5;entryY=0;entryDx=0;entryDy=0;exitX=0;exitY=0.5;exitDx=0;exitDy=0;" edge="1" parent="1" source="sZWga9BNV3LrwHPmDbqd-50" target="sZWga9BNV3LrwHPmDbqd-48">
          <mxGeometry relative="1" as="geometry">
            <Array as="points">
              <mxPoint x="530" y="770" />
              <mxPoint x="530" y="880" />
              <mxPoint x="630" y="880" />
            </Array>
          </mxGeometry>
        </mxCell>
        <mxCell id="sZWga9BNV3LrwHPmDbqd-55" value="A14" style="whiteSpace=wrap;html=1;align=center;" vertex="1" parent="1">
          <mxGeometry x="550" y="830" width="100" height="40" as="geometry" />
        </mxCell>
        <mxCell id="sZWga9BNV3LrwHPmDbqd-68" style="edgeStyle=orthogonalEdgeStyle;rounded=0;orthogonalLoop=1;jettySize=auto;html=1;exitX=0;exitY=0;exitDx=0;exitDy=0;entryX=1;entryY=1;entryDx=0;entryDy=0;" edge="1" parent="1" source="sZWga9BNV3LrwHPmDbqd-56" target="sZWga9BNV3LrwHPmDbqd-50">
          <mxGeometry relative="1" as="geometry" />
        </mxCell>
        <mxCell id="sZWga9BNV3LrwHPmDbqd-56" value="A9" style="whiteSpace=wrap;html=1;align=center;" vertex="1" parent="1">
          <mxGeometry x="650" y="830" width="100" height="40" as="geometry" />
        </mxCell>
        <mxCell id="sZWga9BNV3LrwHPmDbqd-57" value="&lt;b&gt;RA17&lt;/b&gt;" style="text;html=1;strokeColor=none;fillColor=none;align=center;verticalAlign=middle;whiteSpace=wrap;rounded=0;" vertex="1" parent="1">
          <mxGeometry x="550" y="810" width="40" height="20" as="geometry" />
        </mxCell>
        <mxCell id="sZWga9BNV3LrwHPmDbqd-58" value="" style="endArrow=none;html=1;" edge="1" parent="1">
          <mxGeometry width="50" height="50" relative="1" as="geometry">
            <mxPoint x="565" y="860" as="sourcePoint" />
            <mxPoint x="720" y="860" as="targetPoint" />
          </mxGeometry>
        </mxCell>
        <mxCell id="sZWga9BNV3LrwHPmDbqd-59" value="A18" style="whiteSpace=wrap;html=1;align=center;" vertex="1" parent="1">
          <mxGeometry x="750" y="830" width="100" height="40" as="geometry" />
        </mxCell>
        <mxCell id="sZWga9BNV3LrwHPmDbqd-60" value="A19" style="whiteSpace=wrap;html=1;align=center;" vertex="1" parent="1">
          <mxGeometry x="850" y="830" width="100" height="40" as="geometry" />
        </mxCell>
        <mxCell id="sZWga9BNV3LrwHPmDbqd-70" value="" style="shape=image;verticalLabelPosition=bottom;labelBackgroundColor=#ffffff;verticalAlign=top;aspect=fixed;imageAspect=0;image=https://res.cloudinary.com/awsteyouthvn/image/upload/v1632470122/files/z9lajlfzsibl5pd8tlcp.png;" vertex="1" parent="1">
          <mxGeometry x="180" y="1130" width="520" height="379" as="geometry" />
        </mxCell>
        <mxCell id="sZWga9BNV3LrwHPmDbqd-71" value="&lt;u&gt;Code&lt;/u&gt;" style="whiteSpace=wrap;html=1;align=center;" vertex="1" parent="1">
          <mxGeometry x="180" y="1550" width="100" height="40" as="geometry" />
        </mxCell>
        <mxCell id="sZWga9BNV3LrwHPmDbqd-72" value="Name" style="whiteSpace=wrap;html=1;align=center;" vertex="1" parent="1">
          <mxGeometry x="280" y="1550" width="100" height="40" as="geometry" />
        </mxCell>
        <mxCell id="sZWga9BNV3LrwHPmDbqd-73" value="Addr" style="whiteSpace=wrap;html=1;align=center;" vertex="1" parent="1">
          <mxGeometry x="380" y="1550" width="100" height="40" as="geometry" />
        </mxCell>
        <mxCell id="sZWga9BNV3LrwHPmDbqd-76" value="&lt;b&gt;BANK&lt;/b&gt;" style="text;html=1;strokeColor=none;fillColor=none;align=center;verticalAlign=middle;whiteSpace=wrap;rounded=0;" vertex="1" parent="1">
          <mxGeometry x="180" y="1530" width="40" height="20" as="geometry" />
        </mxCell>
        <mxCell id="sZWga9BNV3LrwHPmDbqd-90" style="edgeStyle=orthogonalEdgeStyle;rounded=0;orthogonalLoop=1;jettySize=auto;html=1;entryX=0;entryY=0.5;entryDx=0;entryDy=0;" edge="1" parent="1" source="sZWga9BNV3LrwHPmDbqd-77" target="sZWga9BNV3LrwHPmDbqd-71">
          <mxGeometry relative="1" as="geometry">
            <Array as="points">
              <mxPoint x="160" y="1670" />
              <mxPoint x="160" y="1570" />
            </Array>
          </mxGeometry>
        </mxCell>
        <mxCell id="sZWga9BNV3LrwHPmDbqd-77" value="Code" style="whiteSpace=wrap;html=1;align=center;" vertex="1" parent="1">
          <mxGeometry x="180" y="1650" width="100" height="40" as="geometry" />
        </mxCell>
        <mxCell id="sZWga9BNV3LrwHPmDbqd-78" value="Branch_no" style="whiteSpace=wrap;html=1;align=center;" vertex="1" parent="1">
          <mxGeometry x="280" y="1650" width="100" height="40" as="geometry" />
        </mxCell>
        <mxCell id="sZWga9BNV3LrwHPmDbqd-79" value="Addr" style="whiteSpace=wrap;html=1;align=center;" vertex="1" parent="1">
          <mxGeometry x="380" y="1650" width="100" height="40" as="geometry" />
        </mxCell>
        <mxCell id="sZWga9BNV3LrwHPmDbqd-80" value="&lt;b&gt;BANK_BRANCH&lt;/b&gt;" style="text;html=1;strokeColor=none;fillColor=none;align=center;verticalAlign=middle;whiteSpace=wrap;rounded=0;" vertex="1" parent="1">
          <mxGeometry x="210" y="1630" width="40" height="20" as="geometry" />
        </mxCell>
        <mxCell id="sZWga9BNV3LrwHPmDbqd-82" value="" style="endArrow=none;html=1;rounded=0;" edge="1" parent="1">
          <mxGeometry relative="1" as="geometry">
            <mxPoint x="210" y="1680" as="sourcePoint" />
            <mxPoint x="370" y="1680" as="targetPoint" />
          </mxGeometry>
        </mxCell>
        <mxCell id="sZWga9BNV3LrwHPmDbqd-83" value="Code" style="whiteSpace=wrap;html=1;align=center;" vertex="1" parent="1">
          <mxGeometry x="480" y="1750" width="100" height="40" as="geometry" />
        </mxCell>
        <mxCell id="sZWga9BNV3LrwHPmDbqd-91" style="edgeStyle=orthogonalEdgeStyle;rounded=0;orthogonalLoop=1;jettySize=auto;html=1;exitX=0;exitY=0;exitDx=0;exitDy=0;" edge="1" parent="1" source="sZWga9BNV3LrwHPmDbqd-84">
          <mxGeometry relative="1" as="geometry">
            <mxPoint x="280" y="1690" as="targetPoint" />
            <Array as="points">
              <mxPoint x="580" y="1720" />
              <mxPoint x="280" y="1720" />
            </Array>
          </mxGeometry>
        </mxCell>
        <mxCell id="sZWga9BNV3LrwHPmDbqd-84" value="Branch_no" style="whiteSpace=wrap;html=1;align=center;" vertex="1" parent="1">
          <mxGeometry x="580" y="1750" width="100" height="40" as="geometry" />
        </mxCell>
        <mxCell id="sZWga9BNV3LrwHPmDbqd-85" value="&lt;u&gt;Acct_no&lt;/u&gt;" style="whiteSpace=wrap;html=1;align=center;" vertex="1" parent="1">
          <mxGeometry x="180" y="1750" width="100" height="40" as="geometry" />
        </mxCell>
        <mxCell id="sZWga9BNV3LrwHPmDbqd-86" value="&lt;b&gt;ACCOUNT&lt;/b&gt;" style="text;html=1;strokeColor=none;fillColor=none;align=center;verticalAlign=middle;whiteSpace=wrap;rounded=0;" vertex="1" parent="1">
          <mxGeometry x="190" y="1730" width="40" height="20" as="geometry" />
        </mxCell>
        <mxCell id="sZWga9BNV3LrwHPmDbqd-88" value="Balance" style="whiteSpace=wrap;html=1;align=center;" vertex="1" parent="1">
          <mxGeometry x="280" y="1750" width="100" height="40" as="geometry" />
        </mxCell>
        <mxCell id="sZWga9BNV3LrwHPmDbqd-89" value="Type" style="whiteSpace=wrap;html=1;align=center;" vertex="1" parent="1">
          <mxGeometry x="380" y="1750" width="100" height="40" as="geometry" />
        </mxCell>
        <mxCell id="sZWga9BNV3LrwHPmDbqd-92" value="Code" style="whiteSpace=wrap;html=1;align=center;" vertex="1" parent="1">
          <mxGeometry x="475" y="1850" width="100" height="40" as="geometry" />
        </mxCell>
        <mxCell id="sZWga9BNV3LrwHPmDbqd-98" style="edgeStyle=orthogonalEdgeStyle;rounded=0;orthogonalLoop=1;jettySize=auto;html=1;exitX=0;exitY=0;exitDx=0;exitDy=0;entryX=0;entryY=0;entryDx=0;entryDy=0;" edge="1" parent="1" source="sZWga9BNV3LrwHPmDbqd-93" target="sZWga9BNV3LrwHPmDbqd-78">
          <mxGeometry relative="1" as="geometry">
            <Array as="points">
              <mxPoint x="575" y="1830" />
              <mxPoint x="740" y="1830" />
              <mxPoint x="740" y="1630" />
              <mxPoint x="280" y="1630" />
            </Array>
          </mxGeometry>
        </mxCell>
        <mxCell id="sZWga9BNV3LrwHPmDbqd-93" value="Branch_no" style="whiteSpace=wrap;html=1;align=center;" vertex="1" parent="1">
          <mxGeometry x="575" y="1850" width="100" height="40" as="geometry" />
        </mxCell>
        <mxCell id="sZWga9BNV3LrwHPmDbqd-94" value="&lt;u&gt;Loan_no&lt;/u&gt;" style="whiteSpace=wrap;html=1;align=center;" vertex="1" parent="1">
          <mxGeometry x="175" y="1850" width="100" height="40" as="geometry" />
        </mxCell>
        <mxCell id="sZWga9BNV3LrwHPmDbqd-95" value="&lt;b&gt;LOAN&lt;/b&gt;" style="text;html=1;strokeColor=none;fillColor=none;align=center;verticalAlign=middle;whiteSpace=wrap;rounded=0;" vertex="1" parent="1">
          <mxGeometry x="185" y="1830" width="40" height="20" as="geometry" />
        </mxCell>
        <mxCell id="sZWga9BNV3LrwHPmDbqd-96" value="Amount" style="whiteSpace=wrap;html=1;align=center;" vertex="1" parent="1">
          <mxGeometry x="275" y="1850" width="100" height="40" as="geometry" />
        </mxCell>
        <mxCell id="sZWga9BNV3LrwHPmDbqd-97" value="Type" style="whiteSpace=wrap;html=1;align=center;" vertex="1" parent="1">
          <mxGeometry x="375" y="1850" width="100" height="40" as="geometry" />
        </mxCell>
      </root>
    </mxGraphModel>
  </diagram>
</mxfile>
